<ttFont>
    <TTGlyph name=".notdef" xMin="45" yMin="0" xMax="1019" yMax="1433">
      <contour>
        <pt x="250" y="1141" on="1"/>
        <pt x="275" y="1163" on="0"/>
        <pt x="332" y="1201" on="0"/>
        <pt x="400" y="1230" on="0"/>
        <pt x="479" y="1247" on="0"/>
        <pt x="525" y="1247" on="1"/>
        <pt x="588" y="1247" on="0"/>
        <pt x="691" y="1212" on="0"/>
        <pt x="764" y="1148" on="0"/>
        <pt x="805" y="1057" on="0"/>
        <pt x="805" y="1001" on="1"/>
        <pt x="805" y="946" on="0"/>
        <pt x="775" y="866" on="0"/>
        <pt x="730" y="807" on="0"/>
        <pt x="676" y="764" on="0"/>
        <pt x="628" y="726" on="0"/>
        <pt x="593" y="689" on="0"/>
        <pt x="589" y="666" on="1"/>
        <pt x="572" y="561" on="1"/>
        <pt x="450" y="561" on="1"/>
        <pt x="440" y="658" on="1"/>
        <pt x="438" y="677" on="0"/>
        <pt x="437" y="689" on="0"/>
        <pt x="437" y="693" on="1"/>
        <pt x="437" y="724" on="0"/>
        <pt x="467" y="771" on="0"/>
        <pt x="512" y="811" on="0"/>
        <pt x="565" y="849" on="0"/>
        <pt x="610" y="895" on="0"/>
        <pt x="640" y="951" on="0"/>
        <pt x="640" y="990" on="1"/>
        <pt x="640" y="1041" on="0"/>
        <pt x="567" y="1101" on="0"/>
        <pt x="510" y="1101" on="1"/>
        <pt x="469" y="1101" on="0"/>
        <pt x="413" y="1083" on="0"/>
        <pt x="373" y="1061" on="0"/>
        <pt x="345" y="1043" on="0"/>
        <pt x="334" y="1043" on="1"/>
        <pt x="309" y="1043" on="0"/>
        <pt x="297" y="1065" on="1"/>
      </contour>
      <contour>
        <pt x="396" y="292" on="1"/>
        <pt x="396" y="339" on="0"/>
        <pt x="458" y="403" on="0"/>
        <pt x="506" y="403" on="1"/>
        <pt x="528" y="403" on="0"/>
        <pt x="568" y="386" on="0"/>
        <pt x="597" y="356" on="0"/>
        <pt x="614" y="315" on="0"/>
        <pt x="614" y="292" on="1"/>
        <pt x="614" y="269" on="0"/>
        <pt x="597" y="229" on="0"/>
        <pt x="568" y="199" on="0"/>
        <pt x="528" y="182" on="0"/>
        <pt x="506" y="182" on="1"/>
        <pt x="458" y="182" on="0"/>
        <pt x="396" y="245" on="0"/>
      </contour>
      <contour>
        <pt x="45" y="1433" on="1"/>
        <pt x="1019" y="1433" on="1"/>
        <pt x="1019" y="0" on="1"/>
        <pt x="45" y="0" on="1"/>
      </contour>
      <contour>
        <pt x="95" y="54" on="1"/>
        <pt x="962" y="54" on="1"/>
        <pt x="962" y="1378" on="1"/>
        <pt x="95" y="1378" on="1"/>
      </contour>
    </TTGlyph>
    <TTGlyph name="A" xMin="-63" yMin="0" xMax="1180" yMax="1433">
      <contour>
        <pt x="1180" y="0" on="1"/>
        <pt x="1036" y="0" on="1"/>
        <pt x="1011" y="0" on="0"/>
        <pt x="983" y="25" on="0"/>
        <pt x="978" y="45" on="1"/>
        <pt x="900" y="395" on="1"/>
        <pt x="316" y="395" on="1"/>
        <pt x="152" y="45" on="1"/>
        <pt x="143" y="27" on="0"/>
        <pt x="106" y="0" on="0"/>
        <pt x="83" y="0" on="1"/>
        <pt x="-63" y="0" on="1"/>
        <pt x="640" y="1433" on="1"/>
        <pt x="829" y="1433" on="1"/>
      </contour>
      <contour>
        <pt x="379" y="531" on="1"/>
        <pt x="870" y="531" on="1"/>
        <pt x="738" y="1124" on="1"/>
        <pt x="732" y="1150" on="0"/>
        <pt x="718" y="1216" on="0"/>
        <pt x="713" y="1254" on="1"/>
        <pt x="699" y="1216" on="0"/>
        <pt x="670" y="1149" on="0"/>
        <pt x="657" y="1123" on="1"/>
      </contour>
    </TTGlyph>
    <TTGlyph name="AE" xMin="-88" yMin="0" xMax="1726" yMax="1433">
      <contour>
        <pt x="772" y="1433" on="1"/>
        <pt x="1726" y="1433" on="1"/>
        <pt x="1708" y="1280" on="1"/>
        <pt x="1016" y="1280" on="1"/>
        <pt x="1016" y="796" on="1"/>
        <pt x="1528" y="796" on="1"/>
        <pt x="1509" y="649" on="1"/>
        <pt x="1016" y="649" on="1"/>
        <pt x="1016" y="152" on="1"/>
        <pt x="1570" y="152" on="1"/>
        <pt x="1550" y="0" on="1"/>
        <pt x="840" y="0" on="1"/>
        <pt x="840" y="395" on="1"/>
        <pt x="335" y="395" on="1"/>
        <pt x="130" y="45" on="1"/>
        <pt x="119" y="27" on="0"/>
        <pt x="81" y="0" on="0"/>
        <pt x="57" y="0" on="1"/>
        <pt x="-88" y="0" on="1"/>
      </contour>
      <contour>
        <pt x="415" y="531" on="1"/>
        <pt x="840" y="531" on="1"/>
        <pt x="840" y="1280" on="1"/>
        <pt x="826" y="1244" on="0"/>
        <pt x="796" y="1180" on="0"/>
        <pt x="779" y="1151" on="1"/>
      </contour>
    </TTGlyph>
    <TTGlyph name="Aacute" xMin="-63" yMin="0" xMax="1180" yMax="1781">
      <component glyphName="A" x="0" y="0" flags="0x204"/>
      <component glyphName="acute.case" x="351" y="0" flags="0x4"/>
    </TTGlyph>
    <TTGlyph name="Acircumflex" xMin="-63" yMin="0" xMax="1180" yMax="1755">
      <component glyphName="A" x="0" y="0" flags="0x204"/>
      <component glyphName="circumflex.case" x="335" y="0" flags="0x4"/>
    </TTGlyph>
    <TTGlyph name="Adieresis" xMin="-63" yMin="0" xMax="1180" yMax="1768">
      <component glyphName="A" x="0" y="0" flags="0x204"/>
      <component glyphName="dieresis.case" x="335" y="0" flags="0x4"/>
    </TTGlyph>
    <TTGlyph name="Agrave" xMin="-63" yMin="0" xMax="1180" yMax="1781">
      <component glyphName="A" x="0" y="0" flags="0x204"/>
      <component glyphName="grave.case" x="335" y="0" flags="0x4"/>
    </TTGlyph>
    <TTGlyph name="Aogonek" xMin="-63" yMin="-342" xMax="1222" yMax="1433">
      <contour>
        <pt x="1188" y="-214" on="1"/>
        <pt x="1201" y="-214" on="0"/>
        <pt x="1204" y="-226" on="1"/>
        <pt x="1222" y="-290" on="1"/>
        <pt x="1192" y="-313" on="0"/>
        <pt x="1103" y="-342" on="0"/>
        <pt x="1055" y="-342" on="1"/>
        <pt x="979" y="-342" on="0"/>
        <pt x="897" y="-272" on="0"/>
        <pt x="897" y="-214" on="1"/>
        <pt x="897" y="-151" on="0"/>
        <pt x="983" y="-41" on="0"/>
        <pt x="1049" y="0" on="1"/>
        <pt x="1036" y="0" on="1"/>
        <pt x="1011" y="0" on="0"/>
        <pt x="983" y="25" on="0"/>
        <pt x="978" y="45" on="1"/>
        <pt x="900" y="395" on="1"/>
        <pt x="316" y="395" on="1"/>
        <pt x="152" y="45" on="1"/>
        <pt x="143" y="27" on="0"/>
        <pt x="106" y="0" on="0"/>
        <pt x="83" y="0" on="1"/>
        <pt x="-63" y="0" on="1"/>
        <pt x="640" y="1433" on="1"/>
        <pt x="829" y="1433" on="1"/>
        <pt x="1180" y="0" on="1"/>
        <pt x="1158" y="0" on="1"/>
        <pt x="1137" y="-12" on="0"/>
        <pt x="1092" y="-45" on="0"/>
        <pt x="1054" y="-87" on="0"/>
        <pt x="1030" y="-138" on="0"/>
        <pt x="1030" y="-167" on="1"/>
        <pt x="1030" y="-199" on="0"/>
        <pt x="1070" y="-238" on="0"/>
        <pt x="1102" y="-238" on="1"/>
        <pt x="1123" y="-238" on="0"/>
        <pt x="1152" y="-231" on="0"/>
        <pt x="1172" y="-222" on="0"/>
        <pt x="1183" y="-214" on="0"/>
      </contour>
      <contour>
        <pt x="379" y="531" on="1"/>
        <pt x="870" y="531" on="1"/>
        <pt x="738" y="1124" on="1"/>
        <pt x="732" y="1150" on="0"/>
        <pt x="718" y="1216" on="0"/>
        <pt x="713" y="1254" on="1"/>
        <pt x="699" y="1216" on="0"/>
        <pt x="670" y="1149" on="0"/>
        <pt x="657" y="1123" on="1"/>
      </contour>
    </TTGlyph>
    <TTGlyph name="Aring" xMin="-63" yMin="0" xMax="1180" yMax="1837">
      <component glyphName="A" x="0" y="0" flags="0x204"/>
      <component glyphName="ring.case" x="336" y="0" flags="0x4"/>
    </TTGlyph>
    <TTGlyph name="Atilde" xMin="-63" yMin="0" xMax="1180" yMax="1744">
      <component glyphName="A" x="0" y="0" flags="0x204"/>
      <component glyphName="tilde.case" x="335" y="0" flags="0x4"/>
    </TTGlyph>
    <TTGlyph name="B" xMin="97" yMin="0" xMax="1125" yMax="1433">
      <contour>
        <pt x="97" y="0" on="1"/>
        <pt x="274" y="1433" on="1"/>
        <pt x="698" y="1433" on="1"/>
        <pt x="810" y="1433" on="0"/>
        <pt x="971" y="1388" on="0"/>
        <pt x="1075" y="1305" on="0"/>
        <pt x="1125" y="1186" on="0"/>
        <pt x="1125" y="1113" on="1"/>
        <pt x="1125" y="1049" on="0"/>
        <pt x="1088" y="933" on="0"/>
        <pt x="1014" y="835" on="0"/>
        <pt x="903" y="759" on="0"/>
        <pt x="829" y="736" on="1"/>
        <pt x="958" y="707" on="0"/>
        <pt x="1088" y="562" on="0"/>
        <pt x="1088" y="450" on="1"/>
        <pt x="1088" y="351" on="0"/>
        <pt x="1017" y="186" on="0"/>
        <pt x="883" y="66" on="0"/>
        <pt x="690" y="0" on="0"/>
        <pt x="569" y="0" on="1"/>
      </contour>
      <contour>
        <pt x="365" y="655" on="1"/>
        <pt x="302" y="148" on="1"/>
        <pt x="584" y="148" on="1"/>
        <pt x="663" y="148" on="0"/>
        <pt x="783" y="190" on="0"/>
        <pt x="863" y="268" on="0"/>
        <pt x="903" y="378" on="0"/>
        <pt x="903" y="447" on="1"/>
        <pt x="903" y="542" on="0"/>
        <pt x="775" y="655" on="0"/>
        <pt x="646" y="655" on="1"/>
      </contour>
      <contour>
        <pt x="381" y="787" on="1"/>
        <pt x="612" y="787" on="1"/>
        <pt x="693" y="787" on="0"/>
        <pt x="814" y="830" on="0"/>
        <pt x="895" y="907" on="0"/>
        <pt x="935" y="1015" on="0"/>
        <pt x="935" y="1080" on="1"/>
        <pt x="935" y="1183" on="0"/>
        <pt x="811" y="1286" on="0"/>
        <pt x="681" y="1286" on="1"/>
        <pt x="443" y="1286" on="1"/>
      </contour>
    </TTGlyph>
    <TTGlyph name="C" xMin="100" yMin="-16" xMax="1272" yMax="1449">
      <contour>
        <pt x="679" y="145" on="1"/>
        <pt x="745" y="145" on="0"/>
        <pt x="847" y="167" on="0"/>
        <pt x="925" y="199" on="0"/>
        <pt x="980" y="238" on="0"/>
        <pt x="1021" y="270" on="0"/>
        <pt x="1049" y="292" on="0"/>
        <pt x="1060" y="292" on="1"/>
        <pt x="1069" y="292" on="0"/>
        <pt x="1081" y="285" on="0"/>
        <pt x="1085" y="280" on="1"/>
        <pt x="1150" y="199" on="1"/>
        <pt x="1056" y="97" on="0"/>
        <pt x="811" y="-16" on="0"/>
        <pt x="648" y="-16" on="1"/>
        <pt x="520" y="-16" on="0"/>
        <pt x="316" y="76" on="0"/>
        <pt x="175" y="241" on="0"/>
        <pt x="100" y="469" on="0"/>
        <pt x="100" y="606" on="1"/>
        <pt x="100" y="793" on="0"/>
        <pt x="216" y="1103" on="0"/>
        <pt x="419" y="1326" on="0"/>
        <pt x="693" y="1449" on="0"/>
        <pt x="851" y="1449" on="1"/>
        <pt x="927" y="1449" on="0"/>
        <pt x="1051" y="1423" on="0"/>
        <pt x="1153" y="1373" on="0"/>
        <pt x="1236" y="1303" on="0"/>
        <pt x="1272" y="1260" on="1"/>
        <pt x="1208" y="1182" on="1"/>
        <pt x="1200" y="1172" on="0"/>
        <pt x="1180" y="1159" on="0"/>
        <pt x="1165" y="1159" on="1"/>
        <pt x="1147" y="1159" on="0"/>
        <pt x="1107" y="1199" on="0"/>
        <pt x="1038" y="1246" on="0"/>
        <pt x="929" y="1286" on="0"/>
        <pt x="842" y="1286" on="1"/>
        <pt x="726" y="1286" on="0"/>
        <pt x="524" y="1193" on="0"/>
        <pt x="376" y="1020" on="0"/>
        <pt x="291" y="774" on="0"/>
        <pt x="291" y="621" on="1"/>
        <pt x="291" y="510" on="0"/>
        <pt x="349" y="334" on="0"/>
        <pt x="452" y="211" on="0"/>
        <pt x="594" y="145" on="0"/>
      </contour>
    </TTGlyph>
    <TTGlyph name="Cacute" xMin="100" yMin="-16" xMax="1272" yMax="1781">
      <component glyphName="C" x="0" y="0" flags="0x4"/>
      <component glyphName="acute.case" x="444" y="0" flags="0x4"/>
    </TTGlyph>
    <TTGlyph name="Ccedilla" xMin="100" yMin="-351" xMax="1272" yMax="1449">
      <contour>
        <pt x="507" y="-249" on="1"/>
        <pt x="513" y="-249" on="0"/>
        <pt x="527" y="-257" on="0"/>
        <pt x="547" y="-266" on="0"/>
        <pt x="573" y="-274" on="0"/>
        <pt x="593" y="-274" on="1"/>
        <pt x="633" y="-274" on="0"/>
        <pt x="676" y="-234" on="0"/>
        <pt x="676" y="-204" on="1"/>
        <pt x="676" y="-169" on="0"/>
        <pt x="605" y="-140" on="0"/>
        <pt x="539" y="-131" on="1"/>
        <pt x="587" y="-13" on="1"/>
        <pt x="473" y="-2" on="0"/>
        <pt x="292" y="98" on="0"/>
        <pt x="166" y="260" on="0"/>
        <pt x="100" y="478" on="0"/>
        <pt x="100" y="606" on="1"/>
        <pt x="100" y="793" on="0"/>
        <pt x="216" y="1103" on="0"/>
        <pt x="419" y="1326" on="0"/>
        <pt x="693" y="1449" on="0"/>
        <pt x="851" y="1449" on="1"/>
        <pt x="927" y="1449" on="0"/>
        <pt x="1051" y="1423" on="0"/>
        <pt x="1153" y="1373" on="0"/>
        <pt x="1236" y="1303" on="0"/>
        <pt x="1272" y="1260" on="1"/>
        <pt x="1208" y="1182" on="1"/>
        <pt x="1200" y="1172" on="0"/>
        <pt x="1180" y="1159" on="0"/>
        <pt x="1165" y="1159" on="1"/>
        <pt x="1147" y="1159" on="0"/>
        <pt x="1107" y="1199" on="0"/>
        <pt x="1038" y="1246" on="0"/>
        <pt x="929" y="1286" on="0"/>
        <pt x="842" y="1286" on="1"/>
        <pt x="726" y="1286" on="0"/>
        <pt x="524" y="1193" on="0"/>
        <pt x="376" y="1020" on="0"/>
        <pt x="291" y="774" on="0"/>
        <pt x="291" y="621" on="1"/>
        <pt x="291" y="510" on="0"/>
        <pt x="349" y="334" on="0"/>
        <pt x="452" y="211" on="0"/>
        <pt x="594" y="145" on="0"/>
        <pt x="679" y="145" on="1"/>
        <pt x="745" y="145" on="0"/>
        <pt x="847" y="167" on="0"/>
        <pt x="925" y="199" on="0"/>
        <pt x="980" y="238" on="0"/>
        <pt x="1021" y="270" on="0"/>
        <pt x="1049" y="292" on="0"/>
        <pt x="1060" y="292" on="1"/>
        <pt x="1069" y="292" on="0"/>
        <pt x="1081" y="285" on="0"/>
        <pt x="1085" y="280" on="1"/>
        <pt x="1150" y="199" on="1"/>
        <pt x="1063" y="105" on="0"/>
        <pt x="840" y="-6" on="0"/>
        <pt x="694" y="-14" on="1"/>
        <pt x="672" y="-72" on="1"/>
        <pt x="746" y="-89" on="0"/>
        <pt x="813" y="-152" on="0"/>
        <pt x="813" y="-198" on="1"/>
        <pt x="813" y="-234" on="0"/>
        <pt x="780" y="-291" on="0"/>
        <pt x="721" y="-330" on="0"/>
        <pt x="640" y="-351" on="0"/>
        <pt x="592" y="-351" on="1"/>
        <pt x="554" y="-351" on="0"/>
        <pt x="488" y="-334" on="0"/>
        <pt x="461" y="-319" on="1"/>
        <pt x="484" y="-266" on="1"/>
        <pt x="492" y="-249" on="0"/>
      </contour>
    </TTGlyph>
    <TTGlyph name="D" xMin="97" yMin="0" xMax="1341" yMax="1433">
      <contour>
        <pt x="1341" y="817" on="1"/>
        <pt x="1341" y="634" on="0"/>
        <pt x="1228" y="333" on="0"/>
        <pt x="1029" y="118" on="0"/>
        <pt x="754" y="0" on="0"/>
        <pt x="592" y="0" on="1"/>
        <pt x="97" y="0" on="1"/>
        <pt x="274" y="1433" on="1"/>
        <pt x="768" y="1433" on="1"/>
        <pt x="900" y="1433" on="0"/>
        <pt x="1113" y="1343" on="0"/>
        <pt x="1261" y="1180" on="0"/>
        <pt x="1341" y="953" on="0"/>
      </contour>
      <contour>
        <pt x="1149" y="813" on="1"/>
        <pt x="1149" y="921" on="0"/>
        <pt x="1094" y="1095" on="0"/>
        <pt x="991" y="1216" on="0"/>
        <pt x="843" y="1281" on="0"/>
        <pt x="750" y="1281" on="1"/>
        <pt x="444" y="1281" on="1"/>
        <pt x="304" y="151" on="1"/>
        <pt x="610" y="151" on="1"/>
        <pt x="730" y="151" on="0"/>
        <pt x="928" y="242" on="0"/>
        <pt x="1070" y="413" on="0"/>
        <pt x="1149" y="658" on="0"/>
      </contour>
    </TTGlyph>
    <TTGlyph name="Delta" xMin="-47" yMin="0" xMax="1217" yMax="1431">
      <contour>
        <pt x="1217" y="0" on="1"/>
        <pt x="-47" y="0" on="1"/>
        <pt x="677" y="1431" on="1"/>
        <pt x="846" y="1431" on="1"/>
      </contour>
      <contour>
        <pt x="218" y="150" on="1"/>
        <pt x="989" y="150" on="1"/>
        <pt x="760" y="1124" on="1"/>
        <pt x="755" y="1147" on="0"/>
        <pt x="742" y="1204" on="0"/>
        <pt x="737" y="1236" on="1"/>
        <pt x="724" y="1203" on="0"/>
        <pt x="700" y="1146" on="0"/>
        <pt x="689" y="1123" on="1"/>
      </contour>
    </TTGlyph>
    <TTGlyph name="E" xMin="97" yMin="0" xMax="1089" yMax="1433">
      <contour>
        <pt x="1070" y="1280" on="1"/>
        <pt x="443" y="1280" on="1"/>
        <pt x="383" y="797" on="1"/>
        <pt x="891" y="797" on="1"/>
        <pt x="872" y="650" on="1"/>
        <pt x="365" y="650" on="1"/>
        <pt x="304" y="152" on="1"/>
        <pt x="933" y="152" on="1"/>
        <pt x="914" y="0" on="1"/>
        <pt x="97" y="0" on="1"/>
        <pt x="274" y="1433" on="1"/>
        <pt x="1089" y="1433" on="1"/>
      </contour>
    </TTGlyph>
    <TTGlyph name="Eacute" xMin="97" yMin="0" xMax="1089" yMax="1781">
      <component glyphName="E" x="0" y="0" flags="0x204"/>
      <component glyphName="acute.case" x="292" y="0" flags="0x4"/>
    </TTGlyph>
    <TTGlyph name="Ecircumflex" xMin="97" yMin="0" xMax="1089" yMax="1755">
      <component glyphName="E" x="0" y="0" flags="0x204"/>
      <component glyphName="circumflex.case" x="292" y="0" flags="0x4"/>
    </TTGlyph>
    <TTGlyph name="Edieresis" xMin="97" yMin="0" xMax="1089" yMax="1768">
      <component glyphName="E" x="0" y="0" flags="0x204"/>
      <component glyphName="dieresis.case" x="292" y="0" flags="0x4"/>
    </TTGlyph>
    <TTGlyph name="Egrave" xMin="97" yMin="0" xMax="1089" yMax="1781">
      <component glyphName="E" x="0" y="0" flags="0x204"/>
      <component glyphName="grave.case" x="292" y="0" flags="0x4"/>
    </TTGlyph>
    <TTGlyph name="Eogonek" xMin="97" yMin="-342" xMax="1089" yMax="1433">
      <contour>
        <pt x="839" y="-214" on="1"/>
        <pt x="852" y="-214" on="0"/>
        <pt x="855" y="-226" on="1"/>
        <pt x="873" y="-290" on="1"/>
        <pt x="843" y="-313" on="0"/>
        <pt x="754" y="-342" on="0"/>
        <pt x="706" y="-342" on="1"/>
        <pt x="630" y="-342" on="0"/>
        <pt x="548" y="-272" on="0"/>
        <pt x="548" y="-214" on="1"/>
        <pt x="548" y="-151" on="0"/>
        <pt x="634" y="-41" on="0"/>
        <pt x="700" y="0" on="1"/>
        <pt x="97" y="0" on="1"/>
        <pt x="274" y="1433" on="1"/>
        <pt x="1089" y="1433" on="1"/>
        <pt x="1070" y="1280" on="1"/>
        <pt x="443" y="1280" on="1"/>
        <pt x="383" y="797" on="1"/>
        <pt x="891" y="797" on="1"/>
        <pt x="872" y="650" on="1"/>
        <pt x="365" y="650" on="1"/>
        <pt x="304" y="152" on="1"/>
        <pt x="933" y="152" on="1"/>
        <pt x="914" y="0" on="1"/>
        <pt x="809" y="0" on="1"/>
        <pt x="788" y="-12" on="0"/>
        <pt x="743" y="-45" on="0"/>
        <pt x="705" y="-87" on="0"/>
        <pt x="681" y="-138" on="0"/>
        <pt x="681" y="-167" on="1"/>
        <pt x="681" y="-199" on="0"/>
        <pt x="721" y="-238" on="0"/>
        <pt x="753" y="-238" on="1"/>
        <pt x="774" y="-238" on="0"/>
        <pt x="803" y="-231" on="0"/>
        <pt x="823" y="-222" on="0"/>
        <pt x="834" y="-214" on="0"/>
      </contour>
    </TTGlyph>
    <TTGlyph name="Eth" xMin="69" yMin="0" xMax="1408" yMax="1433">
      <contour>
        <pt x="83" y="777" on="1"/>
        <pt x="262" y="777" on="1"/>
        <pt x="342" y="1433" on="1"/>
        <pt x="836" y="1433" on="1"/>
        <pt x="968" y="1433" on="0"/>
        <pt x="1180" y="1343" on="0"/>
        <pt x="1329" y="1180" on="0"/>
        <pt x="1408" y="953" on="0"/>
        <pt x="1408" y="817" on="1"/>
        <pt x="1408" y="634" on="0"/>
        <pt x="1296" y="333" on="0"/>
        <pt x="1096" y="118" on="0"/>
        <pt x="823" y="0" on="0"/>
        <pt x="661" y="0" on="1"/>
        <pt x="167" y="0" on="1"/>
        <pt x="248" y="667" on="1"/>
        <pt x="69" y="667" on="1"/>
      </contour>
      <contour>
        <pt x="1216" y="813" on="1"/>
        <pt x="1216" y="921" on="0"/>
        <pt x="1161" y="1095" on="0"/>
        <pt x="1059" y="1216" on="0"/>
        <pt x="911" y="1281" on="0"/>
        <pt x="818" y="1281" on="1"/>
        <pt x="511" y="1281" on="1"/>
        <pt x="449" y="777" on="1"/>
        <pt x="797" y="777" on="1"/>
        <pt x="784" y="667" on="1"/>
        <pt x="436" y="667" on="1"/>
        <pt x="373" y="151" on="1"/>
        <pt x="679" y="151" on="1"/>
        <pt x="799" y="151" on="0"/>
        <pt x="996" y="242" on="0"/>
        <pt x="1138" y="413" on="0"/>
        <pt x="1216" y="658" on="0"/>
      </contour>
    </TTGlyph>
    <TTGlyph name="Euro" xMin="42" yMin="-15" xMax="1217" yMax="1446">
      <contour>
        <pt x="84" y="897" on="1"/>
        <pt x="225" y="897" on="1"/>
        <pt x="258" y="1024" on="0"/>
        <pt x="377" y="1228" on="0"/>
        <pt x="538" y="1370" on="0"/>
        <pt x="735" y="1446" on="0"/>
        <pt x="847" y="1446" on="1"/>
        <pt x="980" y="1446" on="0"/>
        <pt x="1158" y="1347" on="0"/>
        <pt x="1217" y="1260" on="1"/>
        <pt x="1150" y="1194" on="1"/>
        <pt x="1138" y="1182" on="0"/>
        <pt x="1124" y="1174" on="0"/>
        <pt x="1110" y="1174" on="1"/>
        <pt x="1099" y="1174" on="0"/>
        <pt x="1079" y="1192" on="0"/>
        <pt x="1052" y="1219" on="0"/>
        <pt x="1014" y="1251" on="0"/>
        <pt x="960" y="1278" on="0"/>
        <pt x="886" y="1296" on="0"/>
        <pt x="835" y="1296" on="1"/>
        <pt x="758" y="1296" on="0"/>
        <pt x="622" y="1244" on="0"/>
        <pt x="511" y="1142" on="0"/>
        <pt x="427" y="993" on="0"/>
        <pt x="401" y="897" on="1"/>
        <pt x="961" y="897" on="1"/>
        <pt x="955" y="842" on="1"/>
        <pt x="952" y="825" on="0"/>
        <pt x="923" y="798" on="0"/>
        <pt x="898" y="798" on="1"/>
        <pt x="380" y="798" on="1"/>
        <pt x="374" y="763" on="0"/>
        <pt x="367" y="691" on="0"/>
        <pt x="365" y="653" on="1"/>
        <pt x="839" y="653" on="1"/>
        <pt x="832" y="599" on="1"/>
        <pt x="830" y="582" on="0"/>
        <pt x="799" y="554" on="0"/>
        <pt x="776" y="554" on="1"/>
        <pt x="364" y="554" on="1"/>
        <pt x="371" y="350" on="0"/>
        <pt x="538" y="135" on="0"/>
        <pt x="683" y="135" on="1"/>
        <pt x="765" y="135" on="0"/>
        <pt x="876" y="180" on="0"/>
        <pt x="949" y="234" on="0"/>
        <pt x="995" y="279" on="0"/>
        <pt x="1013" y="279" on="1"/>
        <pt x="1021" y="279" on="0"/>
        <pt x="1032" y="275" on="0"/>
        <pt x="1038" y="267" on="1"/>
        <pt x="1103" y="199" on="1"/>
        <pt x="1020" y="98" on="0"/>
        <pt x="798" y="-15" on="0"/>
        <pt x="656" y="-15" on="1"/>
        <pt x="543" y="-15" on="0"/>
        <pt x="370" y="67" on="0"/>
        <pt x="252" y="216" on="0"/>
        <pt x="190" y="426" on="0"/>
        <pt x="187" y="554" on="1"/>
        <pt x="42" y="554" on="1"/>
        <pt x="54" y="653" on="1"/>
        <pt x="189" y="653" on="1"/>
        <pt x="192" y="727" on="0"/>
        <pt x="204" y="798" on="1"/>
        <pt x="72" y="798" on="1"/>
      </contour>
    </TTGlyph>
    <TTGlyph name="F" xMin="97" yMin="0" xMax="1089" yMax="1433">
      <contour>
        <pt x="1070" y="1280" on="1"/>
        <pt x="443" y="1280" on="1"/>
        <pt x="380" y="770" on="1"/>
        <pt x="917" y="770" on="1"/>
        <pt x="896" y="618" on="1"/>
        <pt x="362" y="618" on="1"/>
        <pt x="286" y="0" on="1"/>
        <pt x="97" y="0" on="1"/>
        <pt x="274" y="1433" on="1"/>
        <pt x="1089" y="1433" on="1"/>
      </contour>
    </TTGlyph>
    <TTGlyph name="G" xMin="100" yMin="-16" xMax="1317" yMax="1449">
      <contour>
        <pt x="704" y="135" on="1"/>
        <pt x="756" y="135" on="0"/>
        <pt x="846" y="146" on="0"/>
        <pt x="925" y="168" on="0"/>
        <pt x="998" y="199" on="0"/>
        <pt x="1034" y="219" on="1"/>
        <pt x="1073" y="543" on="1"/>
        <pt x="874" y="543" on="1"/>
        <pt x="857" y="543" on="0"/>
        <pt x="838" y="561" on="0"/>
        <pt x="838" y="575" on="1"/>
        <pt x="838" y="575" on="0"/>
        <pt x="839" y="585" on="0"/>
        <pt x="840" y="597" on="0"/>
        <pt x="841" y="607" on="0"/>
        <pt x="841" y="607" on="1"/>
        <pt x="850" y="686" on="1"/>
        <pt x="1260" y="686" on="1"/>
        <pt x="1193" y="139" on="1"/>
        <pt x="1139" y="100" on="0"/>
        <pt x="1024" y="42" on="0"/>
        <pt x="896" y="3" on="0"/>
        <pt x="754" y="-16" on="0"/>
        <pt x="672" y="-16" on="1"/>
        <pt x="542" y="-16" on="0"/>
        <pt x="331" y="77" on="0"/>
        <pt x="181" y="244" on="0"/>
        <pt x="100" y="476" on="0"/>
        <pt x="100" y="614" on="1"/>
        <pt x="100" y="799" on="0"/>
        <pt x="215" y="1106" on="0"/>
        <pt x="418" y="1327" on="0"/>
        <pt x="697" y="1449" on="0"/>
        <pt x="862" y="1449" on="1"/>
        <pt x="945" y="1449" on="0"/>
        <pt x="1081" y="1421" on="0"/>
        <pt x="1191" y="1371" on="0"/>
        <pt x="1280" y="1303" on="0"/>
        <pt x="1317" y="1263" on="1"/>
        <pt x="1257" y="1185" on="1"/>
        <pt x="1247" y="1172" on="0"/>
        <pt x="1226" y="1158" on="0"/>
        <pt x="1212" y="1158" on="1"/>
        <pt x="1195" y="1158" on="0"/>
        <pt x="1179" y="1168" on="1"/>
        <pt x="1157" y="1181" on="0"/>
        <pt x="1104" y="1222" on="0"/>
        <pt x="1029" y="1259" on="0"/>
        <pt x="923" y="1286" on="0"/>
        <pt x="848" y="1286" on="1"/>
        <pt x="725" y="1286" on="0"/>
        <pt x="520" y="1192" on="0"/>
        <pt x="373" y="1018" on="0"/>
        <pt x="291" y="772" on="0"/>
        <pt x="291" y="621" on="1"/>
        <pt x="291" y="508" on="0"/>
        <pt x="350" y="328" on="0"/>
        <pt x="458" y="202" on="0"/>
        <pt x="610" y="135" on="0"/>
      </contour>
    </TTGlyph>
    <TTGlyph name="H" xMin="97" yMin="0" xMax="1349" yMax="1433">
      <contour>
        <pt x="1173" y="0" on="1"/>
        <pt x="984" y="0" on="1"/>
        <pt x="1065" y="654" on="1"/>
        <pt x="366" y="654" on="1"/>
        <pt x="286" y="0" on="1"/>
        <pt x="97" y="0" on="1"/>
        <pt x="274" y="1433" on="1"/>
        <pt x="462" y="1433" on="1"/>
        <pt x="383" y="790" on="1"/>
        <pt x="1082" y="790" on="1"/>
        <pt x="1161" y="1433" on="1"/>
        <pt x="1349" y="1433" on="1"/>
      </contour>
    </TTGlyph>
    <TTGlyph name="I" xMin="129" yMin="0" xMax="492" yMax="1433">
      <contour>
        <pt x="317" y="0" on="1"/>
        <pt x="129" y="0" on="1"/>
        <pt x="304" y="1433" on="1"/>
        <pt x="492" y="1433" on="1"/>
      </contour>
    </TTGlyph>
    <TTGlyph name="Iacute" xMin="129" yMin="0" xMax="775" yMax="1781">
      <component glyphName="I" x="0" y="0" flags="0x204"/>
      <component glyphName="acute.case" x="1" y="0" flags="0x4"/>
    </TTGlyph>
    <TTGlyph name="Icircumflex" xMin="103" yMin="0" xMax="712" yMax="1755">
      <component glyphName="I" x="0" y="0" flags="0x204"/>
      <component glyphName="circumflex.case" x="1" y="0" flags="0x4"/>
    </TTGlyph>
    <TTGlyph name="Idieresis" xMin="129" yMin="0" xMax="681" yMax="1768">
      <component glyphName="I" x="0" y="0" flags="0x204"/>
      <component glyphName="dieresis.case" x="1" y="0" flags="0x4"/>
    </TTGlyph>
    <TTGlyph name="Igrave" xMin="86" yMin="0" xMax="522" yMax="1781">
      <component glyphName="I" x="0" y="0" flags="0x204"/>
      <component glyphName="grave.case" x="1" y="0" flags="0x4"/>
    </TTGlyph>
    <TTGlyph name="J" xMin="-5" yMin="-16" xMax="774" yMax="1433">
      <contour>
        <pt x="657" y="475" on="1"/>
        <pt x="628" y="237" on="0"/>
        <pt x="389" y="-16" on="0"/>
        <pt x="191" y="-16" on="1"/>
        <pt x="137" y="-16" on="0"/>
        <pt x="43" y="-2" on="0"/>
        <pt x="-5" y="12" on="1"/>
        <pt x="9" y="121" on="1"/>
        <pt x="11" y="136" on="0"/>
        <pt x="30" y="158" on="0"/>
        <pt x="50" y="158" on="1"/>
        <pt x="60" y="158" on="0"/>
        <pt x="86" y="153" on="0"/>
        <pt x="119" y="146" on="0"/>
        <pt x="162" y="141" on="0"/>
        <pt x="190" y="141" on="1"/>
        <pt x="242" y="141" on="0"/>
        <pt x="334" y="175" on="0"/>
        <pt x="408" y="253" on="0"/>
        <pt x="459" y="379" on="0"/>
        <pt x="470" y="471" on="1"/>
        <pt x="587" y="1433" on="1"/>
        <pt x="774" y="1433" on="1"/>
      </contour>
    </TTGlyph>
    <TTGlyph name="K" xMin="114" yMin="0" xMax="1317" yMax="1433">
      <contour>
        <pt x="398" y="802" on="1"/>
        <pt x="464" y="802" on="1"/>
        <pt x="499" y="802" on="0"/>
        <pt x="544" y="821" on="0"/>
        <pt x="565" y="844" on="1"/>
        <pt x="1061" y="1388" on="1"/>
        <pt x="1084" y="1414" on="0"/>
        <pt x="1128" y="1433" on="0"/>
        <pt x="1158" y="1433" on="1"/>
        <pt x="1317" y="1433" on="1"/>
        <pt x="745" y="813" on="1"/>
        <pt x="724" y="790" on="0"/>
        <pt x="687" y="759" on="0"/>
        <pt x="667" y="750" on="1"/>
        <pt x="691" y="740" on="0"/>
        <pt x="726" y="705" on="0"/>
        <pt x="743" y="679" on="1"/>
        <pt x="1175" y="0" on="1"/>
        <pt x="1014" y="0" on="1"/>
        <pt x="996" y="0" on="0"/>
        <pt x="971" y="6" on="0"/>
        <pt x="954" y="16" on="0"/>
        <pt x="942" y="31" on="0"/>
        <pt x="936" y="40" on="1"/>
        <pt x="560" y="612" on="1"/>
        <pt x="544" y="636" on="0"/>
        <pt x="505" y="658" on="0"/>
        <pt x="462" y="658" on="1"/>
        <pt x="381" y="658" on="1"/>
        <pt x="300" y="0" on="1"/>
        <pt x="114" y="0" on="1"/>
        <pt x="289" y="1433" on="1"/>
        <pt x="476" y="1433" on="1"/>
      </contour>
    </TTGlyph>
    <TTGlyph name="L" xMin="97" yMin="0" xMax="870" yMax="1433">
      <contour>
        <pt x="303" y="158" on="1"/>
        <pt x="870" y="158" on="1"/>
        <pt x="851" y="0" on="1"/>
        <pt x="97" y="0" on="1"/>
        <pt x="274" y="1433" on="1"/>
        <pt x="461" y="1433" on="1"/>
      </contour>
    </TTGlyph>
    <TTGlyph name="Lslash" xMin="28" yMin="0" xMax="924" yMax="1433">
      <contour>
        <pt x="437" y="806" on="1"/>
        <pt x="802" y="997" on="1"/>
        <pt x="787" y="872" on="1"/>
        <pt x="783" y="844" on="0"/>
        <pt x="757" y="830" on="1"/>
        <pt x="418" y="649" on="1"/>
        <pt x="357" y="158" on="1"/>
        <pt x="924" y="158" on="1"/>
        <pt x="905" y="0" on="1"/>
        <pt x="151" y="0" on="1"/>
        <pt x="220" y="557" on="1"/>
        <pt x="28" y="461" on="1"/>
        <pt x="44" y="589" on="1"/>
        <pt x="47" y="615" on="0"/>
        <pt x="72" y="628" on="1"/>
        <pt x="239" y="715" on="1"/>
        <pt x="328" y="1433" on="1"/>
        <pt x="515" y="1433" on="1"/>
      </contour>
    </TTGlyph>
    <TTGlyph name="M" xMin="97" yMin="0" xMax="1654" yMax="1433">
      <contour>
        <pt x="820" y="500" on="1"/>
        <pt x="826" y="479" on="0"/>
        <pt x="837" y="440" on="0"/>
        <pt x="842" y="419" on="1"/>
        <pt x="860" y="461" on="0"/>
        <pt x="884" y="500" on="1"/>
        <pt x="1447" y="1401" on="1"/>
        <pt x="1461" y="1424" on="0"/>
        <pt x="1490" y="1433" on="0"/>
        <pt x="1515" y="1433" on="1"/>
        <pt x="1654" y="1433" on="1"/>
        <pt x="1478" y="0" on="1"/>
        <pt x="1314" y="0" on="1"/>
        <pt x="1445" y="1059" on="1"/>
        <pt x="1447" y="1079" on="0"/>
        <pt x="1456" y="1125" on="0"/>
        <pt x="1461" y="1150" on="1"/>
        <pt x="904" y="252" on="1"/>
        <pt x="878" y="209" on="0"/>
        <pt x="831" y="209" on="1"/>
        <pt x="805" y="209" on="1"/>
        <pt x="759" y="209" on="0"/>
        <pt x="742" y="252" on="1"/>
        <pt x="397" y="1152" on="1"/>
        <pt x="396" y="1128" on="0"/>
        <pt x="394" y="1082" on="0"/>
        <pt x="392" y="1062" on="1"/>
        <pt x="262" y="0" on="1"/>
        <pt x="97" y="0" on="1"/>
        <pt x="274" y="1433" on="1"/>
        <pt x="411" y="1433" on="1"/>
        <pt x="436" y="1433" on="0"/>
        <pt x="465" y="1424" on="0"/>
        <pt x="473" y="1401" on="1"/>
        <pt x="820" y="500" on="1"/>
      </contour>
    </TTGlyph>
    <TTGlyph name="N" xMin="97" yMin="0" xMax="1349" yMax="1433">
      <contour>
        <pt x="370" y="1433" on="1"/>
        <pt x="395" y="1433" on="0"/>
        <pt x="418" y="1421" on="0"/>
        <pt x="430" y="1401" on="1"/>
        <pt x="1048" y="306" on="1"/>
        <pt x="1050" y="329" on="0"/>
        <pt x="1054" y="370" on="0"/>
        <pt x="1056" y="389" on="1"/>
        <pt x="1184" y="1433" on="1"/>
        <pt x="1349" y="1433" on="1"/>
        <pt x="1173" y="0" on="1"/>
        <pt x="1079" y="0" on="1"/>
        <pt x="1056" y="0" on="0"/>
        <pt x="1026" y="15" on="0"/>
        <pt x="1015" y="35" on="1"/>
        <pt x="398" y="1131" on="1"/>
        <pt x="398" y="1126" on="0"/>
        <pt x="397" y="1108" on="0"/>
        <pt x="395" y="1088" on="0"/>
        <pt x="393" y="1067" on="0"/>
        <pt x="392" y="1060" on="1"/>
        <pt x="262" y="0" on="1"/>
        <pt x="97" y="0" on="1"/>
        <pt x="274" y="1433" on="1"/>
        <pt x="370" y="1433" on="1"/>
      </contour>
    </TTGlyph>
    <TTGlyph name="Nacute" xMin="97" yMin="0" xMax="1349" yMax="1781">
      <component glyphName="N" x="0" y="0" flags="0x204"/>
      <component glyphName="acute.case" x="410" y="0" flags="0x4"/>
    </TTGlyph>
    <TTGlyph name="Ntilde" xMin="97" yMin="0" xMax="1349" yMax="1744">
      <component glyphName="N" x="0" y="0" flags="0x204"/>
      <component glyphName="tilde.case" x="410" y="0" flags="0x4"/>
    </TTGlyph>
    <TTGlyph name="O" xMin="100" yMin="-15" xMax="1422" yMax="1449">
      <contour>
        <pt x="1422" y="818" on="1"/>
        <pt x="1422" y="696" on="0"/>
        <pt x="1370" y="478" on="0"/>
        <pt x="1275" y="293" on="0"/>
        <pt x="1140" y="145" on="0"/>
        <pt x="973" y="41" on="0"/>
        <pt x="778" y="-15" on="0"/>
        <pt x="671" y="-15" on="1"/>
        <pt x="539" y="-15" on="0"/>
        <pt x="328" y="79" on="0"/>
        <pt x="179" y="246" on="0"/>
        <pt x="100" y="476" on="0"/>
        <pt x="100" y="613" on="1"/>
        <pt x="100" y="796" on="0"/>
        <pt x="214" y="1103" on="0"/>
        <pt x="415" y="1325" on="0"/>
        <pt x="690" y="1449" on="0"/>
        <pt x="851" y="1449" on="1"/>
        <pt x="983" y="1449" on="0"/>
        <pt x="1194" y="1354" on="0"/>
        <pt x="1343" y="1186" on="0"/>
        <pt x="1422" y="955" on="0"/>
      </contour>
      <contour>
        <pt x="1230" y="814" on="1"/>
        <pt x="1230" y="923" on="0"/>
        <pt x="1174" y="1100" on="0"/>
        <pt x="1071" y="1224" on="0"/>
        <pt x="922" y="1292" on="0"/>
        <pt x="829" y="1292" on="1"/>
        <pt x="711" y="1292" on="0"/>
        <pt x="513" y="1197" on="0"/>
        <pt x="371" y="1021" on="0"/>
        <pt x="291" y="772" on="0"/>
        <pt x="291" y="618" on="1"/>
        <pt x="291" y="509" on="0"/>
        <pt x="347" y="333" on="0"/>
        <pt x="450" y="209" on="0"/>
        <pt x="598" y="142" on="0"/>
        <pt x="691" y="142" on="1"/>
        <pt x="811" y="142" on="0"/>
        <pt x="1009" y="236" on="0"/>
        <pt x="1151" y="411" on="0"/>
        <pt x="1230" y="660" on="0"/>
      </contour>
    </TTGlyph>
    <TTGlyph name="OE" xMin="100" yMin="-14" xMax="2033" yMax="1449">
      <contour>
        <pt x="2033" y="1433" on="1"/>
        <pt x="2015" y="1280" on="1"/>
        <pt x="1389" y="1280" on="1"/>
        <pt x="1330" y="796" on="1"/>
        <pt x="1833" y="796" on="1"/>
        <pt x="1816" y="649" on="1"/>
        <pt x="1312" y="649" on="1"/>
        <pt x="1251" y="152" on="1"/>
        <pt x="1876" y="152" on="1"/>
        <pt x="1857" y="0" on="1"/>
        <pt x="1065" y="0" on="1"/>
        <pt x="1093" y="226" on="1"/>
        <pt x="1003" y="112" on="0"/>
        <pt x="756" y="-14" on="0"/>
        <pt x="606" y="-14" on="1"/>
        <pt x="489" y="-14" on="0"/>
        <pt x="301" y="78" on="0"/>
        <pt x="170" y="241" on="0"/>
        <pt x="100" y="468" on="0"/>
        <pt x="100" y="603" on="1"/>
        <pt x="100" y="788" on="0"/>
        <pt x="204" y="1098" on="0"/>
        <pt x="388" y="1323" on="0"/>
        <pt x="639" y="1449" on="0"/>
        <pt x="785" y="1449" on="1"/>
        <pt x="860" y="1449" on="0"/>
        <pt x="989" y="1411" on="0"/>
        <pt x="1096" y="1340" on="0"/>
        <pt x="1179" y="1239" on="0"/>
        <pt x="1209" y="1176" on="1"/>
        <pt x="1241" y="1433" on="1"/>
      </contour>
      <contour>
        <pt x="1137" y="824" on="1"/>
        <pt x="1137" y="930" on="0"/>
        <pt x="1090" y="1105" on="0"/>
        <pt x="1000" y="1229" on="0"/>
        <pt x="870" y="1297" on="0"/>
        <pt x="787" y="1297" on="1"/>
        <pt x="678" y="1297" on="0"/>
        <pt x="496" y="1198" on="0"/>
        <pt x="364" y="1017" on="0"/>
        <pt x="291" y="763" on="0"/>
        <pt x="291" y="608" on="1"/>
        <pt x="291" y="501" on="0"/>
        <pt x="339" y="328" on="0"/>
        <pt x="430" y="204" on="0"/>
        <pt x="561" y="137" on="0"/>
        <pt x="644" y="137" on="1"/>
        <pt x="753" y="137" on="0"/>
        <pt x="934" y="235" on="0"/>
        <pt x="1065" y="415" on="0"/>
        <pt x="1137" y="668" on="0"/>
      </contour>
    </TTGlyph>
    <TTGlyph name="Oacute" xMin="100" yMin="-15" xMax="1422" yMax="1781">
      <component glyphName="O" x="0" y="0" flags="0x204"/>
      <component glyphName="acute.case" x="446" y="0" flags="0x4"/>
    </TTGlyph>
    <TTGlyph name="Ocircumflex" xMin="100" yMin="-15" xMax="1422" yMax="1755">
      <component glyphName="O" x="0" y="0" flags="0x204"/>
      <component glyphName="circumflex.case" x="446" y="0" flags="0x4"/>
    </TTGlyph>
    <TTGlyph name="Odieresis" xMin="100" yMin="-15" xMax="1422" yMax="1768">
      <component glyphName="O" x="0" y="0" flags="0x204"/>
      <component glyphName="dieresis.case" x="446" y="0" flags="0x4"/>
    </TTGlyph>
    <TTGlyph name="Ograve" xMin="100" yMin="-15" xMax="1422" yMax="1781">
      <component glyphName="O" x="0" y="0" flags="0x204"/>
      <component glyphName="grave.case" x="446" y="0" flags="0x4"/>
    </TTGlyph>
    <TTGlyph name="Omega" xMin="26" yMin="0" xMax="1345" yMax="1447">
      <contour>
        <pt x="707" y="0" on="1"/>
        <pt x="760" y="433" on="1"/>
        <pt x="844" y="451" on="0"/>
        <pt x="987" y="525" on="0"/>
        <pt x="1092" y="645" on="0"/>
        <pt x="1152" y="813" on="0"/>
        <pt x="1152" y="925" on="1"/>
        <pt x="1152" y="1015" on="0"/>
        <pt x="1099" y="1153" on="0"/>
        <pt x="1002" y="1248" on="0"/>
        <pt x="867" y="1296" on="0"/>
        <pt x="785" y="1296" on="1"/>
        <pt x="684" y="1296" on="0"/>
        <pt x="510" y="1230" on="0"/>
        <pt x="382" y="1102" on="0"/>
        <pt x="310" y="914" on="0"/>
        <pt x="310" y="792" on="1"/>
        <pt x="310" y="715" on="0"/>
        <pt x="352" y="594" on="0"/>
        <pt x="428" y="505" on="0"/>
        <pt x="534" y="447" on="0"/>
        <pt x="598" y="433" on="1"/>
        <pt x="546" y="0" on="1"/>
        <pt x="81" y="0" on="1"/>
        <pt x="55" y="0" on="0"/>
        <pt x="26" y="29" on="0"/>
        <pt x="26" y="52" on="1"/>
        <pt x="26" y="67" on="0"/>
        <pt x="30" y="104" on="0"/>
        <pt x="32" y="120" on="1"/>
        <pt x="35" y="138" on="0"/>
        <pt x="37" y="158" on="1"/>
        <pt x="420" y="158" on="1"/>
        <pt x="442" y="337" on="1"/>
        <pt x="366" y="359" on="0"/>
        <pt x="246" y="443" on="0"/>
        <pt x="164" y="561" on="0"/>
        <pt x="120" y="708" on="0"/>
        <pt x="120" y="792" on="1"/>
        <pt x="120" y="889" on="0"/>
        <pt x="168" y="1061" on="0"/>
        <pt x="256" y="1207" on="0"/>
        <pt x="380" y="1323" on="0"/>
        <pt x="532" y="1404" on="0"/>
        <pt x="707" y="1447" on="0"/>
        <pt x="803" y="1447" on="1"/>
        <pt x="925" y="1447" on="0"/>
        <pt x="1125" y="1371" on="0"/>
        <pt x="1267" y="1235" on="0"/>
        <pt x="1345" y="1046" on="0"/>
        <pt x="1345" y="934" on="1"/>
        <pt x="1345" y="820" on="0"/>
        <pt x="1280" y="624" on="0"/>
        <pt x="1161" y="469" on="0"/>
        <pt x="995" y="361" on="0"/>
        <pt x="893" y="336" on="1"/>
        <pt x="871" y="158" on="1"/>
        <pt x="1253" y="158" on="1"/>
        <pt x="1243" y="61" on="1"/>
        <pt x="1240" y="34" on="0"/>
        <pt x="1200" y="2" on="0"/>
        <pt x="1171" y="0" on="1"/>
      </contour>
    </TTGlyph>
    <TTGlyph name="Oslash" xMin="48" yMin="-109" xMax="1471" yMax="1497">
      <contour>
        <pt x="1422" y="818" on="1"/>
        <pt x="1422" y="696" on="0"/>
        <pt x="1370" y="478" on="0"/>
        <pt x="1275" y="293" on="0"/>
        <pt x="1140" y="145" on="0"/>
        <pt x="973" y="41" on="0"/>
        <pt x="778" y="-15" on="0"/>
        <pt x="671" y="-15" on="1"/>
        <pt x="574" y="-15" on="0"/>
        <pt x="410" y="35" on="0"/>
        <pt x="343" y="82" on="1"/>
        <pt x="234" y="-55" on="1"/>
        <pt x="210" y="-85" on="0"/>
        <pt x="149" y="-109" on="0"/>
        <pt x="122" y="-109" on="1"/>
        <pt x="48" y="-109" on="1"/>
        <pt x="259" y="156" on="1"/>
        <pt x="182" y="240" on="0"/>
        <pt x="100" y="473" on="0"/>
        <pt x="100" y="613" on="1"/>
        <pt x="100" y="796" on="0"/>
        <pt x="214" y="1103" on="0"/>
        <pt x="415" y="1325" on="0"/>
        <pt x="690" y="1449" on="0"/>
        <pt x="851" y="1449" on="1"/>
        <pt x="955" y="1449" on="0"/>
        <pt x="1130" y="1390" on="0"/>
        <pt x="1199" y="1336" on="1"/>
        <pt x="1288" y="1448" on="1"/>
        <pt x="1299" y="1462" on="0"/>
        <pt x="1317" y="1481" on="0"/>
        <pt x="1336" y="1492" on="0"/>
        <pt x="1359" y="1497" on="0"/>
        <pt x="1375" y="1497" on="1"/>
        <pt x="1471" y="1497" on="1"/>
        <pt x="1279" y="1257" on="1"/>
        <pt x="1348" y="1173" on="0"/>
        <pt x="1422" y="950" on="0"/>
      </contour>
      <contour>
        <pt x="291" y="618" on="1"/>
        <pt x="291" y="521" on="0"/>
        <pt x="334" y="362" on="0"/>
        <pt x="375" y="302" on="1"/>
        <pt x="1088" y="1197" on="1"/>
        <pt x="1038" y="1243" on="0"/>
        <pt x="908" y="1292" on="0"/>
        <pt x="829" y="1292" on="1"/>
        <pt x="711" y="1292" on="0"/>
        <pt x="513" y="1197" on="0"/>
        <pt x="371" y="1021" on="0"/>
        <pt x="291" y="772" on="0"/>
      </contour>
      <contour>
        <pt x="1230" y="814" on="1"/>
        <pt x="1230" y="902" on="0"/>
        <pt x="1194" y="1049" on="0"/>
        <pt x="1160" y="1108" on="1"/>
        <pt x="452" y="219" on="1"/>
        <pt x="500" y="181" on="0"/>
        <pt x="619" y="142" on="0"/>
        <pt x="691" y="142" on="1"/>
        <pt x="811" y="142" on="0"/>
        <pt x="1009" y="236" on="0"/>
        <pt x="1151" y="411" on="0"/>
        <pt x="1230" y="660" on="0"/>
      </contour>
    </TTGlyph>
    <TTGlyph name="Otilde" xMin="100" yMin="-15" xMax="1422" yMax="1744">
      <component glyphName="O" x="0" y="0" flags="0x204"/>
      <component glyphName="tilde.case" x="446" y="0" flags="0x4"/>
    </TTGlyph>
    <TTGlyph name="P" xMin="114" yMin="0" xMax="1129" yMax="1433">
      <contour>
        <pt x="366" y="538" on="1"/>
        <pt x="300" y="0" on="1"/>
        <pt x="114" y="0" on="1"/>
        <pt x="289" y="1433" on="1"/>
        <pt x="684" y="1433" on="1"/>
        <pt x="798" y="1433" on="0"/>
        <pt x="966" y="1379" on="0"/>
        <pt x="1075" y="1279" on="0"/>
        <pt x="1129" y="1139" on="0"/>
        <pt x="1129" y="1053" on="1"/>
        <pt x="1129" y="940" on="0"/>
        <pt x="1055" y="751" on="0"/>
        <pt x="914" y="615" on="0"/>
        <pt x="707" y="538" on="0"/>
        <pt x="574" y="538" on="1"/>
      </contour>
      <contour>
        <pt x="458" y="1286" on="1"/>
        <pt x="384" y="686" on="1"/>
        <pt x="592" y="686" on="1"/>
        <pt x="677" y="686" on="0"/>
        <pt x="807" y="738" on="0"/>
        <pt x="895" y="831" on="0"/>
        <pt x="941" y="960" on="0"/>
        <pt x="941" y="1036" on="1"/>
        <pt x="941" y="1094" on="0"/>
        <pt x="907" y="1186" on="0"/>
        <pt x="839" y="1251" on="0"/>
        <pt x="735" y="1286" on="0"/>
        <pt x="666" y="1286" on="1"/>
      </contour>
    </TTGlyph>
    <TTGlyph name="Q" xMin="100" yMin="-297" xMax="1422" yMax="1449">
      <contour>
        <pt x="1422" y="818" on="1"/>
        <pt x="1422" y="697" on="0"/>
        <pt x="1371" y="481" on="0"/>
        <pt x="1277" y="297" on="0"/>
        <pt x="1144" y="148" on="0"/>
        <pt x="1062" y="96" on="1"/>
        <pt x="1351" y="-297" on="1"/>
        <pt x="1200" y="-297" on="1"/>
        <pt x="1166" y="-297" on="0"/>
        <pt x="1113" y="-278" on="0"/>
        <pt x="1095" y="-253" on="1"/>
        <pt x="898" y="20" on="1"/>
        <pt x="844" y="3" on="0"/>
        <pt x="731" y="-15" on="0"/>
        <pt x="671" y="-15" on="1"/>
        <pt x="539" y="-15" on="0"/>
        <pt x="328" y="79" on="0"/>
        <pt x="179" y="246" on="0"/>
        <pt x="100" y="476" on="0"/>
        <pt x="100" y="613" on="1"/>
        <pt x="100" y="796" on="0"/>
        <pt x="214" y="1103" on="0"/>
        <pt x="415" y="1325" on="0"/>
        <pt x="690" y="1449" on="0"/>
        <pt x="851" y="1449" on="1"/>
        <pt x="983" y="1449" on="0"/>
        <pt x="1194" y="1354" on="0"/>
        <pt x="1343" y="1186" on="0"/>
        <pt x="1422" y="955" on="0"/>
      </contour>
      <contour>
        <pt x="1230" y="814" on="1"/>
        <pt x="1230" y="923" on="0"/>
        <pt x="1174" y="1100" on="0"/>
        <pt x="1071" y="1224" on="0"/>
        <pt x="922" y="1292" on="0"/>
        <pt x="829" y="1292" on="1"/>
        <pt x="711" y="1292" on="0"/>
        <pt x="513" y="1197" on="0"/>
        <pt x="371" y="1021" on="0"/>
        <pt x="291" y="772" on="0"/>
        <pt x="291" y="618" on="1"/>
        <pt x="291" y="509" on="0"/>
        <pt x="347" y="333" on="0"/>
        <pt x="450" y="209" on="0"/>
        <pt x="598" y="142" on="0"/>
        <pt x="691" y="142" on="1"/>
        <pt x="811" y="142" on="0"/>
        <pt x="1009" y="236" on="0"/>
        <pt x="1151" y="411" on="0"/>
        <pt x="1230" y="660" on="0"/>
      </contour>
    </TTGlyph>
    <TTGlyph name="R" xMin="114" yMin="0" xMax="1109" yMax="1433">
      <contour>
        <pt x="374" y="601" on="1"/>
        <pt x="300" y="0" on="1"/>
        <pt x="114" y="0" on="1"/>
        <pt x="289" y="1433" on="1"/>
        <pt x="666" y="1433" on="1"/>
        <pt x="780" y="1433" on="0"/>
        <pt x="947" y="1385" on="0"/>
        <pt x="1056" y="1296" on="0"/>
        <pt x="1109" y="1169" on="0"/>
        <pt x="1109" y="1091" on="1"/>
        <pt x="1109" y="1004" on="0"/>
        <pt x="1057" y="854" on="0"/>
        <pt x="959" y="735" on="0"/>
        <pt x="821" y="652" on="0"/>
        <pt x="734" y="632" on="1"/>
        <pt x="766" y="610" on="0"/>
        <pt x="787" y="572" on="1"/>
        <pt x="1096" y="0" on="1"/>
        <pt x="930" y="0" on="1"/>
        <pt x="881" y="0" on="0"/>
        <pt x="860" y="40" on="1"/>
        <pt x="590" y="556" on="1"/>
        <pt x="577" y="581" on="0"/>
        <pt x="543" y="601" on="0"/>
        <pt x="506" y="601" on="1"/>
      </contour>
      <contour>
        <pt x="459" y="1286" on="1"/>
        <pt x="391" y="737" on="1"/>
        <pt x="574" y="737" on="1"/>
        <pt x="659" y="737" on="0"/>
        <pt x="789" y="785" on="0"/>
        <pt x="878" y="872" on="0"/>
        <pt x="923" y="991" on="0"/>
        <pt x="923" y="1062" on="1"/>
        <pt x="923" y="1171" on="0"/>
        <pt x="786" y="1286" on="0"/>
        <pt x="649" y="1286" on="1"/>
      </contour>
    </TTGlyph>
    <TTGlyph name="S" xMin="12" yMin="-16" xMax="981" yMax="1447">
      <contour>
        <pt x="926" y="1211" on="1"/>
        <pt x="915" y="1197" on="0"/>
        <pt x="895" y="1182" on="0"/>
        <pt x="881" y="1182" on="1"/>
        <pt x="864" y="1182" on="0"/>
        <pt x="826" y="1217" on="0"/>
        <pt x="767" y="1258" on="0"/>
        <pt x="683" y="1293" on="0"/>
        <pt x="620" y="1293" on="1"/>
        <pt x="556" y="1293" on="0"/>
        <pt x="456" y="1253" on="0"/>
        <pt x="387" y="1184" on="0"/>
        <pt x="351" y="1092" on="0"/>
        <pt x="351" y="1039" on="1"/>
        <pt x="351" y="987" on="0"/>
        <pt x="399" y="916" on="0"/>
        <pt x="477" y="865" on="0"/>
        <pt x="578" y="826" on="0"/>
        <pt x="682" y="785" on="0"/>
        <pt x="783" y="735" on="0"/>
        <pt x="861" y="661" on="0"/>
        <pt x="909" y="557" on="0"/>
        <pt x="909" y="483" on="1"/>
        <pt x="909" y="381" on="0"/>
        <pt x="839" y="200" on="0"/>
        <pt x="708" y="64" on="0"/>
        <pt x="522" y="-16" on="0"/>
        <pt x="406" y="-16" on="1"/>
        <pt x="278" y="-16" on="0"/>
        <pt x="77" y="85" on="0"/>
        <pt x="12" y="171" on="1"/>
        <pt x="78" y="260" on="1"/>
        <pt x="86" y="271" on="0"/>
        <pt x="110" y="285" on="0"/>
        <pt x="124" y="285" on="1"/>
        <pt x="143" y="285" on="0"/>
        <pt x="187" y="240" on="0"/>
        <pt x="255" y="185" on="0"/>
        <pt x="355" y="140" on="0"/>
        <pt x="430" y="140" on="1"/>
        <pt x="499" y="140" on="0"/>
        <pt x="610" y="184" on="0"/>
        <pt x="687" y="262" on="0"/>
        <pt x="729" y="371" on="0"/>
        <pt x="729" y="437" on="1"/>
        <pt x="729" y="492" on="0"/>
        <pt x="681" y="565" on="0"/>
        <pt x="603" y="615" on="0"/>
        <pt x="504" y="652" on="0"/>
        <pt x="399" y="690" on="0"/>
        <pt x="300" y="738" on="0"/>
        <pt x="222" y="812" on="0"/>
        <pt x="174" y="920" on="0"/>
        <pt x="174" y="999" on="1"/>
        <pt x="174" y="1087" on="0"/>
        <pt x="238" y="1249" on="0"/>
        <pt x="358" y="1373" on="0"/>
        <pt x="530" y="1447" on="0"/>
        <pt x="638" y="1447" on="1"/>
        <pt x="748" y="1447" on="0"/>
        <pt x="924" y="1363" on="0"/>
        <pt x="981" y="1290" on="1"/>
      </contour>
    </TTGlyph>
    <TTGlyph name="Sacute" xMin="12" yMin="-16" xMax="1028" yMax="1781">
      <component glyphName="S" x="0" y="0" flags="0x204"/>
      <component glyphName="acute.case" x="254" y="0" flags="0x4"/>
    </TTGlyph>
    <TTGlyph name="Scaron" xMin="12" yMin="-16" xMax="990" yMax="1755">
      <component glyphName="S" x="0" y="0" flags="0x204"/>
      <component glyphName="caron.case" x="249" y="0" flags="0x4"/>
    </TTGlyph>
    <TTGlyph name="T" xMin="123" yMin="0" xMax="1177" yMax="1433">
      <contour>
        <pt x="1177" y="1433" on="1"/>
        <pt x="1157" y="1276" on="1"/>
        <pt x="734" y="1276" on="1"/>
        <pt x="578" y="0" on="1"/>
        <pt x="392" y="0" on="1"/>
        <pt x="548" y="1276" on="1"/>
        <pt x="123" y="1276" on="1"/>
        <pt x="142" y="1433" on="1"/>
      </contour>
    </TTGlyph>
    <TTGlyph name="Thorn" xMin="174" yMin="0" xMax="1157" yMax="1433">
      <contour>
        <pt x="503" y="1165" on="1"/>
        <pt x="712" y="1165" on="1"/>
        <pt x="826" y="1165" on="0"/>
        <pt x="993" y="1111" on="0"/>
        <pt x="1103" y="1012" on="0"/>
        <pt x="1157" y="873" on="0"/>
        <pt x="1157" y="788" on="1"/>
        <pt x="1157" y="675" on="0"/>
        <pt x="1083" y="486" on="0"/>
        <pt x="941" y="349" on="0"/>
        <pt x="735" y="273" on="0"/>
        <pt x="602" y="273" on="1"/>
        <pt x="393" y="273" on="1"/>
        <pt x="360" y="0" on="1"/>
        <pt x="174" y="0" on="1"/>
        <pt x="349" y="1433" on="1"/>
        <pt x="536" y="1433" on="1"/>
      </contour>
      <contour>
        <pt x="485" y="1018" on="1"/>
        <pt x="411" y="421" on="1"/>
        <pt x="620" y="421" on="1"/>
        <pt x="705" y="421" on="0"/>
        <pt x="835" y="473" on="0"/>
        <pt x="923" y="566" on="0"/>
        <pt x="969" y="695" on="0"/>
        <pt x="969" y="771" on="1"/>
        <pt x="969" y="887" on="0"/>
        <pt x="833" y="1018" on="0"/>
        <pt x="693" y="1018" on="1"/>
      </contour>
    </TTGlyph>
    <TTGlyph name="U" xMin="146" yMin="-17" xMax="1316" yMax="1433">
      <contour>
        <pt x="630" y="147" on="1"/>
        <pt x="710" y="147" on="0"/>
        <pt x="845" y="209" on="0"/>
        <pt x="946" y="318" on="0"/>
        <pt x="1011" y="470" on="0"/>
        <pt x="1022" y="560" on="1"/>
        <pt x="1129" y="1433" on="1"/>
        <pt x="1316" y="1433" on="1"/>
        <pt x="1210" y="560" on="1"/>
        <pt x="1195" y="437" on="0"/>
        <pt x="1096" y="226" on="0"/>
        <pt x="940" y="71" on="0"/>
        <pt x="733" y="-17" on="0"/>
        <pt x="610" y="-17" on="1"/>
        <pt x="499" y="-17" on="0"/>
        <pt x="327" y="55" on="0"/>
        <pt x="208" y="184" on="0"/>
        <pt x="146" y="362" on="0"/>
        <pt x="146" y="468" on="1"/>
        <pt x="146" y="513" on="0"/>
        <pt x="152" y="560" on="1"/>
        <pt x="258" y="1433" on="1"/>
        <pt x="445" y="1433" on="1"/>
        <pt x="338" y="561" on="1"/>
        <pt x="336" y="541" on="0"/>
        <pt x="333" y="503" on="0"/>
        <pt x="333" y="485" on="1"/>
        <pt x="333" y="410" on="0"/>
        <pt x="372" y="286" on="0"/>
        <pt x="447" y="196" on="0"/>
        <pt x="558" y="147" on="0"/>
      </contour>
    </TTGlyph>
    <TTGlyph name="Uacute" xMin="146" yMin="-17" xMax="1316" yMax="1781">
      <component glyphName="U" x="0" y="0" flags="0x204"/>
      <component glyphName="acute.case" x="390" y="0" flags="0x4"/>
    </TTGlyph>
    <TTGlyph name="Ucircumflex" xMin="146" yMin="-17" xMax="1316" yMax="1755">
      <component glyphName="U" x="0" y="0" flags="0x204"/>
      <component glyphName="circumflex.case" x="390" y="0" flags="0x4"/>
    </TTGlyph>
    <TTGlyph name="Udieresis" xMin="146" yMin="-17" xMax="1316" yMax="1768">
      <component glyphName="U" x="0" y="0" flags="0x204"/>
      <component glyphName="dieresis.case" x="390" y="0" flags="0x4"/>
    </TTGlyph>
    <TTGlyph name="Ugrave" xMin="146" yMin="-17" xMax="1316" yMax="1781">
      <component glyphName="U" x="0" y="0" flags="0x204"/>
      <component glyphName="grave.case" x="390" y="0" flags="0x4"/>
    </TTGlyph>
    <TTGlyph name="V" xMin="124" yMin="0" xMax="1367" yMax="1433">
      <contour>
        <pt x="124" y="1433" on="1"/>
        <pt x="273" y="1433" on="1"/>
        <pt x="298" y="1433" on="0"/>
        <pt x="326" y="1407" on="0"/>
        <pt x="331" y="1388" on="1"/>
        <pt x="570" y="364" on="1"/>
        <pt x="578" y="332" on="0"/>
        <pt x="593" y="255" on="0"/>
        <pt x="598" y="213" on="1"/>
        <pt x="612" y="255" on="0"/>
        <pt x="643" y="331" on="0"/>
        <pt x="659" y="364" on="1"/>
        <pt x="1148" y="1388" on="1"/>
        <pt x="1156" y="1404" on="0"/>
        <pt x="1193" y="1433" on="0"/>
        <pt x="1217" y="1433" on="1"/>
        <pt x="1367" y="1433" on="1"/>
        <pt x="654" y="0" on="1"/>
        <pt x="485" y="0" on="1"/>
      </contour>
    </TTGlyph>
    <TTGlyph name="W" xMin="129" yMin="0" xMax="1985" yMax="1433">
      <contour>
        <pt x="129" y="1433" on="1"/>
        <pt x="275" y="1433" on="1"/>
        <pt x="300" y="1433" on="0"/>
        <pt x="330" y="1408" on="0"/>
        <pt x="333" y="1388" on="1"/>
        <pt x="487" y="374" on="1"/>
        <pt x="489" y="360" on="0"/>
        <pt x="492" y="320" on="0"/>
        <pt x="494" y="301" on="1"/>
        <pt x="495" y="279" on="0"/>
        <pt x="496" y="256" on="1"/>
        <pt x="506" y="288" on="0"/>
        <pt x="527" y="348" on="0"/>
        <pt x="538" y="374" on="1"/>
        <pt x="967" y="1388" on="1"/>
        <pt x="975" y="1405" on="0"/>
        <pt x="1011" y="1433" on="0"/>
        <pt x="1035" y="1433" on="1"/>
        <pt x="1078" y="1433" on="1"/>
        <pt x="1103" y="1433" on="0"/>
        <pt x="1133" y="1408" on="0"/>
        <pt x="1137" y="1388" on="1"/>
        <pt x="1316" y="374" on="1"/>
        <pt x="1321" y="348" on="0"/>
        <pt x="1327" y="290" on="0"/>
        <pt x="1329" y="258" on="1"/>
        <pt x="1339" y="290" on="0"/>
        <pt x="1356" y="348" on="0"/>
        <pt x="1366" y="374" on="1"/>
        <pt x="1769" y="1388" on="1"/>
        <pt x="1776" y="1405" on="0"/>
        <pt x="1815" y="1433" on="0"/>
        <pt x="1839" y="1433" on="1"/>
        <pt x="1985" y="1433" on="1"/>
        <pt x="1398" y="0" on="1"/>
        <pt x="1229" y="0" on="1"/>
        <pt x="1035" y="1103" on="1"/>
        <pt x="1032" y="1119" on="0"/>
        <pt x="1027" y="1157" on="0"/>
        <pt x="1025" y="1177" on="1"/>
        <pt x="1018" y="1157" on="0"/>
        <pt x="1005" y="1119" on="0"/>
        <pt x="998" y="1103" on="1"/>
        <pt x="533" y="0" on="1"/>
        <pt x="365" y="0" on="1"/>
      </contour>
    </TTGlyph>
    <TTGlyph name="X" xMin="-70" yMin="0" xMax="1260" yMax="1433">
      <contour>
        <pt x="500" y="765" on="1"/>
        <pt x="163" y="1433" on="1"/>
        <pt x="332" y="1433" on="1"/>
        <pt x="353" y="1433" on="0"/>
        <pt x="371" y="1419" on="0"/>
        <pt x="378" y="1405" on="1"/>
        <pt x="634" y="865" on="1"/>
        <pt x="643" y="884" on="0"/>
        <pt x="656" y="902" on="1"/>
        <pt x="1020" y="1404" on="1"/>
        <pt x="1031" y="1418" on="0"/>
        <pt x="1052" y="1433" on="0"/>
        <pt x="1067" y="1433" on="1"/>
        <pt x="1260" y="1433" on="1"/>
        <pt x="759" y="773" on="1"/>
        <pt x="1137" y="0" on="1"/>
        <pt x="969" y="0" on="1"/>
        <pt x="949" y="0" on="0"/>
        <pt x="926" y="23" on="0"/>
        <pt x="920" y="36" on="1"/>
        <pt x="628" y="661" on="1"/>
        <pt x="620" y="644" on="0"/>
        <pt x="610" y="631" on="1"/>
        <pt x="179" y="36" on="1"/>
        <pt x="153" y="0" on="0"/>
        <pt x="117" y="0" on="1"/>
        <pt x="-70" y="0" on="1"/>
      </contour>
    </TTGlyph>
    <TTGlyph name="Y" xMin="121" yMin="0" xMax="1275" yMax="1433">
      <contour>
        <pt x="686" y="573" on="1"/>
        <pt x="615" y="0" on="1"/>
        <pt x="428" y="0" on="1"/>
        <pt x="499" y="571" on="1"/>
        <pt x="121" y="1433" on="1"/>
        <pt x="287" y="1433" on="1"/>
        <pt x="312" y="1433" on="0"/>
        <pt x="338" y="1408" on="0"/>
        <pt x="346" y="1389" on="1"/>
        <pt x="584" y="815" on="1"/>
        <pt x="594" y="786" on="0"/>
        <pt x="608" y="734" on="0"/>
        <pt x="613" y="708" on="1"/>
        <pt x="625" y="734" on="0"/>
        <pt x="654" y="786" on="0"/>
        <pt x="671" y="815" on="1"/>
        <pt x="1052" y="1389" on="1"/>
        <pt x="1063" y="1405" on="0"/>
        <pt x="1096" y="1433" on="0"/>
        <pt x="1120" y="1433" on="1"/>
        <pt x="1275" y="1433" on="1"/>
      </contour>
    </TTGlyph>
    <TTGlyph name="Yacute" xMin="121" yMin="0" xMax="1275" yMax="1780">
      <component glyphName="Y" x="0" y="0" flags="0x204"/>
      <component glyphName="acute.case" x="316" y="-1" flags="0x4"/>
    </TTGlyph>
    <TTGlyph name="Ydieresis" xMin="121" yMin="0" xMax="1275" yMax="1767">
      <component glyphName="Y" x="0" y="0" flags="0x204"/>
      <component glyphName="dieresis.case" x="316" y="-1" flags="0x4"/>
    </TTGlyph>
    <TTGlyph name="Z" xMin="16" yMin="0" xMax="1195" yMax="1433">
      <contour>
        <pt x="1195" y="1433" on="1"/>
        <pt x="1187" y="1373" on="1"/>
        <pt x="1185" y="1359" on="0"/>
        <pt x="1173" y="1336" on="0"/>
        <pt x="1164" y="1324" on="1"/>
        <pt x="288" y="152" on="1"/>
        <pt x="1026" y="152" on="1"/>
        <pt x="1006" y="0" on="1"/>
        <pt x="16" y="0" on="1"/>
        <pt x="24" y="59" on="1"/>
        <pt x="26" y="73" on="0"/>
        <pt x="37" y="95" on="0"/>
        <pt x="46" y="107" on="1"/>
        <pt x="922" y="1280" on="1"/>
        <pt x="209" y="1280" on="1"/>
        <pt x="228" y="1433" on="1"/>
      </contour>
    </TTGlyph>
    <TTGlyph name="Zacute" xMin="16" yMin="0" xMax="1195" yMax="1781">
      <component glyphName="Z" x="0" y="0" flags="0x204"/>
      <component glyphName="acute.case" x="312" y="0" flags="0x4"/>
    </TTGlyph>
    <TTGlyph name="Zcaron" xMin="16" yMin="0" xMax="1195" yMax="1755">
      <component glyphName="Z" x="0" y="0" flags="0x204"/>
      <component glyphName="caron.case" x="312" y="0" flags="0x4"/>
    </TTGlyph>
    <TTGlyph name="Zdotaccent" xMin="16" yMin="0" xMax="1195" yMax="1811">
      <component glyphName="Z" x="0" y="0" flags="0x204"/>
      <component glyphName="dotaccent.case" x="312" y="0" flags="0x4"/>
    </TTGlyph>
    <TTGlyph name="a" xMin="48" yMin="-14" xMax="937" yMax="1027">
      <contour>
        <pt x="816" y="0" on="1"/>
        <pt x="724" y="0" on="1"/>
        <pt x="689" y="0" on="0"/>
        <pt x="664" y="36" on="0"/>
        <pt x="664" y="62" on="1"/>
        <pt x="682" y="267" on="1"/>
        <pt x="646" y="203" on="0"/>
        <pt x="563" y="99" on="0"/>
        <pt x="470" y="26" on="0"/>
        <pt x="368" y="-14" on="0"/>
        <pt x="313" y="-14" on="1"/>
        <pt x="253" y="-14" on="0"/>
        <pt x="155" y="33" on="0"/>
        <pt x="86" y="124" on="0"/>
        <pt x="48" y="257" on="0"/>
        <pt x="48" y="343" on="1"/>
        <pt x="48" y="433" on="0"/>
        <pt x="93" y="604" on="0"/>
        <pt x="176" y="756" on="0"/>
        <pt x="292" y="883" on="0"/>
        <pt x="435" y="976" on="0"/>
        <pt x="599" y="1027" on="0"/>
        <pt x="689" y="1027" on="1"/>
        <pt x="754" y="1027" on="0"/>
        <pt x="877" y="1006" on="0"/>
        <pt x="937" y="980" on="1"/>
      </contour>
      <contour>
        <pt x="380" y="134" on="1"/>
        <pt x="429" y="134" on="0"/>
        <pt x="523" y="195" on="0"/>
        <pt x="607" y="303" on="0"/>
        <pt x="680" y="452" on="0"/>
        <pt x="708" y="541" on="1"/>
        <pt x="751" y="889" on="1"/>
        <pt x="729" y="894" on="0"/>
        <pt x="686" y="897" on="0"/>
        <pt x="665" y="897" on="1"/>
        <pt x="605" y="897" on="0"/>
        <pt x="493" y="858" on="0"/>
        <pt x="395" y="788" on="0"/>
        <pt x="315" y="691" on="0"/>
        <pt x="258" y="575" on="0"/>
        <pt x="226" y="444" on="0"/>
        <pt x="226" y="375" on="1"/>
        <pt x="226" y="134" on="0"/>
      </contour>
    </TTGlyph>
    <TTGlyph name="aacute" xMin="48" yMin="-14" xMax="975" yMax="1447">
      <component glyphName="a" x="0" y="0" flags="0x204"/>
      <component glyphName="acute" x="299" y="0" flags="0x4"/>
    </TTGlyph>
    <TTGlyph name="acircumflex" xMin="48" yMin="-14" xMax="943" yMax="1431">
      <component glyphName="a" x="0" y="0" flags="0x204"/>
      <component glyphName="circumflex" x="290" y="0" flags="0x4"/>
    </TTGlyph>
    <TTGlyph name="acute" xMin="263" yMin="1163" xMax="676" yMax="1447">
      <contour>
        <pt x="676" y="1447" on="1"/>
        <pt x="428" y="1190" on="1"/>
        <pt x="414" y="1175" on="0"/>
        <pt x="385" y="1163" on="0"/>
        <pt x="365" y="1163" on="1"/>
        <pt x="263" y="1163" on="1"/>
        <pt x="429" y="1405" on="1"/>
        <pt x="443" y="1427" on="0"/>
        <pt x="477" y="1447" on="0"/>
        <pt x="508" y="1447" on="1"/>
      </contour>
    </TTGlyph>
    <TTGlyph name="acute.case" xMin="279" yMin="1546" xMax="774" yMax="1781">
      <contour>
        <pt x="774" y="1781" on="1"/>
        <pt x="486" y="1571" on="1"/>
        <pt x="469" y="1559" on="0"/>
        <pt x="444" y="1546" on="0"/>
        <pt x="424" y="1546" on="1"/>
        <pt x="279" y="1546" on="1"/>
        <pt x="497" y="1749" on="1"/>
        <pt x="507" y="1758" on="0"/>
        <pt x="524" y="1771" on="0"/>
        <pt x="542" y="1778" on="0"/>
        <pt x="564" y="1781" on="0"/>
        <pt x="580" y="1781" on="1"/>
      </contour>
    </TTGlyph>
    <TTGlyph name="adieresis" xMin="48" yMin="-14" xMax="968" yMax="1425">
      <component glyphName="a" x="0" y="0" flags="0x204"/>
      <component glyphName="dieresis" x="290" y="0" flags="0x4"/>
    </TTGlyph>
    <TTGlyph name="ae" xMin="31" yMin="-16" xMax="1412" yMax="1030">
      <contour>
        <pt x="1117" y="1027" on="1"/>
        <pt x="1177" y="1027" on="0"/>
        <pt x="1279" y="990" on="0"/>
        <pt x="1354" y="924" on="0"/>
        <pt x="1396" y="835" on="0"/>
        <pt x="1396" y="784" on="1"/>
        <pt x="1396" y="727" on="0"/>
        <pt x="1341" y="619" on="0"/>
        <pt x="1204" y="534" on="0"/>
        <pt x="970" y="479" on="0"/>
        <pt x="792" y="476" on="1"/>
        <pt x="791" y="466" on="0"/>
        <pt x="791" y="446" on="0"/>
        <pt x="791" y="436" on="1"/>
        <pt x="791" y="281" on="0"/>
        <pt x="913" y="126" on="0"/>
        <pt x="1021" y="126" on="1"/>
        <pt x="1070" y="126" on="0"/>
        <pt x="1145" y="146" on="0"/>
        <pt x="1204" y="175" on="0"/>
        <pt x="1249" y="210" on="0"/>
        <pt x="1287" y="239" on="0"/>
        <pt x="1318" y="259" on="0"/>
        <pt x="1334" y="259" on="1"/>
        <pt x="1354" y="259" on="0"/>
        <pt x="1368" y="242" on="1"/>
        <pt x="1412" y="187" on="1"/>
        <pt x="1361" y="135" on="0"/>
        <pt x="1264" y="59" on="0"/>
        <pt x="1162" y="10" on="0"/>
        <pt x="1051" y="-14" on="0"/>
        <pt x="987" y="-14" on="1"/>
        <pt x="882" y="-14" on="0"/>
        <pt x="723" y="100" on="0"/>
        <pt x="684" y="214" on="1"/>
        <pt x="652" y="152" on="0"/>
        <pt x="563" y="65" on="0"/>
        <pt x="463" y="9" on="0"/>
        <pt x="357" y="-16" on="0"/>
        <pt x="308" y="-16" on="1"/>
        <pt x="175" y="-16" on="0"/>
        <pt x="31" y="103" on="0"/>
        <pt x="31" y="223" on="1"/>
        <pt x="31" y="294" on="0"/>
        <pt x="95" y="422" on="0"/>
        <pt x="239" y="521" on="0"/>
        <pt x="473" y="583" on="0"/>
        <pt x="644" y="588" on="1"/>
        <pt x="648" y="619" on="0"/>
        <pt x="653" y="659" on="0"/>
        <pt x="655" y="686" on="0"/>
        <pt x="656" y="703" on="0"/>
        <pt x="656" y="710" on="1"/>
        <pt x="656" y="889" on="0"/>
        <pt x="502" y="889" on="1"/>
        <pt x="442" y="889" on="0"/>
        <pt x="357" y="856" on="0"/>
        <pt x="294" y="815" on="0"/>
        <pt x="246" y="782" on="0"/>
        <pt x="224" y="782" on="1"/>
        <pt x="206" y="782" on="0"/>
        <pt x="182" y="800" on="0"/>
        <pt x="176" y="814" on="1"/>
        <pt x="153" y="869" on="1"/>
        <pt x="240" y="950" on="0"/>
        <pt x="417" y="1030" on="0"/>
        <pt x="521" y="1030" on="1"/>
        <pt x="629" y="1030" on="0"/>
        <pt x="751" y="934" on="0"/>
        <pt x="773" y="849" on="1"/>
        <pt x="833" y="933" on="0"/>
        <pt x="1006" y="1027" on="0"/>
      </contour>
      <contour>
        <pt x="631" y="479" on="1"/>
        <pt x="511" y="474" on="0"/>
        <pt x="345" y="437" on="0"/>
        <pt x="242" y="377" on="0"/>
        <pt x="197" y="296" on="0"/>
        <pt x="197" y="246" on="1"/>
        <pt x="197" y="174" on="0"/>
        <pt x="275" y="105" on="0"/>
        <pt x="340" y="105" on="1"/>
        <pt x="392" y="105" on="0"/>
        <pt x="485" y="142" on="0"/>
        <pt x="560" y="216" on="0"/>
        <pt x="612" y="327" on="0"/>
        <pt x="621" y="401" on="1"/>
      </contour>
      <contour>
        <pt x="1095" y="900" on="1"/>
        <pt x="1035" y="900" on="0"/>
        <pt x="937" y="855" on="0"/>
        <pt x="864" y="771" on="0"/>
        <pt x="814" y="653" on="0"/>
        <pt x="802" y="581" on="1"/>
        <pt x="932" y="588" on="0"/>
        <pt x="1101" y="624" on="0"/>
        <pt x="1200" y="675" on="0"/>
        <pt x="1240" y="739" on="0"/>
        <pt x="1240" y="775" on="1"/>
        <pt x="1240" y="832" on="0"/>
        <pt x="1165" y="900" on="0"/>
      </contour>
    </TTGlyph>
    <TTGlyph name="agrave" xMin="48" yMin="-14" xMax="937" yMax="1447">
      <component glyphName="a" x="0" y="0" flags="0x204"/>
      <component glyphName="grave" x="361" y="0" flags="0x4"/>
    </TTGlyph>
    <TTGlyph name="ampersand" xMin="57" yMin="-16" xMax="1233" yMax="1447">
      <contour>
        <pt x="724" y="1447" on="1"/>
        <pt x="794" y="1447" on="0"/>
        <pt x="908" y="1403" on="0"/>
        <pt x="990" y="1325" on="0"/>
        <pt x="1035" y="1219" on="0"/>
        <pt x="1035" y="1157" on="1"/>
        <pt x="1035" y="1154" on="0"/>
        <pt x="1035" y="1148" on="0"/>
        <pt x="1034" y="1143" on="1"/>
        <pt x="933" y="1124" on="1"/>
        <pt x="928" y="1123" on="0"/>
        <pt x="921" y="1122" on="0"/>
        <pt x="917" y="1122" on="1"/>
        <pt x="888" y="1122" on="0"/>
        <pt x="881" y="1155" on="1"/>
        <pt x="875" y="1184" on="0"/>
        <pt x="851" y="1240" on="0"/>
        <pt x="810" y="1285" on="0"/>
        <pt x="750" y="1313" on="0"/>
        <pt x="709" y="1313" on="1"/>
        <pt x="658" y="1313" on="0"/>
        <pt x="576" y="1275" on="0"/>
        <pt x="517" y="1208" on="0"/>
        <pt x="485" y="1117" on="0"/>
        <pt x="485" y="1065" on="1"/>
        <pt x="485" y="1008" on="0"/>
        <pt x="532" y="888" on="0"/>
        <pt x="582" y="825" on="1"/>
        <pt x="904" y="416" on="1"/>
        <pt x="945" y="482" on="0"/>
        <pt x="999" y="623" on="0"/>
        <pt x="1013" y="694" on="1"/>
        <pt x="1017" y="712" on="0"/>
        <pt x="1035" y="734" on="0"/>
        <pt x="1054" y="734" on="1"/>
        <pt x="1173" y="734" on="1"/>
        <pt x="1157" y="619" on="0"/>
        <pt x="1066" y="397" on="0"/>
        <pt x="995" y="301" on="1"/>
        <pt x="1233" y="0" on="1"/>
        <pt x="1085" y="0" on="1"/>
        <pt x="1064" y="0" on="0"/>
        <pt x="1033" y="5" on="0"/>
        <pt x="1009" y="17" on="0"/>
        <pt x="988" y="37" on="0"/>
        <pt x="976" y="51" on="1"/>
        <pt x="880" y="173" on="1"/>
        <pt x="786" y="86" on="0"/>
        <pt x="556" y="-16" on="0"/>
        <pt x="427" y="-16" on="1"/>
        <pt x="345" y="-16" on="0"/>
        <pt x="209" y="33" on="0"/>
        <pt x="111" y="124" on="0"/>
        <pt x="57" y="254" on="0"/>
        <pt x="57" y="335" on="1"/>
        <pt x="57" y="414" on="0"/>
        <pt x="110" y="554" on="0"/>
        <pt x="203" y="671" on="0"/>
        <pt x="328" y="763" on="0"/>
        <pt x="400" y="795" on="1"/>
        <pt x="361" y="861" on="0"/>
        <pt x="324" y="989" on="0"/>
        <pt x="324" y="1052" on="1"/>
        <pt x="324" y="1134" on="0"/>
        <pt x="381" y="1279" on="0"/>
        <pt x="486" y="1385" on="0"/>
        <pt x="634" y="1447" on="0"/>
      </contour>
      <contour>
        <pt x="235" y="357" on="1"/>
        <pt x="235" y="301" on="0"/>
        <pt x="270" y="214" on="0"/>
        <pt x="331" y="154" on="0"/>
        <pt x="415" y="123" on="0"/>
        <pt x="464" y="123" on="1"/>
        <pt x="559" y="123" on="0"/>
        <pt x="727" y="209" on="0"/>
        <pt x="797" y="279" on="1"/>
        <pt x="464" y="704" on="1"/>
        <pt x="349" y="642" on="0"/>
        <pt x="235" y="463" on="0"/>
      </contour>
    </TTGlyph>
    <TTGlyph name="aogonek" xMin="48" yMin="-342" xMax="937" yMax="1027">
      <contour>
        <pt x="830" y="-214" on="1"/>
        <pt x="843" y="-214" on="0"/>
        <pt x="846" y="-226" on="1"/>
        <pt x="864" y="-290" on="1"/>
        <pt x="834" y="-313" on="0"/>
        <pt x="745" y="-342" on="0"/>
        <pt x="697" y="-342" on="1"/>
        <pt x="621" y="-342" on="0"/>
        <pt x="539" y="-272" on="0"/>
        <pt x="539" y="-214" on="1"/>
        <pt x="539" y="-182" on="0"/>
        <pt x="563" y="-121" on="0"/>
        <pt x="605" y="-65" on="0"/>
        <pt x="663" y="-16" on="0"/>
        <pt x="697" y="4" on="1"/>
        <pt x="678" y="11" on="0"/>
        <pt x="664" y="42" on="0"/>
        <pt x="664" y="62" on="1"/>
        <pt x="682" y="267" on="1"/>
        <pt x="646" y="203" on="0"/>
        <pt x="563" y="99" on="0"/>
        <pt x="470" y="26" on="0"/>
        <pt x="368" y="-14" on="0"/>
        <pt x="313" y="-14" on="1"/>
        <pt x="253" y="-14" on="0"/>
        <pt x="155" y="33" on="0"/>
        <pt x="86" y="124" on="0"/>
        <pt x="48" y="257" on="0"/>
        <pt x="48" y="343" on="1"/>
        <pt x="48" y="433" on="0"/>
        <pt x="93" y="604" on="0"/>
        <pt x="176" y="756" on="0"/>
        <pt x="292" y="883" on="0"/>
        <pt x="435" y="976" on="0"/>
        <pt x="599" y="1027" on="0"/>
        <pt x="689" y="1027" on="1"/>
        <pt x="754" y="1027" on="0"/>
        <pt x="877" y="1006" on="0"/>
        <pt x="937" y="980" on="1"/>
        <pt x="816" y="0" on="1"/>
        <pt x="800" y="0" on="1"/>
        <pt x="779" y="-12" on="0"/>
        <pt x="734" y="-45" on="0"/>
        <pt x="696" y="-87" on="0"/>
        <pt x="672" y="-138" on="0"/>
        <pt x="672" y="-167" on="1"/>
        <pt x="672" y="-199" on="0"/>
        <pt x="712" y="-238" on="0"/>
        <pt x="744" y="-238" on="1"/>
        <pt x="765" y="-238" on="0"/>
        <pt x="794" y="-231" on="0"/>
        <pt x="814" y="-222" on="0"/>
        <pt x="825" y="-214" on="0"/>
      </contour>
      <contour>
        <pt x="380" y="134" on="1"/>
        <pt x="429" y="134" on="0"/>
        <pt x="523" y="195" on="0"/>
        <pt x="607" y="303" on="0"/>
        <pt x="680" y="452" on="0"/>
        <pt x="708" y="541" on="1"/>
        <pt x="751" y="889" on="1"/>
        <pt x="729" y="894" on="0"/>
        <pt x="686" y="897" on="0"/>
        <pt x="665" y="897" on="1"/>
        <pt x="605" y="897" on="0"/>
        <pt x="493" y="858" on="0"/>
        <pt x="395" y="788" on="0"/>
        <pt x="315" y="691" on="0"/>
        <pt x="258" y="575" on="0"/>
        <pt x="226" y="444" on="0"/>
        <pt x="226" y="375" on="1"/>
        <pt x="226" y="134" on="0"/>
      </contour>
    </TTGlyph>
    <TTGlyph name="approxequal" xMin="182" yMin="386" xMax="1023" yMax="962">
      <contour>
        <pt x="832" y="855" on="1"/>
        <pt x="860" y="855" on="0"/>
        <pt x="916" y="868" on="0"/>
        <pt x="964" y="888" on="0"/>
        <pt x="1001" y="913" on="0"/>
        <pt x="1012" y="924" on="1"/>
        <pt x="1023" y="816" on="1"/>
        <pt x="983" y="768" on="0"/>
        <pt x="866" y="722" on="0"/>
        <pt x="805" y="722" on="1"/>
        <pt x="753" y="722" on="0"/>
        <pt x="654" y="756" on="0"/>
        <pt x="559" y="796" on="0"/>
        <pt x="467" y="830" on="0"/>
        <pt x="422" y="830" on="1"/>
        <pt x="392" y="830" on="0"/>
        <pt x="335" y="816" on="0"/>
        <pt x="287" y="795" on="0"/>
        <pt x="250" y="769" on="0"/>
        <pt x="240" y="757" on="1"/>
        <pt x="223" y="862" on="1"/>
        <pt x="264" y="913" on="0"/>
        <pt x="383" y="962" on="0"/>
        <pt x="449" y="962" on="1"/>
        <pt x="501" y="962" on="0"/>
        <pt x="601" y="929" on="0"/>
        <pt x="695" y="888" on="0"/>
        <pt x="787" y="855" on="0"/>
      </contour>
      <contour>
        <pt x="790" y="518" on="1"/>
        <pt x="818" y="518" on="0"/>
        <pt x="874" y="531" on="0"/>
        <pt x="923" y="552" on="0"/>
        <pt x="960" y="576" on="0"/>
        <pt x="971" y="587" on="1"/>
        <pt x="981" y="478" on="1"/>
        <pt x="942" y="431" on="0"/>
        <pt x="824" y="386" on="0"/>
        <pt x="763" y="386" on="1"/>
        <pt x="711" y="386" on="0"/>
        <pt x="612" y="419" on="0"/>
        <pt x="517" y="459" on="0"/>
        <pt x="425" y="492" on="0"/>
        <pt x="380" y="492" on="1"/>
        <pt x="350" y="492" on="0"/>
        <pt x="294" y="479" on="0"/>
        <pt x="245" y="458" on="0"/>
        <pt x="208" y="433" on="0"/>
        <pt x="198" y="421" on="1"/>
        <pt x="182" y="525" on="1"/>
        <pt x="223" y="576" on="0"/>
        <pt x="342" y="625" on="0"/>
        <pt x="408" y="625" on="1"/>
        <pt x="461" y="625" on="0"/>
        <pt x="560" y="592" on="0"/>
        <pt x="655" y="551" on="0"/>
        <pt x="746" y="518" on="0"/>
      </contour>
    </TTGlyph>
    <TTGlyph name="aring" xMin="48" yMin="-14" xMax="937" yMax="1502">
      <component glyphName="a" x="0" y="0" flags="0x204"/>
      <component glyphName="ring" x="310" y="0" flags="0x4"/>
    </TTGlyph>
    <TTGlyph name="asciicircum" xMin="215" yMin="787" xMax="1047" yMax="1433">
      <contour>
        <pt x="574" y="1433" on="1"/>
        <pt x="688" y="1433" on="1"/>
        <pt x="1047" y="787" on="1"/>
        <pt x="917" y="787" on="1"/>
        <pt x="900" y="787" on="0"/>
        <pt x="876" y="807" on="0"/>
        <pt x="868" y="821" on="1"/>
        <pt x="672" y="1173" on="1"/>
        <pt x="659" y="1196" on="0"/>
        <pt x="640" y="1239" on="0"/>
        <pt x="633" y="1260" on="1"/>
        <pt x="619" y="1216" on="0"/>
        <pt x="596" y="1173" on="1"/>
        <pt x="403" y="821" on="1"/>
        <pt x="395" y="807" on="0"/>
        <pt x="371" y="787" on="0"/>
        <pt x="351" y="787" on="1"/>
        <pt x="215" y="787" on="1"/>
      </contour>
    </TTGlyph>
    <TTGlyph name="asciitilde" xMin="57" yMin="414" xMax="983" yMax="768">
      <contour>
        <pt x="700" y="613" on="1"/>
        <pt x="765" y="613" on="0"/>
        <pt x="838" y="698" on="0"/>
        <pt x="839" y="768" on="1"/>
        <pt x="983" y="768" on="1"/>
        <pt x="983" y="701" on="0"/>
        <pt x="946" y="589" on="0"/>
        <pt x="877" y="509" on="0"/>
        <pt x="775" y="465" on="0"/>
        <pt x="711" y="465" on="1"/>
        <pt x="659" y="465" on="0"/>
        <pt x="557" y="497" on="0"/>
        <pt x="462" y="536" on="0"/>
        <pt x="376" y="569" on="0"/>
        <pt x="340" y="569" on="1"/>
        <pt x="275" y="569" on="0"/>
        <pt x="202" y="485" on="0"/>
        <pt x="201" y="414" on="1"/>
        <pt x="57" y="414" on="1"/>
        <pt x="57" y="481" on="0"/>
        <pt x="94" y="593" on="0"/>
        <pt x="163" y="673" on="0"/>
        <pt x="264" y="718" on="0"/>
        <pt x="329" y="718" on="1"/>
        <pt x="381" y="718" on="0"/>
        <pt x="483" y="685" on="0"/>
        <pt x="578" y="646" on="0"/>
        <pt x="664" y="613" on="0"/>
      </contour>
    </TTGlyph>
    <TTGlyph name="asterisk" xMin="148" yMin="865" xMax="737" yMax="1505">
      <contour>
        <pt x="361" y="865" on="1"/>
        <pt x="386" y="1063" on="1"/>
        <pt x="388" y="1081" on="0"/>
        <pt x="396" y="1114" on="0"/>
        <pt x="404" y="1129" on="1"/>
        <pt x="393" y="1116" on="0"/>
        <pt x="367" y="1097" on="0"/>
        <pt x="350" y="1087" on="1"/>
        <pt x="181" y="987" on="1"/>
        <pt x="148" y="1060" on="1"/>
        <pt x="317" y="1161" on="1"/>
        <pt x="353" y="1182" on="0"/>
        <pt x="389" y="1185" on="1"/>
        <pt x="353" y="1188" on="0"/>
        <pt x="323" y="1209" on="1"/>
        <pt x="178" y="1311" on="1"/>
        <pt x="229" y="1384" on="1"/>
        <pt x="374" y="1283" on="1"/>
        <pt x="390" y="1272" on="0"/>
        <pt x="413" y="1250" on="0"/>
        <pt x="421" y="1234" on="1"/>
        <pt x="413" y="1258" on="0"/>
        <pt x="413" y="1281" on="1"/>
        <pt x="413" y="1287" on="0"/>
        <pt x="414" y="1299" on="0"/>
        <pt x="415" y="1306" on="1"/>
        <pt x="440" y="1505" on="1"/>
        <pt x="524" y="1505" on="1"/>
        <pt x="500" y="1307" on="1"/>
        <pt x="498" y="1288" on="0"/>
        <pt x="488" y="1255" on="0"/>
        <pt x="479" y="1238" on="1"/>
        <pt x="490" y="1252" on="0"/>
        <pt x="519" y="1273" on="0"/>
        <pt x="536" y="1283" on="1"/>
        <pt x="705" y="1383" on="1"/>
        <pt x="737" y="1310" on="1"/>
        <pt x="568" y="1209" on="1"/>
        <pt x="533" y="1188" on="0"/>
        <pt x="501" y="1185" on="1"/>
        <pt x="518" y="1183" on="0"/>
        <pt x="547" y="1172" on="0"/>
        <pt x="562" y="1161" on="1"/>
        <pt x="707" y="1059" on="1"/>
        <pt x="657" y="987" on="1"/>
        <pt x="512" y="1087" on="1"/>
        <pt x="497" y="1097" on="0"/>
        <pt x="473" y="1117" on="0"/>
        <pt x="465" y="1131" on="1"/>
        <pt x="472" y="1111" on="0"/>
        <pt x="472" y="1089" on="1"/>
        <pt x="472" y="1083" on="0"/>
        <pt x="471" y="1071" on="0"/>
        <pt x="470" y="1064" on="1"/>
        <pt x="446" y="865" on="1"/>
      </contour>
    </TTGlyph>
    <TTGlyph name="at" xMin="77" yMin="-239" xMax="1456" yMax="1357">
      <contour>
        <pt x="1026" y="186" on="1"/>
        <pt x="956" y="186" on="0"/>
        <pt x="874" y="260" on="0"/>
        <pt x="870" y="337" on="1"/>
        <pt x="807" y="257" on="0"/>
        <pt x="673" y="188" on="0"/>
        <pt x="601" y="188" on="1"/>
        <pt x="553" y="188" on="0"/>
        <pt x="482" y="223" on="0"/>
        <pt x="436" y="283" on="0"/>
        <pt x="413" y="365" on="0"/>
        <pt x="413" y="413" on="1"/>
        <pt x="413" y="473" on="0"/>
        <pt x="445" y="599" on="0"/>
        <pt x="508" y="716" on="0"/>
        <pt x="599" y="820" on="0"/>
        <pt x="718" y="898" on="0"/>
        <pt x="862" y="943" on="0"/>
        <pt x="946" y="943" on="1"/>
        <pt x="1009" y="943" on="0"/>
        <pt x="1100" y="923" on="0"/>
        <pt x="1141" y="903" on="1"/>
        <pt x="1009" y="543" on="1"/>
        <pt x="990" y="491" on="0"/>
        <pt x="973" y="415" on="0"/>
        <pt x="973" y="387" on="1"/>
        <pt x="973" y="360" on="0"/>
        <pt x="987" y="325" on="0"/>
        <pt x="1012" y="304" on="0"/>
        <pt x="1045" y="296" on="0"/>
        <pt x="1064" y="296" on="1"/>
        <pt x="1115" y="296" on="0"/>
        <pt x="1212" y="366" on="0"/>
        <pt x="1287" y="493" on="0"/>
        <pt x="1333" y="669" on="0"/>
        <pt x="1333" y="774" on="1"/>
        <pt x="1333" y="890" on="0"/>
        <pt x="1265" y="1066" on="0"/>
        <pt x="1143" y="1184" on="0"/>
        <pt x="974" y="1244" on="0"/>
        <pt x="873" y="1244" on="1"/>
        <pt x="738" y="1244" on="0"/>
        <pt x="495" y="1127" on="0"/>
        <pt x="312" y="917" on="0"/>
        <pt x="204" y="629" on="0"/>
        <pt x="204" y="458" on="1"/>
        <pt x="204" y="317" on="0"/>
        <pt x="284" y="99" on="0"/>
        <pt x="427" y="-48" on="0"/>
        <pt x="625" y="-124" on="0"/>
        <pt x="743" y="-124" on="1"/>
        <pt x="884" y="-124" on="0"/>
        <pt x="1098" y="-62" on="0"/>
        <pt x="1174" y="-14" on="1"/>
        <pt x="1185" y="-7" on="0"/>
        <pt x="1201" y="-3" on="0"/>
        <pt x="1209" y="-3" on="1"/>
        <pt x="1224" y="-3" on="0"/>
        <pt x="1242" y="-22" on="0"/>
        <pt x="1246" y="-34" on="1"/>
        <pt x="1258" y="-85" on="1"/>
        <pt x="1151" y="-157" on="0"/>
        <pt x="890" y="-239" on="0"/>
        <pt x="730" y="-239" on="1"/>
        <pt x="585" y="-239" on="0"/>
        <pt x="345" y="-144" on="0"/>
        <pt x="172" y="35" on="0"/>
        <pt x="77" y="290" on="0"/>
        <pt x="77" y="450" on="1"/>
        <pt x="77" y="577" on="0"/>
        <pt x="137" y="810" on="0"/>
        <pt x="244" y="1011" on="0"/>
        <pt x="394" y="1176" on="0"/>
        <pt x="574" y="1293" on="0"/>
        <pt x="778" y="1357" on="0"/>
        <pt x="887" y="1357" on="1"/>
        <pt x="1004" y="1357" on="0"/>
        <pt x="1211" y="1278" on="0"/>
        <pt x="1366" y="1128" on="0"/>
        <pt x="1456" y="912" on="0"/>
        <pt x="1456" y="774" on="1"/>
        <pt x="1456" y="647" on="0"/>
        <pt x="1387" y="432" on="0"/>
        <pt x="1269" y="275" on="0"/>
        <pt x="1113" y="186" on="0"/>
      </contour>
      <contour>
        <pt x="650" y="303" on="1"/>
        <pt x="677" y="303" on="0"/>
        <pt x="737" y="323" on="0"/>
        <pt x="795" y="374" on="0"/>
        <pt x="851" y="461" on="0"/>
        <pt x="875" y="528" on="1"/>
        <pt x="982" y="824" on="1"/>
        <pt x="947" y="833" on="0"/>
        <pt x="906" y="833" on="1"/>
        <pt x="833" y="833" on="0"/>
        <pt x="703" y="762" on="0"/>
        <pt x="606" y="648" on="0"/>
        <pt x="549" y="505" on="0"/>
        <pt x="549" y="432" on="1"/>
        <pt x="549" y="375" on="0"/>
        <pt x="599" y="303" on="0"/>
      </contour>
    </TTGlyph>
    <TTGlyph name="atilde" xMin="48" yMin="-14" xMax="962" yMax="1414">
      <component glyphName="a" x="0" y="0" flags="0x204"/>
      <component glyphName="tilde" x="290" y="0" flags="0x4"/>
    </TTGlyph>
    <TTGlyph name="b" xMin="79" yMin="-14" xMax="997" yMax="1473">
      <contour>
        <pt x="79" y="0" on="1"/>
        <pt x="257" y="1473" on="1"/>
        <pt x="432" y="1473" on="1"/>
        <pt x="344" y="757" on="1"/>
        <pt x="382" y="818" on="0"/>
        <pt x="470" y="919" on="0"/>
        <pt x="566" y="989" on="0"/>
        <pt x="670" y="1028" on="0"/>
        <pt x="724" y="1028" on="1"/>
        <pt x="853" y="1028" on="0"/>
        <pt x="997" y="840" on="0"/>
        <pt x="997" y="659" on="1"/>
        <pt x="997" y="577" on="0"/>
        <pt x="963" y="413" on="0"/>
        <pt x="900" y="264" on="0"/>
        <pt x="811" y="135" on="0"/>
        <pt x="702" y="40" on="0"/>
        <pt x="574" y="-14" on="0"/>
        <pt x="504" y="-14" on="1"/>
        <pt x="423" y="-14" on="0"/>
        <pt x="292" y="54" on="0"/>
        <pt x="250" y="117" on="1"/>
        <pt x="237" y="52" on="1"/>
        <pt x="229" y="26" on="0"/>
        <pt x="204" y="0" on="0"/>
        <pt x="174" y="0" on="1"/>
      </contour>
      <contour>
        <pt x="657" y="885" on="1"/>
        <pt x="609" y="885" on="0"/>
        <pt x="511" y="825" on="0"/>
        <pt x="420" y="719" on="0"/>
        <pt x="340" y="573" on="0"/>
        <pt x="311" y="486" on="1"/>
        <pt x="279" y="223" on="1"/>
        <pt x="317" y="169" on="0"/>
        <pt x="423" y="124" on="0"/>
        <pt x="478" y="124" on="1"/>
        <pt x="530" y="124" on="0"/>
        <pt x="622" y="168" on="0"/>
        <pt x="698" y="243" on="0"/>
        <pt x="758" y="344" on="0"/>
        <pt x="799" y="459" on="0"/>
        <pt x="821" y="582" on="0"/>
        <pt x="821" y="642" on="1"/>
        <pt x="821" y="761" on="0"/>
        <pt x="735" y="885" on="0"/>
      </contour>
    </TTGlyph>
    <TTGlyph name="backslash" xMin="108" yMin="-91" xMax="625" yMax="1451">
      <contour>
        <pt x="108" y="1451" on="1"/>
        <pt x="181" y="1451" on="1"/>
        <pt x="213" y="1451" on="0"/>
        <pt x="256" y="1417" on="0"/>
        <pt x="264" y="1388" on="1"/>
        <pt x="625" y="-91" on="1"/>
        <pt x="553" y="-91" on="1"/>
        <pt x="525" y="-91" on="0"/>
        <pt x="475" y="-57" on="0"/>
        <pt x="467" y="-25" on="1"/>
      </contour>
    </TTGlyph>
    <TTGlyph name="bar" xMin="171" yMin="-343" xMax="309" yMax="1533">
      <contour>
        <pt x="171" y="1533" on="1"/>
        <pt x="309" y="1533" on="1"/>
        <pt x="309" y="-343" on="1"/>
        <pt x="171" y="-343" on="1"/>
      </contour>
    </TTGlyph>
    <TTGlyph name="braceleft" xMin="49" yMin="-287" xMax="601" yMax="1532">
      <contour>
        <pt x="158" y="453" on="1"/>
        <pt x="158" y="505" on="0"/>
        <pt x="102" y="571" on="0"/>
        <pt x="49" y="571" on="1"/>
        <pt x="62" y="675" on="1"/>
        <pt x="136" y="675" on="0"/>
        <pt x="209" y="794" on="0"/>
        <pt x="209" y="918" on="1"/>
        <pt x="209" y="940" on="0"/>
        <pt x="206" y="993" on="0"/>
        <pt x="203" y="1048" on="0"/>
        <pt x="200" y="1101" on="0"/>
        <pt x="200" y="1123" on="1"/>
        <pt x="200" y="1220" on="0"/>
        <pt x="245" y="1372" on="0"/>
        <pt x="334" y="1477" on="0"/>
        <pt x="466" y="1532" on="0"/>
        <pt x="552" y="1532" on="1"/>
        <pt x="601" y="1532" on="1"/>
        <pt x="592" y="1455" on="1"/>
        <pt x="590" y="1435" on="0"/>
        <pt x="559" y="1419" on="0"/>
        <pt x="549" y="1419" on="1"/>
        <pt x="531" y="1419" on="1"/>
        <pt x="492" y="1419" on="0"/>
        <pt x="426" y="1389" on="0"/>
        <pt x="379" y="1320" on="0"/>
        <pt x="353" y="1209" on="0"/>
        <pt x="353" y="1128" on="1"/>
        <pt x="353" y="1108" on="0"/>
        <pt x="353" y="1049" on="0"/>
        <pt x="354" y="986" on="0"/>
        <pt x="354" y="926" on="0"/>
        <pt x="354" y="907" on="1"/>
        <pt x="354" y="830" on="0"/>
        <pt x="320" y="727" on="0"/>
        <pt x="269" y="662" on="0"/>
        <pt x="210" y="629" on="0"/>
        <pt x="185" y="622" on="1"/>
        <pt x="238" y="605" on="0"/>
        <pt x="302" y="514" on="0"/>
        <pt x="302" y="451" on="1"/>
        <pt x="302" y="391" on="0"/>
        <pt x="272" y="277" on="0"/>
        <pt x="237" y="162" on="0"/>
        <pt x="207" y="45" on="0"/>
        <pt x="207" y="-18" on="1"/>
        <pt x="207" y="-88" on="0"/>
        <pt x="274" y="-173" on="0"/>
        <pt x="335" y="-173" on="1"/>
        <pt x="354" y="-173" on="1"/>
        <pt x="364" y="-173" on="0"/>
        <pt x="387" y="-188" on="0"/>
        <pt x="387" y="-205" on="1"/>
        <pt x="387" y="-208" on="0"/>
        <pt x="385" y="-222" on="0"/>
        <pt x="384" y="-237" on="0"/>
        <pt x="382" y="-249" on="0"/>
        <pt x="382" y="-250" on="1"/>
        <pt x="378" y="-287" on="1"/>
        <pt x="328" y="-287" on="1"/>
        <pt x="259" y="-287" on="0"/>
        <pt x="157" y="-247" on="0"/>
        <pt x="90" y="-176" on="0"/>
        <pt x="56" y="-78" on="0"/>
        <pt x="56" y="-20" on="1"/>
        <pt x="56" y="46" on="0"/>
        <pt x="88" y="166" on="0"/>
        <pt x="126" y="281" on="0"/>
        <pt x="158" y="394" on="0"/>
      </contour>
    </TTGlyph>
    <TTGlyph name="braceright" xMin="-16" yMin="-286" xMax="536" yMax="1533">
      <contour>
        <pt x="427" y="793" on="1"/>
        <pt x="427" y="741" on="0"/>
        <pt x="483" y="675" on="0"/>
        <pt x="536" y="675" on="1"/>
        <pt x="523" y="571" on="1"/>
        <pt x="449" y="571" on="0"/>
        <pt x="376" y="452" on="0"/>
        <pt x="376" y="328" on="1"/>
        <pt x="376" y="306" on="0"/>
        <pt x="379" y="253" on="0"/>
        <pt x="382" y="198" on="0"/>
        <pt x="385" y="145" on="0"/>
        <pt x="385" y="123" on="1"/>
        <pt x="385" y="26" on="0"/>
        <pt x="340" y="-126" on="0"/>
        <pt x="251" y="-231" on="0"/>
        <pt x="119" y="-286" on="0"/>
        <pt x="33" y="-286" on="1"/>
        <pt x="-16" y="-286" on="1"/>
        <pt x="-7" y="-209" on="1"/>
        <pt x="-6" y="-199" on="0"/>
        <pt x="4" y="-186" on="0"/>
        <pt x="17" y="-177" on="0"/>
        <pt x="31" y="-173" on="0"/>
        <pt x="36" y="-173" on="1"/>
        <pt x="54" y="-173" on="1"/>
        <pt x="93" y="-173" on="0"/>
        <pt x="159" y="-143" on="0"/>
        <pt x="206" y="-74" on="0"/>
        <pt x="232" y="37" on="0"/>
        <pt x="232" y="118" on="1"/>
        <pt x="232" y="137" on="0"/>
        <pt x="232" y="197" on="0"/>
        <pt x="231" y="260" on="0"/>
        <pt x="231" y="319" on="0"/>
        <pt x="231" y="339" on="1"/>
        <pt x="231" y="415" on="0"/>
        <pt x="265" y="519" on="0"/>
        <pt x="316" y="584" on="0"/>
        <pt x="375" y="617" on="0"/>
        <pt x="400" y="624" on="1"/>
        <pt x="347" y="641" on="0"/>
        <pt x="283" y="732" on="0"/>
        <pt x="283" y="795" on="1"/>
        <pt x="283" y="855" on="0"/>
        <pt x="313" y="969" on="0"/>
        <pt x="348" y="1084" on="0"/>
        <pt x="378" y="1201" on="0"/>
        <pt x="378" y="1264" on="1"/>
        <pt x="378" y="1334" on="0"/>
        <pt x="311" y="1419" on="0"/>
        <pt x="250" y="1419" on="1"/>
        <pt x="231" y="1419" on="1"/>
        <pt x="221" y="1419" on="0"/>
        <pt x="198" y="1434" on="0"/>
        <pt x="198" y="1451" on="1"/>
        <pt x="198" y="1454" on="0"/>
        <pt x="200" y="1468" on="0"/>
        <pt x="201" y="1483" on="0"/>
        <pt x="203" y="1495" on="0"/>
        <pt x="203" y="1496" on="1"/>
        <pt x="207" y="1533" on="1"/>
        <pt x="257" y="1533" on="1"/>
        <pt x="326" y="1533" on="0"/>
        <pt x="428" y="1493" on="0"/>
        <pt x="495" y="1422" on="0"/>
        <pt x="529" y="1324" on="0"/>
        <pt x="529" y="1266" on="1"/>
        <pt x="529" y="1200" on="0"/>
        <pt x="497" y="1080" on="0"/>
        <pt x="459" y="965" on="0"/>
        <pt x="427" y="852" on="0"/>
      </contour>
    </TTGlyph>
    <TTGlyph name="bracketleft" xMin="33" yMin="-287" xMax="599" yMax="1532">
      <contour>
        <pt x="33" y="-287" on="1"/>
        <pt x="256" y="1532" on="1"/>
        <pt x="599" y="1532" on="1"/>
        <pt x="591" y="1465" on="1"/>
        <pt x="589" y="1445" on="0"/>
        <pt x="559" y="1419" on="0"/>
        <pt x="538" y="1419" on="1"/>
        <pt x="387" y="1419" on="1"/>
        <pt x="190" y="-173" on="1"/>
        <pt x="343" y="-173" on="1"/>
        <pt x="362" y="-173" on="0"/>
        <pt x="385" y="-195" on="0"/>
        <pt x="385" y="-212" on="1"/>
        <pt x="385" y="-213" on="0"/>
        <pt x="384" y="-225" on="0"/>
        <pt x="382" y="-242" on="0"/>
        <pt x="379" y="-261" on="0"/>
        <pt x="378" y="-270" on="1"/>
        <pt x="376" y="-287" on="1"/>
      </contour>
    </TTGlyph>
    <TTGlyph name="bracketright" xMin="-15" yMin="-287" xMax="553" yMax="1532">
      <contour>
        <pt x="209" y="1532" on="1"/>
        <pt x="553" y="1532" on="1"/>
        <pt x="329" y="-287" on="1"/>
        <pt x="-15" y="-287" on="1"/>
        <pt x="-6" y="-220" on="1"/>
        <pt x="-4" y="-200" on="0"/>
        <pt x="25" y="-173" on="0"/>
        <pt x="47" y="-173" on="1"/>
        <pt x="199" y="-173" on="1"/>
        <pt x="395" y="1419" on="1"/>
        <pt x="243" y="1419" on="1"/>
        <pt x="223" y="1419" on="0"/>
        <pt x="200" y="1442" on="0"/>
        <pt x="200" y="1459" on="1"/>
        <pt x="206" y="1507" on="1"/>
      </contour>
    </TTGlyph>
    <TTGlyph name="breve" xMin="144" yMin="1164" xMax="658" yMax="1431">
      <contour>
        <pt x="370" y="1164" on="1"/>
        <pt x="308" y="1164" on="0"/>
        <pt x="222" y="1197" on="0"/>
        <pt x="168" y="1255" on="0"/>
        <pt x="144" y="1332" on="0"/>
        <pt x="144" y="1377" on="1"/>
        <pt x="144" y="1390" on="0"/>
        <pt x="146" y="1417" on="0"/>
        <pt x="148" y="1431" on="1"/>
        <pt x="269" y="1431" on="1"/>
        <pt x="266" y="1410" on="0"/>
        <pt x="266" y="1391" on="1"/>
        <pt x="266" y="1340" on="0"/>
        <pt x="318" y="1277" on="0"/>
        <pt x="384" y="1277" on="1"/>
        <pt x="423" y="1277" on="0"/>
        <pt x="477" y="1300" on="0"/>
        <pt x="512" y="1341" on="0"/>
        <pt x="532" y="1398" on="0"/>
        <pt x="536" y="1431" on="1"/>
        <pt x="658" y="1431" on="1"/>
        <pt x="651" y="1377" on="0"/>
        <pt x="613" y="1280" on="0"/>
        <pt x="544" y="1207" on="0"/>
        <pt x="441" y="1164" on="0"/>
      </contour>
    </TTGlyph>
    <TTGlyph name="breve.case" xMin="175" yMin="1528" xMax="699" yMax="1756">
      <contour>
        <pt x="411" y="1528" on="1"/>
        <pt x="296" y="1528" on="0"/>
        <pt x="175" y="1622" on="0"/>
        <pt x="175" y="1716" on="1"/>
        <pt x="175" y="1735" on="0"/>
        <pt x="178" y="1756" on="1"/>
        <pt x="289" y="1756" on="1"/>
        <pt x="288" y="1750" on="0"/>
        <pt x="287" y="1738" on="0"/>
        <pt x="287" y="1733" on="1"/>
        <pt x="287" y="1634" on="0"/>
        <pt x="424" y="1634" on="1"/>
        <pt x="502" y="1634" on="0"/>
        <pt x="581" y="1696" on="0"/>
        <pt x="587" y="1756" on="1"/>
        <pt x="699" y="1756" on="1"/>
        <pt x="692" y="1704" on="0"/>
        <pt x="648" y="1620" on="0"/>
        <pt x="575" y="1560" on="0"/>
        <pt x="474" y="1528" on="0"/>
      </contour>
    </TTGlyph>
    <TTGlyph name="brokenbar" xMin="171" yMin="-343" xMax="309" yMax="1533">
      <contour>
        <pt x="171" y="1533" on="1"/>
        <pt x="309" y="1533" on="1"/>
        <pt x="309" y="739" on="1"/>
        <pt x="171" y="739" on="1"/>
      </contour>
      <contour>
        <pt x="171" y="452" on="1"/>
        <pt x="309" y="452" on="1"/>
        <pt x="309" y="-343" on="1"/>
        <pt x="171" y="-343" on="1"/>
      </contour>
    </TTGlyph>
    <TTGlyph name="bullet" xMin="231" yMin="224" xMax="973" yMax="968">
      <contour>
        <pt x="231" y="595" on="1"/>
        <pt x="231" y="672" on="0"/>
        <pt x="289" y="808" on="0"/>
        <pt x="390" y="909" on="0"/>
        <pt x="524" y="968" on="0"/>
        <pt x="600" y="968" on="1"/>
        <pt x="677" y="968" on="0"/>
        <pt x="813" y="909" on="0"/>
        <pt x="914" y="808" on="0"/>
        <pt x="973" y="672" on="0"/>
        <pt x="973" y="595" on="1"/>
        <pt x="973" y="518" on="0"/>
        <pt x="914" y="383" on="0"/>
        <pt x="813" y="283" on="0"/>
        <pt x="677" y="224" on="0"/>
        <pt x="600" y="224" on="1"/>
        <pt x="524" y="224" on="0"/>
        <pt x="390" y="283" on="0"/>
        <pt x="289" y="383" on="0"/>
        <pt x="231" y="518" on="0"/>
      </contour>
    </TTGlyph>
    <TTGlyph name="c" xMin="60" yMin="-14" xMax="866" yMax="1027">
      <contour>
        <pt x="819" y="182" on="1"/>
        <pt x="767" y="125" on="0"/>
        <pt x="674" y="49" on="0"/>
        <pt x="580" y="4" on="0"/>
        <pt x="479" y="-14" on="0"/>
        <pt x="421" y="-14" on="1"/>
        <pt x="333" y="-14" on="0"/>
        <pt x="198" y="46" on="0"/>
        <pt x="107" y="155" on="0"/>
        <pt x="60" y="308" on="0"/>
        <pt x="60" y="400" on="1"/>
        <pt x="60" y="523" on="0"/>
        <pt x="137" y="749" on="0"/>
        <pt x="275" y="923" on="0"/>
        <pt x="465" y="1027" on="0"/>
        <pt x="579" y="1027" on="1"/>
        <pt x="679" y="1027" on="0"/>
        <pt x="815" y="956" on="0"/>
        <pt x="866" y="888" on="1"/>
        <pt x="810" y="821" on="1"/>
        <pt x="804" y="813" on="0"/>
        <pt x="786" y="803" on="0"/>
        <pt x="775" y="803" on="1"/>
        <pt x="761" y="803" on="0"/>
        <pt x="734" y="828" on="0"/>
        <pt x="691" y="859" on="0"/>
        <pt x="626" y="884" on="0"/>
        <pt x="575" y="884" on="1"/>
        <pt x="506" y="884" on="0"/>
        <pt x="383" y="809" on="0"/>
        <pt x="291" y="679" on="0"/>
        <pt x="238" y="501" on="0"/>
        <pt x="238" y="399" on="1"/>
        <pt x="238" y="337" on="0"/>
        <pt x="266" y="236" on="0"/>
        <pt x="322" y="165" on="0"/>
        <pt x="403" y="126" on="0"/>
        <pt x="457" y="126" on="1"/>
        <pt x="502" y="126" on="0"/>
        <pt x="572" y="145" on="0"/>
        <pt x="626" y="173" on="0"/>
        <pt x="667" y="206" on="0"/>
        <pt x="700" y="234" on="0"/>
        <pt x="727" y="253" on="0"/>
        <pt x="741" y="253" on="1"/>
        <pt x="761" y="253" on="0"/>
        <pt x="775" y="236" on="1"/>
        <pt x="819" y="182" on="1"/>
      </contour>
    </TTGlyph>
    <TTGlyph name="cacute" xMin="60" yMin="-14" xMax="879" yMax="1449">
      <component glyphName="c" x="0" y="0" flags="0x204"/>
      <component glyphName="acute" x="203" y="2" flags="0x4"/>
    </TTGlyph>
    <TTGlyph name="caron" xMin="113" yMin="1169" xMax="686" yMax="1431">
      <contour>
        <pt x="113" y="1431" on="1"/>
        <pt x="233" y="1431" on="1"/>
        <pt x="244" y="1431" on="0"/>
        <pt x="263" y="1423" on="0"/>
        <pt x="268" y="1417" on="1"/>
        <pt x="368" y="1288" on="1"/>
        <pt x="381" y="1269" on="1"/>
        <pt x="400" y="1288" on="1"/>
        <pt x="531" y="1417" on="1"/>
        <pt x="538" y="1423" on="0"/>
        <pt x="560" y="1431" on="0"/>
        <pt x="571" y="1431" on="1"/>
        <pt x="686" y="1431" on="1"/>
        <pt x="447" y="1169" on="1"/>
        <pt x="288" y="1169" on="1"/>
      </contour>
    </TTGlyph>
    <TTGlyph name="caron.case" xMin="132" yMin="1546" xMax="741" yMax="1755">
      <contour>
        <pt x="741" y="1755" on="1"/>
        <pt x="495" y="1546" on="1"/>
        <pt x="326" y="1546" on="1"/>
        <pt x="132" y="1755" on="1"/>
        <pt x="263" y="1755" on="1"/>
        <pt x="274" y="1755" on="0"/>
        <pt x="299" y="1749" on="0"/>
        <pt x="307" y="1742" on="1"/>
        <pt x="421" y="1635" on="1"/>
        <pt x="563" y="1742" on="1"/>
        <pt x="572" y="1749" on="0"/>
        <pt x="599" y="1755" on="0"/>
        <pt x="611" y="1755" on="1"/>
      </contour>
    </TTGlyph>
    <TTGlyph name="caron.salt" xMin="263" yMin="1149" xMax="498" yMax="1473">
      <contour>
        <pt x="470" y="1473" on="1"/>
        <pt x="487" y="1473" on="0"/>
        <pt x="498" y="1458" on="0"/>
        <pt x="498" y="1448" on="1"/>
        <pt x="498" y="1438" on="0"/>
        <pt x="491" y="1408" on="0"/>
        <pt x="468" y="1351" on="0"/>
        <pt x="425" y="1257" on="0"/>
        <pt x="389" y="1184" on="1"/>
        <pt x="377" y="1162" on="0"/>
        <pt x="347" y="1149" on="0"/>
        <pt x="323" y="1149" on="1"/>
        <pt x="263" y="1149" on="1"/>
        <pt x="356" y="1473" on="1"/>
      </contour>
    </TTGlyph>
    <TTGlyph name="ccedilla" xMin="60" yMin="-351" xMax="866" yMax="1027">
      <contour>
        <pt x="280" y="-249" on="1"/>
        <pt x="286" y="-249" on="0"/>
        <pt x="300" y="-257" on="0"/>
        <pt x="320" y="-266" on="0"/>
        <pt x="346" y="-274" on="0"/>
        <pt x="366" y="-274" on="1"/>
        <pt x="406" y="-274" on="0"/>
        <pt x="449" y="-234" on="0"/>
        <pt x="449" y="-204" on="1"/>
        <pt x="449" y="-169" on="0"/>
        <pt x="378" y="-140" on="0"/>
        <pt x="312" y="-131" on="1"/>
        <pt x="362" y="-10" on="1"/>
        <pt x="288" y="0" on="0"/>
        <pt x="175" y="67" on="0"/>
        <pt x="99" y="174" on="0"/>
        <pt x="60" y="316" on="0"/>
        <pt x="60" y="400" on="1"/>
        <pt x="60" y="523" on="0"/>
        <pt x="137" y="749" on="0"/>
        <pt x="275" y="923" on="0"/>
        <pt x="465" y="1027" on="0"/>
        <pt x="579" y="1027" on="1"/>
        <pt x="679" y="1027" on="0"/>
        <pt x="815" y="956" on="0"/>
        <pt x="866" y="888" on="1"/>
        <pt x="810" y="821" on="1"/>
        <pt x="804" y="813" on="0"/>
        <pt x="786" y="803" on="0"/>
        <pt x="775" y="803" on="1"/>
        <pt x="761" y="803" on="0"/>
        <pt x="734" y="828" on="0"/>
        <pt x="691" y="859" on="0"/>
        <pt x="626" y="884" on="0"/>
        <pt x="575" y="884" on="1"/>
        <pt x="506" y="884" on="0"/>
        <pt x="383" y="809" on="0"/>
        <pt x="291" y="679" on="0"/>
        <pt x="238" y="501" on="0"/>
        <pt x="238" y="399" on="1"/>
        <pt x="238" y="337" on="0"/>
        <pt x="266" y="236" on="0"/>
        <pt x="322" y="165" on="0"/>
        <pt x="403" y="126" on="0"/>
        <pt x="457" y="126" on="1"/>
        <pt x="502" y="126" on="0"/>
        <pt x="572" y="145" on="0"/>
        <pt x="626" y="173" on="0"/>
        <pt x="667" y="206" on="0"/>
        <pt x="700" y="234" on="0"/>
        <pt x="727" y="253" on="0"/>
        <pt x="741" y="253" on="1"/>
        <pt x="761" y="253" on="0"/>
        <pt x="775" y="236" on="1"/>
        <pt x="819" y="182" on="1"/>
        <pt x="772" y="131" on="0"/>
        <pt x="688" y="59" on="0"/>
        <pt x="604" y="14" on="0"/>
        <pt x="517" y="-9" on="0"/>
        <pt x="468" y="-12" on="1"/>
        <pt x="445" y="-72" on="1"/>
        <pt x="519" y="-89" on="0"/>
        <pt x="586" y="-152" on="0"/>
        <pt x="586" y="-198" on="1"/>
        <pt x="586" y="-234" on="0"/>
        <pt x="553" y="-291" on="0"/>
        <pt x="494" y="-330" on="0"/>
        <pt x="413" y="-351" on="0"/>
        <pt x="365" y="-351" on="1"/>
        <pt x="327" y="-351" on="0"/>
        <pt x="261" y="-334" on="0"/>
        <pt x="234" y="-319" on="1"/>
        <pt x="257" y="-266" on="1"/>
        <pt x="265" y="-249" on="0"/>
      </contour>
    </TTGlyph>
    <TTGlyph name="cedilla" xMin="23" yMin="-351" xMax="375" yMax="10">
      <contour>
        <pt x="69" y="-249" on="1"/>
        <pt x="75" y="-249" on="0"/>
        <pt x="89" y="-257" on="0"/>
        <pt x="109" y="-266" on="0"/>
        <pt x="135" y="-274" on="0"/>
        <pt x="155" y="-274" on="1"/>
        <pt x="195" y="-274" on="0"/>
        <pt x="238" y="-234" on="0"/>
        <pt x="238" y="-204" on="1"/>
        <pt x="238" y="-169" on="0"/>
        <pt x="167" y="-140" on="0"/>
        <pt x="101" y="-131" on="1"/>
        <pt x="159" y="10" on="1"/>
        <pt x="266" y="10" on="1"/>
        <pt x="234" y="-72" on="1"/>
        <pt x="308" y="-89" on="0"/>
        <pt x="375" y="-152" on="0"/>
        <pt x="375" y="-198" on="1"/>
        <pt x="375" y="-234" on="0"/>
        <pt x="342" y="-291" on="0"/>
        <pt x="283" y="-330" on="0"/>
        <pt x="202" y="-351" on="0"/>
        <pt x="154" y="-351" on="1"/>
        <pt x="116" y="-351" on="0"/>
        <pt x="50" y="-334" on="0"/>
        <pt x="23" y="-319" on="1"/>
        <pt x="46" y="-266" on="1"/>
        <pt x="54" y="-249" on="0"/>
      </contour>
    </TTGlyph>
    <TTGlyph name="cent" xMin="138" yMin="-237" xMax="1062" yMax="1254">
      <contour>
        <pt x="503" y="-10" on="1"/>
        <pt x="421" y="-1" on="0"/>
        <pt x="286" y="67" on="0"/>
        <pt x="190" y="180" on="0"/>
        <pt x="138" y="335" on="0"/>
        <pt x="138" y="431" on="1"/>
        <pt x="138" y="557" on="0"/>
        <pt x="215" y="772" on="0"/>
        <pt x="359" y="930" on="0"/>
        <pt x="568" y="1022" on="0"/>
        <pt x="700" y="1025" on="1"/>
        <pt x="734" y="1206" on="1"/>
        <pt x="738" y="1225" on="0"/>
        <pt x="768" y="1254" on="0"/>
        <pt x="788" y="1254" on="1"/>
        <pt x="852" y="1254" on="1"/>
        <pt x="807" y="1020" on="1"/>
        <pt x="889" y="1009" on="0"/>
        <pt x="1014" y="946" on="0"/>
        <pt x="1062" y="897" on="1"/>
        <pt x="1010" y="837" on="1"/>
        <pt x="1002" y="826" on="0"/>
        <pt x="985" y="817" on="0"/>
        <pt x="971" y="817" on="1"/>
        <pt x="959" y="817" on="0"/>
        <pt x="929" y="835" on="0"/>
        <pt x="886" y="859" on="0"/>
        <pt x="825" y="883" on="0"/>
        <pt x="783" y="890" on="1"/>
        <pt x="636" y="119" on="1"/>
        <pt x="700" y="123" on="0"/>
        <pt x="791" y="154" on="0"/>
        <pt x="854" y="188" on="0"/>
        <pt x="896" y="215" on="0"/>
        <pt x="912" y="215" on="1"/>
        <pt x="934" y="215" on="0"/>
        <pt x="943" y="200" on="1"/>
        <pt x="982" y="140" on="1"/>
        <pt x="949" y="105" on="0"/>
        <pt x="866" y="51" on="0"/>
        <pt x="770" y="13" on="0"/>
        <pt x="665" y="-9" on="0"/>
        <pt x="611" y="-12" on="1"/>
        <pt x="578" y="-189" on="1"/>
        <pt x="574" y="-208" on="0"/>
        <pt x="545" y="-237" on="0"/>
        <pt x="524" y="-237" on="1"/>
        <pt x="460" y="-237" on="1"/>
      </contour>
      <contour>
        <pt x="307" y="439" on="1"/>
        <pt x="307" y="307" on="0"/>
        <pt x="423" y="146" on="0"/>
        <pt x="529" y="125" on="1"/>
        <pt x="675" y="893" on="1"/>
        <pt x="585" y="887" on="0"/>
        <pt x="448" y="819" on="0"/>
        <pt x="355" y="701" on="0"/>
        <pt x="307" y="538" on="0"/>
      </contour>
    </TTGlyph>
    <TTGlyph name="circumflex" xMin="81" yMin="1169" xMax="653" yMax="1431">
      <contour>
        <pt x="653" y="1169" on="1"/>
        <pt x="539" y="1169" on="1"/>
        <pt x="528" y="1169" on="0"/>
        <pt x="508" y="1177" on="0"/>
        <pt x="503" y="1183" on="1"/>
        <pt x="403" y="1311" on="1"/>
        <pt x="400" y="1314" on="0"/>
        <pt x="393" y="1321" on="0"/>
        <pt x="390" y="1326" on="1"/>
        <pt x="385" y="1321" on="0"/>
        <pt x="377" y="1314" on="0"/>
        <pt x="373" y="1311" on="1"/>
        <pt x="240" y="1183" on="1"/>
        <pt x="234" y="1178" on="0"/>
        <pt x="212" y="1169" on="0"/>
        <pt x="200" y="1169" on="1"/>
        <pt x="81" y="1169" on="1"/>
        <pt x="320" y="1431" on="1"/>
        <pt x="480" y="1431" on="1"/>
      </contour>
    </TTGlyph>
    <TTGlyph name="circumflex.case" xMin="102" yMin="1546" xMax="711" yMax="1755">
      <contour>
        <pt x="711" y="1546" on="1"/>
        <pt x="580" y="1546" on="1"/>
        <pt x="569" y="1546" on="0"/>
        <pt x="544" y="1552" on="0"/>
        <pt x="536" y="1559" on="1"/>
        <pt x="422" y="1666" on="1"/>
        <pt x="280" y="1559" on="1"/>
        <pt x="271" y="1552" on="0"/>
        <pt x="244" y="1546" on="0"/>
        <pt x="232" y="1546" on="1"/>
        <pt x="102" y="1546" on="1"/>
        <pt x="348" y="1755" on="1"/>
        <pt x="517" y="1755" on="1"/>
      </contour>
    </TTGlyph>
    <TTGlyph name="colon" xMin="45" yMin="-15" xMax="395" yMax="986">
      <contour>
        <pt x="45" y="110" on="1"/>
        <pt x="45" y="136" on="0"/>
        <pt x="64" y="182" on="0"/>
        <pt x="98" y="216" on="0"/>
        <pt x="143" y="236" on="0"/>
        <pt x="170" y="236" on="1"/>
        <pt x="196" y="236" on="0"/>
        <pt x="241" y="216" on="0"/>
        <pt x="275" y="182" on="0"/>
        <pt x="295" y="136" on="0"/>
        <pt x="295" y="110" on="1"/>
        <pt x="295" y="83" on="0"/>
        <pt x="275" y="38" on="0"/>
        <pt x="241" y="4" on="0"/>
        <pt x="196" y="-15" on="0"/>
        <pt x="170" y="-15" on="1"/>
        <pt x="143" y="-15" on="0"/>
        <pt x="98" y="4" on="0"/>
        <pt x="64" y="38" on="0"/>
        <pt x="45" y="83" on="0"/>
      </contour>
      <contour>
        <pt x="145" y="860" on="1"/>
        <pt x="145" y="886" on="0"/>
        <pt x="164" y="932" on="0"/>
        <pt x="198" y="966" on="0"/>
        <pt x="243" y="986" on="0"/>
        <pt x="270" y="986" on="1"/>
        <pt x="296" y="986" on="0"/>
        <pt x="341" y="966" on="0"/>
        <pt x="375" y="932" on="0"/>
        <pt x="395" y="886" on="0"/>
        <pt x="395" y="860" on="1"/>
        <pt x="395" y="833" on="0"/>
        <pt x="375" y="788" on="0"/>
        <pt x="341" y="754" on="0"/>
        <pt x="296" y="735" on="0"/>
        <pt x="270" y="735" on="1"/>
        <pt x="243" y="735" on="0"/>
        <pt x="198" y="754" on="0"/>
        <pt x="164" y="788" on="0"/>
        <pt x="145" y="833" on="0"/>
      </contour>
    </TTGlyph>
    <TTGlyph name="comma" xMin="50" yMin="-271" xMax="292" yMax="236">
      <contour>
        <pt x="50" y="123" on="1"/>
        <pt x="50" y="170" on="0"/>
        <pt x="115" y="236" on="0"/>
        <pt x="169" y="236" on="1"/>
        <pt x="199" y="236" on="0"/>
        <pt x="245" y="214" on="0"/>
        <pt x="276" y="175" on="0"/>
        <pt x="292" y="124" on="0"/>
        <pt x="292" y="94" on="1"/>
        <pt x="292" y="49" on="0"/>
        <pt x="267" y="-48" on="0"/>
        <pt x="218" y="-143" on="0"/>
        <pt x="148" y="-233" on="0"/>
        <pt x="103" y="-271" on="1"/>
        <pt x="72" y="-242" on="1"/>
        <pt x="59" y="-230" on="0"/>
        <pt x="59" y="-214" on="1"/>
        <pt x="59" y="-202" on="0"/>
        <pt x="91" y="-164" on="0"/>
        <pt x="133" y="-111" on="0"/>
        <pt x="172" y="-42" on="0"/>
        <pt x="179" y="0" on="1"/>
        <pt x="167" y="0" on="1"/>
        <pt x="115" y="0" on="0"/>
        <pt x="50" y="69" on="0"/>
      </contour>
    </TTGlyph>
    <TTGlyph name="copyright" xMin="93" yMin="-14" xMax="1554" yMax="1448">
      <contour>
        <pt x="1083" y="474" on="1"/>
        <pt x="1092" y="474" on="0"/>
        <pt x="1101" y="468" on="0"/>
        <pt x="1106" y="463" on="1"/>
        <pt x="1166" y="399" on="1"/>
        <pt x="1109" y="333" on="0"/>
        <pt x="944" y="260" on="0"/>
        <pt x="828" y="260" on="1"/>
        <pt x="730" y="260" on="0"/>
        <pt x="569" y="328" on="0"/>
        <pt x="454" y="450" on="0"/>
        <pt x="391" y="618" on="0"/>
        <pt x="391" y="718" on="1"/>
        <pt x="391" y="819" on="0"/>
        <pt x="459" y="988" on="0"/>
        <pt x="581" y="1109" on="0"/>
        <pt x="748" y="1176" on="0"/>
        <pt x="846" y="1176" on="1"/>
        <pt x="955" y="1176" on="0"/>
        <pt x="1106" y="1109" on="0"/>
        <pt x="1163" y="1053" on="1"/>
        <pt x="1117" y="988" on="1"/>
        <pt x="1112" y="982" on="0"/>
        <pt x="1096" y="970" on="0"/>
        <pt x="1085" y="970" on="1"/>
        <pt x="1071" y="970" on="0"/>
        <pt x="1040" y="992" on="0"/>
        <pt x="990" y="1019" on="0"/>
        <pt x="913" y="1042" on="0"/>
        <pt x="855" y="1042" on="1"/>
        <pt x="784" y="1042" on="0"/>
        <pt x="672" y="997" on="0"/>
        <pt x="592" y="913" on="0"/>
        <pt x="550" y="793" on="0"/>
        <pt x="550" y="718" on="1"/>
        <pt x="550" y="641" on="0"/>
        <pt x="592" y="520" on="0"/>
        <pt x="667" y="438" on="0"/>
        <pt x="770" y="395" on="0"/>
        <pt x="832" y="395" on="1"/>
        <pt x="895" y="395" on="0"/>
        <pt x="981" y="420" on="0"/>
        <pt x="1038" y="449" on="0"/>
        <pt x="1071" y="474" on="0"/>
      </contour>
      <contour>
        <pt x="93" y="716" on="1"/>
        <pt x="93" y="817" on="0"/>
        <pt x="145" y="1004" on="0"/>
        <pt x="241" y="1167" on="0"/>
        <pt x="374" y="1300" on="0"/>
        <pt x="536" y="1396" on="0"/>
        <pt x="722" y="1448" on="0"/>
        <pt x="823" y="1448" on="1"/>
        <pt x="924" y="1448" on="0"/>
        <pt x="1111" y="1396" on="0"/>
        <pt x="1273" y="1300" on="0"/>
        <pt x="1407" y="1167" on="0"/>
        <pt x="1502" y="1004" on="0"/>
        <pt x="1554" y="817" on="0"/>
        <pt x="1554" y="716" on="1"/>
        <pt x="1554" y="616" on="0"/>
        <pt x="1502" y="429" on="0"/>
        <pt x="1407" y="267" on="0"/>
        <pt x="1273" y="134" on="0"/>
        <pt x="1111" y="38" on="0"/>
        <pt x="924" y="-14" on="0"/>
        <pt x="823" y="-14" on="1"/>
        <pt x="723" y="-14" on="0"/>
        <pt x="536" y="38" on="0"/>
        <pt x="374" y="134" on="0"/>
        <pt x="241" y="267" on="0"/>
        <pt x="145" y="429" on="0"/>
        <pt x="93" y="615" on="0"/>
      </contour>
      <contour>
        <pt x="194" y="716" on="1"/>
        <pt x="194" y="627" on="0"/>
        <pt x="238" y="463" on="0"/>
        <pt x="319" y="320" on="0"/>
        <pt x="434" y="204" on="0"/>
        <pt x="573" y="121" on="0"/>
        <pt x="735" y="76" on="0"/>
        <pt x="823" y="76" on="1"/>
        <pt x="911" y="76" on="0"/>
        <pt x="1074" y="121" on="0"/>
        <pt x="1215" y="204" on="0"/>
        <pt x="1330" y="320" on="0"/>
        <pt x="1412" y="463" on="0"/>
        <pt x="1457" y="627" on="0"/>
        <pt x="1457" y="716" on="1"/>
        <pt x="1457" y="850" on="0"/>
        <pt x="1358" y="1085" on="0"/>
        <pt x="1187" y="1260" on="0"/>
        <pt x="955" y="1361" on="0"/>
        <pt x="823" y="1361" on="1"/>
        <pt x="735" y="1361" on="0"/>
        <pt x="573" y="1315" on="0"/>
        <pt x="434" y="1232" on="0"/>
        <pt x="319" y="1114" on="0"/>
        <pt x="238" y="971" on="0"/>
        <pt x="194" y="805" on="0"/>
      </contour>
    </TTGlyph>
    <TTGlyph name="currency" xMin="171" yMin="224" xMax="1067" yMax="1120">
      <contour>
        <pt x="262" y="672" on="1"/>
        <pt x="262" y="729" on="0"/>
        <pt x="295" y="830" on="0"/>
        <pt x="324" y="874" on="1"/>
        <pt x="171" y="1027" on="1"/>
        <pt x="262" y="1117" on="1"/>
        <pt x="413" y="965" on="1"/>
        <pt x="457" y="996" on="0"/>
        <pt x="561" y="1030" on="0"/>
        <pt x="619" y="1030" on="1"/>
        <pt x="676" y="1030" on="0"/>
        <pt x="778" y="997" on="0"/>
        <pt x="821" y="967" on="1"/>
        <pt x="974" y="1120" on="1"/>
        <pt x="1063" y="1029" on="1"/>
        <pt x="912" y="877" on="1"/>
        <pt x="943" y="833" on="0"/>
        <pt x="977" y="730" on="0"/>
        <pt x="977" y="672" on="1"/>
        <pt x="977" y="615" on="0"/>
        <pt x="944" y="513" on="0"/>
        <pt x="915" y="470" on="1"/>
        <pt x="1067" y="319" on="1"/>
        <pt x="976" y="227" on="1"/>
        <pt x="824" y="379" on="1"/>
        <pt x="780" y="348" on="0"/>
        <pt x="676" y="315" on="0"/>
        <pt x="619" y="315" on="1"/>
        <pt x="562" y="315" on="0"/>
        <pt x="461" y="348" on="0"/>
        <pt x="417" y="377" on="1"/>
        <pt x="264" y="224" on="1"/>
        <pt x="174" y="315" on="1"/>
        <pt x="326" y="467" on="1"/>
        <pt x="295" y="511" on="0"/>
        <pt x="262" y="614" on="0"/>
      </contour>
      <contour>
        <pt x="394" y="672" on="1"/>
        <pt x="394" y="626" on="0"/>
        <pt x="429" y="545" on="0"/>
        <pt x="491" y="484" on="0"/>
        <pt x="572" y="448" on="0"/>
        <pt x="619" y="448" on="1"/>
        <pt x="666" y="448" on="0"/>
        <pt x="749" y="484" on="0"/>
        <pt x="810" y="545" on="0"/>
        <pt x="846" y="626" on="0"/>
        <pt x="846" y="672" on="1"/>
        <pt x="846" y="719" on="0"/>
        <pt x="810" y="801" on="0"/>
        <pt x="749" y="863" on="0"/>
        <pt x="666" y="898" on="0"/>
        <pt x="619" y="898" on="1"/>
        <pt x="572" y="898" on="0"/>
        <pt x="491" y="863" on="0"/>
        <pt x="429" y="801" on="0"/>
        <pt x="394" y="719" on="0"/>
      </contour>
    </TTGlyph>
    <TTGlyph name="d" xMin="53" yMin="-14" xMax="1030" yMax="1473">
      <contour>
        <pt x="756" y="0" on="1"/>
        <pt x="721" y="0" on="0"/>
        <pt x="696" y="36" on="0"/>
        <pt x="696" y="62" on="1"/>
        <pt x="715" y="273" on="1"/>
        <pt x="677" y="208" on="0"/>
        <pt x="587" y="102" on="0"/>
        <pt x="488" y="27" on="0"/>
        <pt x="381" y="-14" on="0"/>
        <pt x="326" y="-14" on="1"/>
        <pt x="196" y="-14" on="0"/>
        <pt x="53" y="175" on="0"/>
        <pt x="53" y="355" on="1"/>
        <pt x="53" y="437" on="0"/>
        <pt x="87" y="601" on="0"/>
        <pt x="150" y="751" on="0"/>
        <pt x="239" y="880" on="0"/>
        <pt x="348" y="974" on="0"/>
        <pt x="476" y="1028" on="0"/>
        <pt x="546" y="1028" on="1"/>
        <pt x="620" y="1028" on="0"/>
        <pt x="743" y="970" on="0"/>
        <pt x="786" y="916" on="1"/>
        <pt x="855" y="1473" on="1"/>
        <pt x="1030" y="1473" on="1"/>
        <pt x="848" y="0" on="1"/>
      </contour>
      <contour>
        <pt x="393" y="129" on="1"/>
        <pt x="441" y="129" on="0"/>
        <pt x="538" y="188" on="0"/>
        <pt x="629" y="293" on="0"/>
        <pt x="708" y="438" on="0"/>
        <pt x="737" y="524" on="1"/>
        <pt x="770" y="792" on="1"/>
        <pt x="732" y="845" on="0"/>
        <pt x="626" y="889" on="0"/>
        <pt x="572" y="889" on="1"/>
        <pt x="493" y="889" on="0"/>
        <pt x="366" y="795" on="0"/>
        <pt x="277" y="646" on="0"/>
        <pt x="229" y="462" on="0"/>
        <pt x="229" y="373" on="1"/>
        <pt x="229" y="254" on="0"/>
        <pt x="315" y="129" on="0"/>
      </contour>
    </TTGlyph>
    <TTGlyph name="dagger" xMin="153" yMin="-358" xMax="1018" yMax="1472">
      <contour>
        <pt x="161" y="940" on="1"/>
        <pt x="165" y="969" on="0"/>
        <pt x="209" y="1016" on="0"/>
        <pt x="251" y="1016" on="1"/>
        <pt x="314" y="1015" on="0"/>
        <pt x="457" y="989" on="0"/>
        <pt x="528" y="982" on="1"/>
        <pt x="563" y="1450" on="1"/>
        <pt x="604" y="1472" on="0"/>
        <pt x="655" y="1472" on="1"/>
        <pt x="706" y="1472" on="0"/>
        <pt x="741" y="1450" on="1"/>
        <pt x="661" y="982" on="1"/>
        <pt x="697" y="985" on="0"/>
        <pt x="772" y="997" on="0"/>
        <pt x="845" y="1007" on="0"/>
        <pt x="915" y="1016" on="0"/>
        <pt x="947" y="1016" on="1"/>
        <pt x="985" y="1016" on="0"/>
        <pt x="1018" y="975" on="0"/>
        <pt x="1018" y="949" on="1"/>
        <pt x="1018" y="948" on="0"/>
        <pt x="1018" y="944" on="0"/>
        <pt x="1017" y="931" on="0"/>
        <pt x="1014" y="905" on="0"/>
        <pt x="1012" y="882" on="1"/>
        <pt x="649" y="882" on="1"/>
        <pt x="595" y="438" on="1"/>
        <pt x="523" y="-336" on="1"/>
        <pt x="503" y="-347" on="0"/>
        <pt x="455" y="-358" on="0"/>
        <pt x="430" y="-358" on="1"/>
        <pt x="404" y="-358" on="0"/>
        <pt x="361" y="-347" on="0"/>
        <pt x="344" y="-336" on="1"/>
        <pt x="461" y="438" on="1"/>
        <pt x="515" y="882" on="1"/>
        <pt x="153" y="882" on="1"/>
      </contour>
    </TTGlyph>
    <TTGlyph name="daggerdbl" xMin="66" yMin="-358" xMax="1019" yMax="1472">
      <contour>
        <pt x="161" y="940" on="1"/>
        <pt x="165" y="969" on="0"/>
        <pt x="209" y="1016" on="0"/>
        <pt x="251" y="1016" on="1"/>
        <pt x="314" y="1015" on="0"/>
        <pt x="457" y="989" on="0"/>
        <pt x="528" y="982" on="1"/>
        <pt x="563" y="1450" on="1"/>
        <pt x="604" y="1472" on="0"/>
        <pt x="655" y="1472" on="1"/>
        <pt x="706" y="1472" on="0"/>
        <pt x="741" y="1450" on="1"/>
        <pt x="661" y="982" on="1"/>
        <pt x="697" y="985" on="0"/>
        <pt x="772" y="997" on="0"/>
        <pt x="845" y="1007" on="0"/>
        <pt x="915" y="1016" on="0"/>
        <pt x="947" y="1016" on="1"/>
        <pt x="985" y="1016" on="0"/>
        <pt x="1019" y="977" on="0"/>
        <pt x="1019" y="951" on="1"/>
        <pt x="1019" y="936" on="0"/>
        <pt x="1014" y="896" on="0"/>
        <pt x="1012" y="882" on="1"/>
        <pt x="649" y="882" on="1"/>
        <pt x="569" y="232" on="1"/>
        <pt x="931" y="232" on="1"/>
        <pt x="925" y="174" on="1"/>
        <pt x="922" y="144" on="0"/>
        <pt x="876" y="97" on="0"/>
        <pt x="834" y="97" on="1"/>
        <pt x="771" y="98" on="0"/>
        <pt x="627" y="123" on="0"/>
        <pt x="556" y="129" on="1"/>
        <pt x="523" y="-336" on="1"/>
        <pt x="503" y="-347" on="0"/>
        <pt x="455" y="-358" on="0"/>
        <pt x="430" y="-358" on="1"/>
        <pt x="404" y="-358" on="0"/>
        <pt x="361" y="-347" on="0"/>
        <pt x="344" y="-336" on="1"/>
        <pt x="423" y="129" on="1"/>
        <pt x="387" y="126" on="0"/>
        <pt x="312" y="116" on="0"/>
        <pt x="239" y="105" on="0"/>
        <pt x="168" y="97" on="0"/>
        <pt x="137" y="97" on="1"/>
        <pt x="99" y="97" on="0"/>
        <pt x="66" y="137" on="0"/>
        <pt x="66" y="164" on="1"/>
        <pt x="66" y="165" on="0"/>
        <pt x="66" y="169" on="0"/>
        <pt x="68" y="183" on="0"/>
        <pt x="70" y="209" on="0"/>
        <pt x="73" y="232" on="1"/>
        <pt x="436" y="232" on="1"/>
        <pt x="516" y="882" on="1"/>
        <pt x="153" y="882" on="1"/>
      </contour>
    </TTGlyph>
    <TTGlyph name="degree" xMin="142" yMin="807" xMax="793" yMax="1450">
      <contour>
        <pt x="142" y="1128" on="1"/>
        <pt x="142" y="1195" on="0"/>
        <pt x="193" y="1313" on="0"/>
        <pt x="281" y="1400" on="0"/>
        <pt x="399" y="1450" on="0"/>
        <pt x="467" y="1450" on="1"/>
        <pt x="536" y="1450" on="0"/>
        <pt x="655" y="1400" on="0"/>
        <pt x="743" y="1313" on="0"/>
        <pt x="793" y="1195" on="0"/>
        <pt x="793" y="1128" on="1"/>
        <pt x="793" y="1062" on="0"/>
        <pt x="743" y="945" on="0"/>
        <pt x="655" y="858" on="0"/>
        <pt x="536" y="807" on="0"/>
        <pt x="467" y="807" on="1"/>
        <pt x="399" y="807" on="0"/>
        <pt x="281" y="858" on="0"/>
        <pt x="193" y="945" on="0"/>
        <pt x="142" y="1062" on="0"/>
      </contour>
      <contour>
        <pt x="267" y="1127" on="1"/>
        <pt x="267" y="1085" on="0"/>
        <pt x="298" y="1012" on="0"/>
        <pt x="352" y="958" on="0"/>
        <pt x="425" y="927" on="0"/>
        <pt x="467" y="927" on="1"/>
        <pt x="509" y="927" on="0"/>
        <pt x="582" y="958" on="0"/>
        <pt x="636" y="1012" on="0"/>
        <pt x="666" y="1085" on="0"/>
        <pt x="666" y="1127" on="1"/>
        <pt x="666" y="1169" on="0"/>
        <pt x="636" y="1243" on="0"/>
        <pt x="582" y="1298" on="0"/>
        <pt x="509" y="1329" on="0"/>
        <pt x="467" y="1329" on="1"/>
        <pt x="425" y="1329" on="0"/>
        <pt x="352" y="1298" on="0"/>
        <pt x="298" y="1243" on="0"/>
        <pt x="267" y="1169" on="0"/>
      </contour>
    </TTGlyph>
    <TTGlyph name="dieresis" xMin="94" yMin="1200" xMax="678" yMax="1425">
      <contour>
        <pt x="319" y="1311" on="1"/>
        <pt x="319" y="1288" on="0"/>
        <pt x="301" y="1248" on="0"/>
        <pt x="269" y="1218" on="0"/>
        <pt x="228" y="1200" on="0"/>
        <pt x="205" y="1200" on="1"/>
        <pt x="182" y="1200" on="0"/>
        <pt x="142" y="1218" on="0"/>
        <pt x="112" y="1248" on="0"/>
        <pt x="94" y="1288" on="0"/>
        <pt x="94" y="1311" on="1"/>
        <pt x="94" y="1334" on="0"/>
        <pt x="112" y="1376" on="0"/>
        <pt x="142" y="1407" on="0"/>
        <pt x="182" y="1425" on="0"/>
        <pt x="205" y="1425" on="1"/>
        <pt x="228" y="1425" on="0"/>
        <pt x="269" y="1407" on="0"/>
        <pt x="301" y="1376" on="0"/>
        <pt x="319" y="1334" on="0"/>
      </contour>
      <contour>
        <pt x="678" y="1311" on="1"/>
        <pt x="678" y="1288" on="0"/>
        <pt x="660" y="1248" on="0"/>
        <pt x="629" y="1218" on="0"/>
        <pt x="588" y="1200" on="0"/>
        <pt x="565" y="1200" on="1"/>
        <pt x="542" y="1200" on="0"/>
        <pt x="501" y="1218" on="0"/>
        <pt x="471" y="1248" on="0"/>
        <pt x="453" y="1288" on="0"/>
        <pt x="453" y="1311" on="1"/>
        <pt x="453" y="1334" on="0"/>
        <pt x="471" y="1376" on="0"/>
        <pt x="501" y="1407" on="0"/>
        <pt x="542" y="1425" on="0"/>
        <pt x="565" y="1425" on="1"/>
        <pt x="588" y="1425" on="0"/>
        <pt x="629" y="1407" on="0"/>
        <pt x="660" y="1376" on="0"/>
        <pt x="678" y="1334" on="0"/>
      </contour>
    </TTGlyph>
    <TTGlyph name="dieresis.case" xMin="134" yMin="1567" xMax="680" yMax="1768">
      <contour>
        <pt x="336" y="1665" on="1"/>
        <pt x="336" y="1645" on="0"/>
        <pt x="319" y="1609" on="0"/>
        <pt x="291" y="1582" on="0"/>
        <pt x="254" y="1567" on="0"/>
        <pt x="233" y="1567" on="1"/>
        <pt x="213" y="1567" on="0"/>
        <pt x="178" y="1582" on="0"/>
        <pt x="150" y="1609" on="0"/>
        <pt x="134" y="1645" on="0"/>
        <pt x="134" y="1665" on="1"/>
        <pt x="134" y="1686" on="0"/>
        <pt x="150" y="1723" on="0"/>
        <pt x="178" y="1752" on="0"/>
        <pt x="213" y="1768" on="0"/>
        <pt x="233" y="1768" on="1"/>
        <pt x="254" y="1768" on="0"/>
        <pt x="291" y="1752" on="0"/>
        <pt x="319" y="1723" on="0"/>
        <pt x="336" y="1686" on="0"/>
      </contour>
      <contour>
        <pt x="680" y="1665" on="1"/>
        <pt x="680" y="1645" on="0"/>
        <pt x="664" y="1609" on="0"/>
        <pt x="636" y="1582" on="0"/>
        <pt x="600" y="1567" on="0"/>
        <pt x="579" y="1567" on="1"/>
        <pt x="558" y="1567" on="0"/>
        <pt x="522" y="1582" on="0"/>
        <pt x="494" y="1609" on="0"/>
        <pt x="478" y="1645" on="0"/>
        <pt x="478" y="1665" on="1"/>
        <pt x="478" y="1686" on="0"/>
        <pt x="494" y="1723" on="0"/>
        <pt x="522" y="1752" on="0"/>
        <pt x="558" y="1768" on="0"/>
        <pt x="579" y="1768" on="1"/>
        <pt x="600" y="1768" on="0"/>
        <pt x="636" y="1752" on="0"/>
        <pt x="664" y="1723" on="0"/>
        <pt x="680" y="1686" on="0"/>
      </contour>
    </TTGlyph>
    <TTGlyph name="divide" xMin="115" yMin="192" xMax="1089" yMax="1150">
      <contour>
        <pt x="131" y="736" on="1"/>
        <pt x="1089" y="736" on="1"/>
        <pt x="1073" y="606" on="1"/>
        <pt x="115" y="606" on="1"/>
      </contour>
      <contour>
        <pt x="522" y="1012" on="1"/>
        <pt x="522" y="1040" on="0"/>
        <pt x="544" y="1090" on="0"/>
        <pt x="582" y="1128" on="0"/>
        <pt x="632" y="1150" on="0"/>
        <pt x="660" y="1150" on="1"/>
        <pt x="684" y="1150" on="0"/>
        <pt x="723" y="1132" on="0"/>
        <pt x="752" y="1102" on="0"/>
        <pt x="768" y="1062" on="0"/>
        <pt x="768" y="1039" on="1"/>
        <pt x="768" y="1010" on="0"/>
        <pt x="745" y="961" on="0"/>
        <pt x="707" y="925" on="0"/>
        <pt x="657" y="904" on="0"/>
        <pt x="630" y="904" on="1"/>
        <pt x="581" y="904" on="0"/>
        <pt x="522" y="966" on="0"/>
      </contour>
      <contour>
        <pt x="434" y="300" on="1"/>
        <pt x="434" y="328" on="0"/>
        <pt x="456" y="378" on="0"/>
        <pt x="494" y="416" on="0"/>
        <pt x="544" y="438" on="0"/>
        <pt x="572" y="438" on="1"/>
        <pt x="596" y="438" on="0"/>
        <pt x="635" y="420" on="0"/>
        <pt x="664" y="390" on="0"/>
        <pt x="680" y="350" on="0"/>
        <pt x="680" y="327" on="1"/>
        <pt x="680" y="298" on="0"/>
        <pt x="657" y="249" on="0"/>
        <pt x="619" y="213" on="0"/>
        <pt x="569" y="192" on="0"/>
        <pt x="542" y="192" on="1"/>
        <pt x="494" y="192" on="0"/>
        <pt x="434" y="254" on="0"/>
      </contour>
    </TTGlyph>
    <TTGlyph name="dollar" xMin="71" yMin="-239" xMax="1122" yMax="1638">
      <contour>
        <pt x="440" y="-12" on="1"/>
        <pt x="321" y="-1" on="0"/>
        <pt x="134" y="96" on="0"/>
        <pt x="71" y="171" on="1"/>
        <pt x="132" y="249" on="1"/>
        <pt x="151" y="274" on="0"/>
        <pt x="181" y="274" on="1"/>
        <pt x="199" y="274" on="0"/>
        <pt x="242" y="236" on="0"/>
        <pt x="307" y="187" on="0"/>
        <pt x="399" y="140" on="0"/>
        <pt x="467" y="132" on="1"/>
        <pt x="570" y="672" on="1"/>
        <pt x="508" y="691" on="0"/>
        <pt x="389" y="740" on="0"/>
        <pt x="296" y="815" on="0"/>
        <pt x="239" y="926" on="0"/>
        <pt x="239" y="1008" on="1"/>
        <pt x="239" y="1091" on="0"/>
        <pt x="305" y="1245" on="0"/>
        <pt x="429" y="1365" on="0"/>
        <pt x="606" y="1441" on="0"/>
        <pt x="717" y="1445" on="1"/>
        <pt x="745" y="1590" on="1"/>
        <pt x="749" y="1609" on="0"/>
        <pt x="779" y="1638" on="0"/>
        <pt x="799" y="1638" on="1"/>
        <pt x="863" y="1638" on="1"/>
        <pt x="825" y="1441" on="1"/>
        <pt x="928" y="1429" on="0"/>
        <pt x="1071" y="1348" on="0"/>
        <pt x="1122" y="1289" on="1"/>
        <pt x="1074" y="1225" on="1"/>
        <pt x="1063" y="1210" on="0"/>
        <pt x="1041" y="1196" on="0"/>
        <pt x="1026" y="1196" on="1"/>
        <pt x="1012" y="1196" on="0"/>
        <pt x="975" y="1222" on="0"/>
        <pt x="921" y="1256" on="0"/>
        <pt x="848" y="1289" on="0"/>
        <pt x="798" y="1296" on="1"/>
        <pt x="705" y="805" on="1"/>
        <pt x="769" y="784" on="0"/>
        <pt x="895" y="734" on="0"/>
        <pt x="994" y="661" on="0"/>
        <pt x="1056" y="553" on="0"/>
        <pt x="1056" y="474" on="1"/>
        <pt x="1056" y="379" on="0"/>
        <pt x="986" y="208" on="0"/>
        <pt x="854" y="75" on="0"/>
        <pt x="666" y="-8" on="0"/>
        <pt x="549" y="-15" on="1"/>
        <pt x="515" y="-193" on="1"/>
        <pt x="511" y="-211" on="0"/>
        <pt x="482" y="-239" on="0"/>
        <pt x="461" y="-239" on="1"/>
        <pt x="397" y="-239" on="1"/>
      </contour>
      <contour>
        <pt x="887" y="432" on="1"/>
        <pt x="887" y="476" on="0"/>
        <pt x="853" y="541" on="0"/>
        <pt x="795" y="589" on="0"/>
        <pt x="717" y="624" on="0"/>
        <pt x="673" y="639" on="1"/>
        <pt x="577" y="131" on="1"/>
        <pt x="651" y="138" on="0"/>
        <pt x="766" y="188" on="0"/>
        <pt x="846" y="267" on="0"/>
        <pt x="887" y="371" on="0"/>
      </contour>
      <contour>
        <pt x="405" y="1047" on="1"/>
        <pt x="405" y="1005" on="0"/>
        <pt x="436" y="942" on="0"/>
        <pt x="489" y="893" on="0"/>
        <pt x="561" y="856" on="0"/>
        <pt x="602" y="840" on="1"/>
        <pt x="689" y="1298" on="1"/>
        <pt x="617" y="1292" on="0"/>
        <pt x="510" y="1247" on="0"/>
        <pt x="439" y="1179" on="0"/>
        <pt x="405" y="1094" on="0"/>
      </contour>
    </TTGlyph>
    <TTGlyph name="dotaccent" xMin="275" yMin="1213" xMax="528" yMax="1466">
      <contour>
        <pt x="528" y="1338" on="1"/>
        <pt x="528" y="1312" on="0"/>
        <pt x="507" y="1267" on="0"/>
        <pt x="472" y="1233" on="0"/>
        <pt x="426" y="1213" on="0"/>
        <pt x="400" y="1213" on="1"/>
        <pt x="374" y="1213" on="0"/>
        <pt x="329" y="1233" on="0"/>
        <pt x="295" y="1267" on="0"/>
        <pt x="275" y="1312" on="0"/>
        <pt x="275" y="1338" on="1"/>
        <pt x="275" y="1364" on="0"/>
        <pt x="295" y="1411" on="0"/>
        <pt x="329" y="1446" on="0"/>
        <pt x="374" y="1466" on="0"/>
        <pt x="400" y="1466" on="1"/>
        <pt x="426" y="1466" on="0"/>
        <pt x="472" y="1446" on="0"/>
        <pt x="507" y="1411" on="0"/>
        <pt x="528" y="1364" on="0"/>
      </contour>
    </TTGlyph>
    <TTGlyph name="dotaccent.case" xMin="298" yMin="1567" xMax="542" yMax="1811">
      <contour>
        <pt x="542" y="1688" on="1"/>
        <pt x="542" y="1664" on="0"/>
        <pt x="522" y="1620" on="0"/>
        <pt x="488" y="1587" on="0"/>
        <pt x="443" y="1567" on="0"/>
        <pt x="418" y="1567" on="1"/>
        <pt x="394" y="1567" on="0"/>
        <pt x="350" y="1587" on="0"/>
        <pt x="317" y="1620" on="0"/>
        <pt x="298" y="1664" on="0"/>
        <pt x="298" y="1688" on="1"/>
        <pt x="298" y="1713" on="0"/>
        <pt x="317" y="1757" on="0"/>
        <pt x="350" y="1791" on="0"/>
        <pt x="394" y="1811" on="0"/>
        <pt x="418" y="1811" on="1"/>
        <pt x="443" y="1811" on="0"/>
        <pt x="488" y="1791" on="0"/>
        <pt x="522" y="1757" on="0"/>
        <pt x="542" y="1713" on="0"/>
      </contour>
    </TTGlyph>
    <TTGlyph name="dotlessi" xMin="95" yMin="0" xMax="392" yMax="1013">
      <contour>
        <pt x="392" y="1013" on="1"/>
        <pt x="270" y="0" on="1"/>
        <pt x="95" y="0" on="1"/>
        <pt x="217" y="1013" on="1"/>
      </contour>
    </TTGlyph>
    <TTGlyph name="e" xMin="59" yMin="-14" xMax="881" yMax="1027">
      <contour>
        <pt x="881" y="796" on="1"/>
        <pt x="881" y="730" on="0"/>
        <pt x="827" y="619" on="0"/>
        <pt x="683" y="530" on="0"/>
        <pt x="431" y="464" on="0"/>
        <pt x="233" y="444" on="1"/>
        <pt x="232" y="433" on="0"/>
        <pt x="232" y="412" on="0"/>
        <pt x="232" y="401" on="1"/>
        <pt x="232" y="267" on="0"/>
        <pt x="349" y="126" on="0"/>
        <pt x="467" y="126" on="1"/>
        <pt x="515" y="126" on="0"/>
        <pt x="590" y="146" on="0"/>
        <pt x="649" y="175" on="0"/>
        <pt x="694" y="210" on="0"/>
        <pt x="732" y="239" on="0"/>
        <pt x="764" y="259" on="0"/>
        <pt x="780" y="259" on="1"/>
        <pt x="798" y="259" on="0"/>
        <pt x="813" y="242" on="1"/>
        <pt x="857" y="187" on="1"/>
        <pt x="806" y="134" on="0"/>
        <pt x="709" y="59" on="0"/>
        <pt x="607" y="9" on="0"/>
        <pt x="496" y="-14" on="0"/>
        <pt x="432" y="-14" on="1"/>
        <pt x="345" y="-14" on="0"/>
        <pt x="207" y="44" on="0"/>
        <pt x="111" y="151" on="0"/>
        <pt x="59" y="303" on="0"/>
        <pt x="59" y="397" on="1"/>
        <pt x="59" y="475" on="0"/>
        <pt x="92" y="630" on="0"/>
        <pt x="155" y="770" on="0"/>
        <pt x="246" y="890" on="0"/>
        <pt x="363" y="977" on="0"/>
        <pt x="504" y="1027" on="0"/>
        <pt x="585" y="1027" on="1"/>
        <pt x="662" y="1027" on="0"/>
        <pt x="774" y="983" on="0"/>
        <pt x="846" y="915" on="0"/>
        <pt x="881" y="833" on="0"/>
      </contour>
      <contour>
        <pt x="575" y="899" on="1"/>
        <pt x="512" y="899" on="0"/>
        <pt x="406" y="847" on="0"/>
        <pt x="324" y="756" on="0"/>
        <pt x="266" y="633" on="0"/>
        <pt x="250" y="562" on="1"/>
        <pt x="404" y="581" on="0"/>
        <pt x="590" y="630" on="0"/>
        <pt x="690" y="687" on="0"/>
        <pt x="722" y="753" on="0"/>
        <pt x="722" y="789" on="1"/>
        <pt x="722" y="807" on="0"/>
        <pt x="706" y="846" on="0"/>
        <pt x="671" y="878" on="0"/>
        <pt x="615" y="899" on="0"/>
      </contour>
    </TTGlyph>
    <TTGlyph name="eacute" xMin="59" yMin="-14" xMax="897" yMax="1447">
      <component glyphName="e" x="0" y="0" flags="0x204"/>
      <component glyphName="acute" x="221" y="0" flags="0x4"/>
    </TTGlyph>
    <TTGlyph name="ecircumflex" xMin="59" yMin="-14" xMax="881" yMax="1431">
      <component glyphName="e" x="0" y="0" flags="0x204"/>
      <component glyphName="circumflex" x="221" y="0" flags="0x4"/>
    </TTGlyph>
    <TTGlyph name="edieresis" xMin="59" yMin="-14" xMax="899" yMax="1425">
      <component glyphName="e" x="0" y="0" flags="0x204"/>
      <component glyphName="dieresis" x="221" y="0" flags="0x4"/>
    </TTGlyph>
    <TTGlyph name="egrave" xMin="59" yMin="-14" xMax="881" yMax="1447">
      <component glyphName="e" x="0" y="0" flags="0x204"/>
      <component glyphName="grave" x="252" y="0" flags="0x4"/>
    </TTGlyph>
    <TTGlyph name="eight" xMin="82" yMin="-16" xMax="1086" yMax="1447">
      <contour>
        <pt x="518" y="-16" on="1"/>
        <pt x="419" y="-16" on="0"/>
        <pt x="258" y="35" on="0"/>
        <pt x="144" y="129" on="0"/>
        <pt x="82" y="262" on="0"/>
        <pt x="82" y="343" on="1"/>
        <pt x="82" y="504" on="0"/>
        <pt x="255" y="706" on="0"/>
        <pt x="411" y="747" on="1"/>
        <pt x="314" y="785" on="0"/>
        <pt x="217" y="931" on="0"/>
        <pt x="217" y="1029" on="1"/>
        <pt x="217" y="1117" on="0"/>
        <pt x="289" y="1270" on="0"/>
        <pt x="416" y="1383" on="0"/>
        <pt x="592" y="1447" on="0"/>
        <pt x="697" y="1447" on="1"/>
        <pt x="787" y="1447" on="0"/>
        <pt x="931" y="1395" on="0"/>
        <pt x="1032" y="1304" on="0"/>
        <pt x="1086" y="1181" on="0"/>
        <pt x="1086" y="1111" on="1"/>
        <pt x="1086" y="980" on="0"/>
        <pt x="947" y="790" on="0"/>
        <pt x="813" y="745" on="1"/>
        <pt x="929" y="710" on="0"/>
        <pt x="1053" y="556" on="0"/>
        <pt x="1053" y="439" on="1"/>
        <pt x="1053" y="334" on="0"/>
        <pt x="972" y="166" on="0"/>
        <pt x="829" y="47" on="0"/>
        <pt x="633" y="-16" on="0"/>
      </contour>
      <contour>
        <pt x="534" y="121" on="1"/>
        <pt x="612" y="121" on="0"/>
        <pt x="738" y="167" on="0"/>
        <pt x="828" y="249" on="0"/>
        <pt x="876" y="365" on="0"/>
        <pt x="876" y="435" on="1"/>
        <pt x="876" y="499" on="0"/>
        <pt x="831" y="589" on="0"/>
        <pt x="755" y="646" on="0"/>
        <pt x="656" y="673" on="0"/>
        <pt x="603" y="673" on="1"/>
        <pt x="537" y="673" on="0"/>
        <pt x="415" y="637" on="0"/>
        <pt x="320" y="561" on="0"/>
        <pt x="263" y="442" on="0"/>
        <pt x="263" y="359" on="1"/>
        <pt x="263" y="306" on="0"/>
        <pt x="299" y="219" on="0"/>
        <pt x="369" y="156" on="0"/>
        <pt x="469" y="121" on="0"/>
      </contour>
      <contour>
        <pt x="619" y="811" on="1"/>
        <pt x="700" y="811" on="0"/>
        <pt x="813" y="863" on="0"/>
        <pt x="884" y="946" on="0"/>
        <pt x="916" y="1048" on="0"/>
        <pt x="916" y="1099" on="1"/>
        <pt x="916" y="1144" on="0"/>
        <pt x="887" y="1222" on="0"/>
        <pt x="829" y="1281" on="0"/>
        <pt x="741" y="1315" on="0"/>
        <pt x="682" y="1315" on="1"/>
        <pt x="610" y="1315" on="0"/>
        <pt x="499" y="1270" on="0"/>
        <pt x="423" y="1194" on="0"/>
        <pt x="384" y="1090" on="0"/>
        <pt x="384" y="1032" on="1"/>
        <pt x="384" y="989" on="0"/>
        <pt x="410" y="909" on="0"/>
        <pt x="467" y="848" on="0"/>
        <pt x="556" y="811" on="0"/>
      </contour>
    </TTGlyph>
    <TTGlyph name="ellipsis" xMin="45" yMin="-15" xMax="1324" yMax="236">
      <contour>
        <pt x="45" y="110" on="1"/>
        <pt x="45" y="136" on="0"/>
        <pt x="64" y="182" on="0"/>
        <pt x="98" y="216" on="0"/>
        <pt x="143" y="236" on="0"/>
        <pt x="170" y="236" on="1"/>
        <pt x="196" y="236" on="0"/>
        <pt x="241" y="216" on="0"/>
        <pt x="275" y="182" on="0"/>
        <pt x="295" y="136" on="0"/>
        <pt x="295" y="110" on="1"/>
        <pt x="295" y="83" on="0"/>
        <pt x="275" y="38" on="0"/>
        <pt x="241" y="4" on="0"/>
        <pt x="196" y="-15" on="0"/>
        <pt x="170" y="-15" on="1"/>
        <pt x="143" y="-15" on="0"/>
        <pt x="98" y="4" on="0"/>
        <pt x="64" y="38" on="0"/>
        <pt x="45" y="83" on="0"/>
      </contour>
      <contour>
        <pt x="559" y="110" on="1"/>
        <pt x="559" y="136" on="0"/>
        <pt x="578" y="182" on="0"/>
        <pt x="612" y="216" on="0"/>
        <pt x="657" y="236" on="0"/>
        <pt x="684" y="236" on="1"/>
        <pt x="710" y="236" on="0"/>
        <pt x="755" y="216" on="0"/>
        <pt x="789" y="182" on="0"/>
        <pt x="809" y="136" on="0"/>
        <pt x="809" y="110" on="1"/>
        <pt x="809" y="83" on="0"/>
        <pt x="789" y="38" on="0"/>
        <pt x="755" y="4" on="0"/>
        <pt x="710" y="-15" on="0"/>
        <pt x="684" y="-15" on="1"/>
        <pt x="657" y="-15" on="0"/>
        <pt x="612" y="4" on="0"/>
        <pt x="578" y="38" on="0"/>
        <pt x="559" y="83" on="0"/>
      </contour>
      <contour>
        <pt x="1074" y="110" on="1"/>
        <pt x="1074" y="136" on="0"/>
        <pt x="1093" y="182" on="0"/>
        <pt x="1126" y="216" on="0"/>
        <pt x="1172" y="236" on="0"/>
        <pt x="1198" y="236" on="1"/>
        <pt x="1224" y="236" on="0"/>
        <pt x="1270" y="216" on="0"/>
        <pt x="1304" y="182" on="0"/>
        <pt x="1324" y="136" on="0"/>
        <pt x="1324" y="110" on="1"/>
        <pt x="1324" y="83" on="0"/>
        <pt x="1304" y="38" on="0"/>
        <pt x="1270" y="4" on="0"/>
        <pt x="1224" y="-15" on="0"/>
        <pt x="1198" y="-15" on="1"/>
        <pt x="1172" y="-15" on="0"/>
        <pt x="1126" y="4" on="0"/>
        <pt x="1093" y="38" on="0"/>
        <pt x="1074" y="83" on="0"/>
      </contour>
    </TTGlyph>
    <TTGlyph name="emdash" xMin="150" yMin="527" xMax="1391" yMax="652">
      <contour>
        <pt x="165" y="652" on="1"/>
        <pt x="1391" y="652" on="1"/>
        <pt x="1375" y="527" on="1"/>
        <pt x="150" y="527" on="1"/>
      </contour>
    </TTGlyph>
    <TTGlyph name="endash" xMin="150" yMin="527" xMax="902" yMax="652">
      <contour>
        <pt x="165" y="652" on="1"/>
        <pt x="902" y="652" on="1"/>
        <pt x="887" y="527" on="1"/>
        <pt x="150" y="527" on="1"/>
      </contour>
    </TTGlyph>
    <TTGlyph name="eogonek" xMin="59" yMin="-342" xMax="881" yMax="1027">
      <contour>
        <pt x="585" y="-214" on="1"/>
        <pt x="598" y="-214" on="0"/>
        <pt x="601" y="-226" on="1"/>
        <pt x="619" y="-290" on="1"/>
        <pt x="589" y="-313" on="0"/>
        <pt x="500" y="-342" on="0"/>
        <pt x="452" y="-342" on="1"/>
        <pt x="376" y="-342" on="0"/>
        <pt x="294" y="-272" on="0"/>
        <pt x="294" y="-214" on="1"/>
        <pt x="294" y="-156" on="0"/>
        <pt x="367" y="-54" on="0"/>
        <pt x="424" y="-14" on="1"/>
        <pt x="339" y="-13" on="0"/>
        <pt x="204" y="47" on="0"/>
        <pt x="109" y="153" on="0"/>
        <pt x="59" y="304" on="0"/>
        <pt x="59" y="397" on="1"/>
        <pt x="59" y="475" on="0"/>
        <pt x="92" y="630" on="0"/>
        <pt x="155" y="770" on="0"/>
        <pt x="246" y="890" on="0"/>
        <pt x="363" y="977" on="0"/>
        <pt x="504" y="1027" on="0"/>
        <pt x="585" y="1027" on="1"/>
        <pt x="662" y="1027" on="0"/>
        <pt x="774" y="983" on="0"/>
        <pt x="846" y="915" on="0"/>
        <pt x="881" y="833" on="0"/>
        <pt x="881" y="796" on="1"/>
        <pt x="881" y="730" on="0"/>
        <pt x="827" y="619" on="0"/>
        <pt x="683" y="530" on="0"/>
        <pt x="431" y="464" on="0"/>
        <pt x="233" y="444" on="1"/>
        <pt x="232" y="433" on="0"/>
        <pt x="232" y="412" on="0"/>
        <pt x="232" y="401" on="1"/>
        <pt x="232" y="267" on="0"/>
        <pt x="349" y="126" on="0"/>
        <pt x="467" y="126" on="1"/>
        <pt x="515" y="126" on="0"/>
        <pt x="590" y="146" on="0"/>
        <pt x="649" y="175" on="0"/>
        <pt x="694" y="210" on="0"/>
        <pt x="732" y="239" on="0"/>
        <pt x="764" y="259" on="0"/>
        <pt x="780" y="259" on="1"/>
        <pt x="798" y="259" on="0"/>
        <pt x="813" y="242" on="1"/>
        <pt x="857" y="187" on="1"/>
        <pt x="780" y="107" on="0"/>
        <pt x="634" y="14" on="0"/>
        <pt x="550" y="-3" on="1"/>
        <pt x="529" y="-15" on="0"/>
        <pt x="486" y="-48" on="0"/>
        <pt x="450" y="-89" on="0"/>
        <pt x="427" y="-139" on="0"/>
        <pt x="427" y="-167" on="1"/>
        <pt x="427" y="-199" on="0"/>
        <pt x="467" y="-238" on="0"/>
        <pt x="499" y="-238" on="1"/>
        <pt x="520" y="-238" on="0"/>
        <pt x="549" y="-231" on="0"/>
        <pt x="569" y="-222" on="0"/>
        <pt x="580" y="-214" on="0"/>
      </contour>
      <contour>
        <pt x="575" y="899" on="1"/>
        <pt x="512" y="899" on="0"/>
        <pt x="406" y="847" on="0"/>
        <pt x="324" y="756" on="0"/>
        <pt x="266" y="633" on="0"/>
        <pt x="250" y="562" on="1"/>
        <pt x="404" y="581" on="0"/>
        <pt x="590" y="630" on="0"/>
        <pt x="690" y="687" on="0"/>
        <pt x="722" y="753" on="0"/>
        <pt x="722" y="789" on="1"/>
        <pt x="722" y="807" on="0"/>
        <pt x="706" y="846" on="0"/>
        <pt x="671" y="878" on="0"/>
        <pt x="615" y="899" on="0"/>
      </contour>
    </TTGlyph>
    <TTGlyph name="equal" xMin="141" yMin="442" xMax="1055" yMax="906">
      <contour>
        <pt x="157" y="573" on="1"/>
        <pt x="1015" y="573" on="1"/>
        <pt x="999" y="442" on="1"/>
        <pt x="141" y="442" on="1"/>
      </contour>
      <contour>
        <pt x="199" y="906" on="1"/>
        <pt x="1055" y="906" on="1"/>
        <pt x="1040" y="775" on="1"/>
        <pt x="183" y="775" on="1"/>
      </contour>
    </TTGlyph>
    <TTGlyph name="eth" xMin="60" yMin="-13" xMax="973" yMax="1412">
      <contour>
        <pt x="457" y="1065" on="1"/>
        <pt x="454" y="1070" on="0"/>
        <pt x="452" y="1079" on="0"/>
        <pt x="452" y="1084" on="1"/>
        <pt x="452" y="1103" on="0"/>
        <pt x="467" y="1112" on="1"/>
        <pt x="596" y="1206" on="1"/>
        <pt x="555" y="1230" on="0"/>
        <pt x="459" y="1267" on="0"/>
        <pt x="404" y="1284" on="1"/>
        <pt x="367" y="1295" on="0"/>
        <pt x="367" y="1325" on="1"/>
        <pt x="367" y="1338" on="0"/>
        <pt x="375" y="1357" on="1"/>
        <pt x="400" y="1412" on="1"/>
        <pt x="488" y="1396" on="0"/>
        <pt x="651" y="1332" on="0"/>
        <pt x="721" y="1281" on="1"/>
        <pt x="895" y="1405" on="1"/>
        <pt x="924" y="1348" on="1"/>
        <pt x="930" y="1339" on="0"/>
        <pt x="930" y="1327" on="1"/>
        <pt x="930" y="1311" on="0"/>
        <pt x="911" y="1297" on="1"/>
        <pt x="798" y="1214" on="1"/>
        <pt x="879" y="1130" on="0"/>
        <pt x="973" y="889" on="0"/>
        <pt x="973" y="724" on="1"/>
        <pt x="973" y="559" on="0"/>
        <pt x="903" y="288" on="0"/>
        <pt x="767" y="94" on="0"/>
        <pt x="567" y="-13" on="0"/>
        <pt x="437" y="-13" on="1"/>
        <pt x="355" y="-13" on="0"/>
        <pt x="217" y="44" on="0"/>
        <pt x="116" y="151" on="0"/>
        <pt x="60" y="302" on="0"/>
        <pt x="60" y="397" on="1"/>
        <pt x="60" y="505" on="0"/>
        <pt x="129" y="698" on="0"/>
        <pt x="254" y="842" on="0"/>
        <pt x="428" y="927" on="0"/>
        <pt x="533" y="927" on="1"/>
        <pt x="630" y="927" on="0"/>
        <pt x="786" y="836" on="0"/>
        <pt x="834" y="744" on="1"/>
        <pt x="832" y="880" on="0"/>
        <pt x="756" y="1077" on="0"/>
        <pt x="680" y="1146" on="1"/>
        <pt x="490" y="1008" on="1"/>
      </contour>
      <contour>
        <pt x="457" y="121" on="1"/>
        <pt x="522" y="121" on="0"/>
        <pt x="633" y="172" on="0"/>
        <pt x="721" y="280" on="0"/>
        <pt x="783" y="449" on="0"/>
        <pt x="799" y="567" on="1"/>
        <pt x="790" y="611" on="0"/>
        <pt x="752" y="692" on="0"/>
        <pt x="692" y="755" on="0"/>
        <pt x="607" y="793" on="0"/>
        <pt x="550" y="793" on="1"/>
        <pt x="475" y="793" on="0"/>
        <pt x="356" y="733" on="0"/>
        <pt x="274" y="628" on="0"/>
        <pt x="231" y="487" on="0"/>
        <pt x="231" y="406" on="1"/>
        <pt x="231" y="339" on="0"/>
        <pt x="265" y="233" on="0"/>
        <pt x="326" y="160" on="0"/>
        <pt x="409" y="121" on="0"/>
      </contour>
    </TTGlyph>
    <TTGlyph name="exclam" xMin="159" yMin="-15" xMax="518" yMax="1433">
      <contour>
        <pt x="518" y="1433" on="1"/>
        <pt x="448" y="859" on="1"/>
        <pt x="442" y="814" on="0"/>
        <pt x="428" y="729" on="0"/>
        <pt x="412" y="643" on="0"/>
        <pt x="392" y="551" on="0"/>
        <pt x="380" y="499" on="1"/>
        <pt x="263" y="499" on="1"/>
        <pt x="264" y="551" on="0"/>
        <pt x="267" y="643" on="0"/>
        <pt x="272" y="729" on="0"/>
        <pt x="279" y="814" on="0"/>
        <pt x="285" y="859" on="1"/>
        <pt x="355" y="1433" on="1"/>
      </contour>
      <contour>
        <pt x="159" y="110" on="1"/>
        <pt x="159" y="136" on="0"/>
        <pt x="178" y="182" on="0"/>
        <pt x="211" y="216" on="0"/>
        <pt x="256" y="236" on="0"/>
        <pt x="283" y="236" on="1"/>
        <pt x="309" y="236" on="0"/>
        <pt x="355" y="216" on="0"/>
        <pt x="389" y="182" on="0"/>
        <pt x="408" y="136" on="0"/>
        <pt x="408" y="110" on="1"/>
        <pt x="408" y="83" on="0"/>
        <pt x="389" y="38" on="0"/>
        <pt x="355" y="4" on="0"/>
        <pt x="309" y="-15" on="0"/>
        <pt x="283" y="-15" on="1"/>
        <pt x="256" y="-15" on="0"/>
        <pt x="211" y="4" on="0"/>
        <pt x="178" y="38" on="0"/>
        <pt x="159" y="83" on="0"/>
      </contour>
    </TTGlyph>
    <TTGlyph name="exclamdown" xMin="148" yMin="-344" xMax="493" yMax="1029">
      <contour>
        <pt x="148" y="-344" on="1"/>
        <pt x="215" y="198" on="1"/>
        <pt x="221" y="243" on="0"/>
        <pt x="234" y="328" on="0"/>
        <pt x="249" y="415" on="0"/>
        <pt x="267" y="507" on="0"/>
        <pt x="277" y="559" on="1"/>
        <pt x="381" y="559" on="1"/>
        <pt x="379" y="506" on="0"/>
        <pt x="374" y="414" on="0"/>
        <pt x="368" y="328" on="0"/>
        <pt x="361" y="243" on="0"/>
        <pt x="355" y="198" on="1"/>
        <pt x="289" y="-344" on="1"/>
      </contour>
      <contour>
        <pt x="243" y="903" on="1"/>
        <pt x="243" y="929" on="0"/>
        <pt x="262" y="975" on="0"/>
        <pt x="296" y="1009" on="0"/>
        <pt x="341" y="1029" on="0"/>
        <pt x="368" y="1029" on="1"/>
        <pt x="394" y="1029" on="0"/>
        <pt x="439" y="1009" on="0"/>
        <pt x="473" y="975" on="0"/>
        <pt x="493" y="929" on="0"/>
        <pt x="493" y="903" on="1"/>
        <pt x="493" y="876" on="0"/>
        <pt x="473" y="831" on="0"/>
        <pt x="439" y="797" on="0"/>
        <pt x="394" y="778" on="0"/>
        <pt x="368" y="778" on="1"/>
        <pt x="341" y="778" on="0"/>
        <pt x="296" y="797" on="0"/>
        <pt x="262" y="831" on="0"/>
        <pt x="243" y="876" on="0"/>
      </contour>
    </TTGlyph>
    <TTGlyph name="f" xMin="63" yMin="-249" xMax="716" yMax="1454">
      <contour>
        <pt x="374" y="865" on="1"/>
        <pt x="273" y="33" on="1"/>
        <pt x="227" y="-174" on="1"/>
        <pt x="210" y="-249" on="0"/>
        <pt x="135" y="-249" on="1"/>
        <pt x="65" y="-249" on="1"/>
        <pt x="200" y="862" on="1"/>
        <pt x="100" y="875" on="1"/>
        <pt x="83" y="880" on="0"/>
        <pt x="63" y="898" on="0"/>
        <pt x="63" y="915" on="1"/>
        <pt x="71" y="993" on="1"/>
        <pt x="216" y="993" on="1"/>
        <pt x="228" y="1091" on="1"/>
        <pt x="239" y="1178" on="0"/>
        <pt x="304" y="1313" on="0"/>
        <pt x="403" y="1406" on="0"/>
        <pt x="530" y="1454" on="0"/>
        <pt x="603" y="1454" on="1"/>
        <pt x="665" y="1454" on="0"/>
        <pt x="716" y="1434" on="1"/>
        <pt x="699" y="1342" on="1"/>
        <pt x="697" y="1328" on="0"/>
        <pt x="674" y="1321" on="0"/>
        <pt x="656" y="1321" on="1"/>
        <pt x="647" y="1321" on="0"/>
        <pt x="626" y="1322" on="0"/>
        <pt x="614" y="1322" on="1"/>
        <pt x="571" y="1322" on="0"/>
        <pt x="498" y="1297" on="0"/>
        <pt x="442" y="1241" on="0"/>
        <pt x="404" y="1151" on="0"/>
        <pt x="396" y="1086" on="1"/>
        <pt x="384" y="993" on="1"/>
        <pt x="637" y="993" on="1"/>
        <pt x="620" y="865" on="1"/>
      </contour>
    </TTGlyph>
    <TTGlyph name="fi" xMin="62" yMin="-250" xMax="951" yMax="1467">
      <contour>
        <pt x="951" y="993" on="1"/>
        <pt x="830" y="0" on="1"/>
        <pt x="654" y="0" on="1"/>
        <pt x="761" y="864" on="1"/>
        <pt x="374" y="864" on="1"/>
        <pt x="272" y="32" on="1"/>
        <pt x="226" y="-175" on="1"/>
        <pt x="209" y="-250" on="0"/>
        <pt x="134" y="-250" on="1"/>
        <pt x="64" y="-250" on="1"/>
        <pt x="201" y="862" on="1"/>
        <pt x="102" y="874" on="1"/>
        <pt x="62" y="879" on="0"/>
        <pt x="62" y="914" on="1"/>
        <pt x="69" y="993" on="1"/>
        <pt x="217" y="993" on="1"/>
        <pt x="224" y="1049" on="1"/>
        <pt x="235" y="1142" on="0"/>
        <pt x="308" y="1296" on="0"/>
        <pt x="430" y="1406" on="0"/>
        <pt x="598" y="1467" on="0"/>
        <pt x="705" y="1467" on="1"/>
        <pt x="723" y="1467" on="0"/>
        <pt x="762" y="1464" on="0"/>
        <pt x="801" y="1459" on="0"/>
        <pt x="836" y="1452" on="0"/>
        <pt x="849" y="1447" on="1"/>
        <pt x="832" y="1357" on="1"/>
        <pt x="829" y="1345" on="0"/>
        <pt x="808" y="1338" on="0"/>
        <pt x="791" y="1338" on="1"/>
        <pt x="780" y="1338" on="0"/>
        <pt x="754" y="1339" on="0"/>
        <pt x="738" y="1339" on="1"/>
        <pt x="655" y="1339" on="0"/>
        <pt x="533" y="1303" on="0"/>
        <pt x="448" y="1231" on="0"/>
        <pt x="399" y="1121" on="0"/>
        <pt x="390" y="1046" on="1"/>
        <pt x="384" y="993" on="1"/>
      </contour>
    </TTGlyph>
    <TTGlyph name="five" xMin="68" yMin="-16" xMax="1094" yMax="1433">
      <contour>
        <pt x="1084" y="1357" on="1"/>
        <pt x="1079" y="1321" on="0"/>
        <pt x="1028" y="1274" on="0"/>
        <pt x="973" y="1274" on="1"/>
        <pt x="518" y="1274" on="1"/>
        <pt x="403" y="889" on="1"/>
        <pt x="514" y="913" on="0"/>
        <pt x="606" y="913" on="1"/>
        <pt x="711" y="913" on="0"/>
        <pt x="868" y="856" on="0"/>
        <pt x="973" y="756" on="0"/>
        <pt x="1025" y="619" on="0"/>
        <pt x="1025" y="538" on="1"/>
        <pt x="1025" y="412" on="0"/>
        <pt x="932" y="207" on="0"/>
        <pt x="774" y="63" on="0"/>
        <pt x="563" y="-16" on="0"/>
        <pt x="446" y="-16" on="1"/>
        <pt x="383" y="-16" on="0"/>
        <pt x="271" y="8" on="0"/>
        <pt x="176" y="49" on="0"/>
        <pt x="98" y="103" on="0"/>
        <pt x="68" y="133" on="1"/>
        <pt x="129" y="207" on="1"/>
        <pt x="150" y="231" on="0"/>
        <pt x="178" y="231" on="1"/>
        <pt x="197" y="231" on="0"/>
        <pt x="244" y="200" on="0"/>
        <pt x="311" y="163" on="0"/>
        <pt x="406" y="132" on="0"/>
        <pt x="473" y="132" on="1"/>
        <pt x="556" y="132" on="0"/>
        <pt x="695" y="188" on="0"/>
        <pt x="795" y="289" on="0"/>
        <pt x="850" y="430" on="0"/>
        <pt x="850" y="516" on="1"/>
        <pt x="850" y="573" on="0"/>
        <pt x="814" y="666" on="0"/>
        <pt x="742" y="733" on="0"/>
        <pt x="632" y="769" on="0"/>
        <pt x="557" y="769" on="1"/>
        <pt x="507" y="769" on="0"/>
        <pt x="392" y="752" on="0"/>
        <pt x="324" y="734" on="1"/>
        <pt x="221" y="765" on="1"/>
        <pt x="418" y="1433" on="1"/>
        <pt x="1094" y="1433" on="1"/>
      </contour>
    </TTGlyph>
    <TTGlyph name="fl" xMin="62" yMin="-250" xMax="1041" yMax="1459">
      <contour>
        <pt x="375" y="865" on="1"/>
        <pt x="272" y="32" on="1"/>
        <pt x="226" y="-175" on="1"/>
        <pt x="209" y="-250" on="0"/>
        <pt x="134" y="-250" on="1"/>
        <pt x="64" y="-250" on="1"/>
        <pt x="200" y="862" on="1"/>
        <pt x="102" y="874" on="1"/>
        <pt x="62" y="879" on="0"/>
        <pt x="62" y="912" on="1"/>
        <pt x="70" y="993" on="1"/>
        <pt x="216" y="993" on="1"/>
        <pt x="223" y="1048" on="1"/>
        <pt x="233" y="1132" on="0"/>
        <pt x="299" y="1282" on="0"/>
        <pt x="409" y="1394" on="0"/>
        <pt x="561" y="1459" on="0"/>
        <pt x="658" y="1459" on="1"/>
        <pt x="729" y="1459" on="0"/>
        <pt x="869" y="1446" on="0"/>
        <pt x="922" y="1446" on="1"/>
        <pt x="1041" y="1446" on="1"/>
        <pt x="864" y="0" on="1"/>
        <pt x="691" y="0" on="1"/>
        <pt x="851" y="1316" on="1"/>
        <pt x="806" y="1320" on="0"/>
        <pt x="711" y="1330" on="0"/>
        <pt x="668" y="1330" on="1"/>
        <pt x="551" y="1330" on="0"/>
        <pt x="406" y="1183" on="0"/>
        <pt x="391" y="1048" on="1"/>
        <pt x="385" y="993" on="1"/>
        <pt x="623" y="993" on="1"/>
        <pt x="608" y="865" on="1"/>
      </contour>
    </TTGlyph>
    <TTGlyph name="florin" xMin="5" yMin="-353" xMax="1129" yMax="1453">
      <contour>
        <pt x="705" y="770" on="1"/>
        <pt x="526" y="35" on="1"/>
        <pt x="476" y="-168" on="0"/>
        <pt x="215" y="-353" on="0"/>
        <pt x="5" y="-353" on="1"/>
        <pt x="16" y="-262" on="1"/>
        <pt x="23" y="-207" on="0"/>
        <pt x="81" y="-207" on="1"/>
        <pt x="127" y="-206" on="0"/>
        <pt x="212" y="-180" on="0"/>
        <pt x="284" y="-122" on="0"/>
        <pt x="340" y="-28" on="0"/>
        <pt x="357" y="41" on="1"/>
        <pt x="534" y="765" on="1"/>
        <pt x="379" y="780" on="1"/>
        <pt x="361" y="782" on="0"/>
        <pt x="343" y="802" on="0"/>
        <pt x="343" y="817" on="1"/>
        <pt x="343" y="826" on="0"/>
        <pt x="346" y="852" on="0"/>
        <pt x="348" y="865" on="1"/>
        <pt x="350" y="879" on="0"/>
        <pt x="352" y="895" on="1"/>
        <pt x="566" y="895" on="1"/>
        <pt x="608" y="1065" on="1"/>
        <pt x="656" y="1262" on="0"/>
        <pt x="912" y="1453" on="0"/>
        <pt x="1129" y="1453" on="1"/>
        <pt x="1117" y="1358" on="1"/>
        <pt x="1114" y="1330" on="0"/>
        <pt x="1083" y="1307" on="0"/>
        <pt x="1053" y="1307" on="1"/>
        <pt x="1006" y="1307" on="0"/>
        <pt x="921" y="1281" on="0"/>
        <pt x="848" y="1222" on="0"/>
        <pt x="791" y="1128" on="0"/>
        <pt x="773" y="1059" on="1"/>
        <pt x="730" y="895" on="1"/>
        <pt x="1057" y="895" on="1"/>
        <pt x="1041" y="770" on="1"/>
      </contour>
    </TTGlyph>
    <TTGlyph name="four" xMin="45" yMin="0" xMax="1126" yMax="1433">
      <contour>
        <pt x="909" y="514" on="1"/>
        <pt x="1126" y="514" on="1"/>
        <pt x="1112" y="416" on="1"/>
        <pt x="1110" y="401" on="0"/>
        <pt x="1089" y="379" on="0"/>
        <pt x="1069" y="379" on="1"/>
        <pt x="892" y="379" on="1"/>
        <pt x="846" y="0" on="1"/>
        <pt x="690" y="0" on="1"/>
        <pt x="737" y="379" on="1"/>
        <pt x="107" y="379" on="1"/>
        <pt x="87" y="379" on="0"/>
        <pt x="53" y="401" on="0"/>
        <pt x="51" y="418" on="1"/>
        <pt x="45" y="505" on="1"/>
        <pt x="856" y="1433" on="1"/>
        <pt x="1022" y="1433" on="1"/>
      </contour>
      <contour>
        <pt x="828" y="1117" on="1"/>
        <pt x="830" y="1141" on="0"/>
        <pt x="842" y="1196" on="0"/>
        <pt x="850" y="1225" on="1"/>
        <pt x="235" y="514" on="1"/>
        <pt x="753" y="514" on="1"/>
      </contour>
    </TTGlyph>
    <TTGlyph name="fraction" xMin="-230" yMin="0" xMax="867" yMax="1431">
      <contour>
        <pt x="-63" y="53" on="1"/>
        <pt x="-84" y="21" on="0"/>
        <pt x="-131" y="0" on="0"/>
        <pt x="-160" y="0" on="1"/>
        <pt x="-230" y="0" on="1"/>
        <pt x="694" y="1371" on="1"/>
        <pt x="714" y="1400" on="0"/>
        <pt x="763" y="1431" on="0"/>
        <pt x="796" y="1431" on="1"/>
        <pt x="867" y="1431" on="1"/>
      </contour>
    </TTGlyph>
    <TTGlyph name="g" xMin="-66" yMin="-364" xMax="971" yMax="1028">
      <contour>
        <pt x="816" y="732" on="1"/>
        <pt x="815" y="682" on="0"/>
        <pt x="792" y="602" on="0"/>
        <pt x="758" y="534" on="0"/>
        <pt x="718" y="474" on="0"/>
        <pt x="684" y="414" on="0"/>
        <pt x="661" y="351" on="0"/>
        <pt x="661" y="314" on="1"/>
        <pt x="661" y="272" on="0"/>
        <pt x="702" y="204" on="0"/>
        <pt x="751" y="132" on="0"/>
        <pt x="792" y="47" on="0"/>
        <pt x="792" y="-11" on="1"/>
        <pt x="792" y="-82" on="0"/>
        <pt x="726" y="-209" on="0"/>
        <pt x="604" y="-307" on="0"/>
        <pt x="429" y="-364" on="0"/>
        <pt x="320" y="-364" on="1"/>
        <pt x="233" y="-364" on="0"/>
        <pt x="90" y="-328" on="0"/>
        <pt x="-11" y="-262" on="0"/>
        <pt x="-66" y="-169" on="0"/>
        <pt x="-66" y="-113" on="1"/>
        <pt x="-66" y="-34" on="0"/>
        <pt x="16" y="80" on="0"/>
        <pt x="150" y="154" on="0"/>
        <pt x="321" y="188" on="0"/>
        <pt x="410" y="188" on="1"/>
        <pt x="446" y="188" on="0"/>
        <pt x="517" y="182" on="0"/>
        <pt x="552" y="177" on="1"/>
        <pt x="543" y="196" on="0"/>
        <pt x="532" y="237" on="0"/>
        <pt x="532" y="261" on="1"/>
        <pt x="532" y="292" on="0"/>
        <pt x="551" y="358" on="0"/>
        <pt x="573" y="399" on="1"/>
        <pt x="535" y="373" on="0"/>
        <pt x="441" y="345" on="0"/>
        <pt x="381" y="345" on="1"/>
        <pt x="323" y="345" on="0"/>
        <pt x="222" y="383" on="0"/>
        <pt x="146" y="457" on="0"/>
        <pt x="102" y="568" on="0"/>
        <pt x="102" y="642" on="1"/>
        <pt x="102" y="714" on="0"/>
        <pt x="155" y="853" on="0"/>
        <pt x="257" y="962" on="0"/>
        <pt x="407" y="1028" on="0"/>
        <pt x="505" y="1028" on="1"/>
        <pt x="615" y="1028" on="0"/>
        <pt x="696" y="976" on="1"/>
        <pt x="971" y="976" on="1"/>
        <pt x="963" y="917" on="1"/>
        <pt x="961" y="900" on="0"/>
        <pt x="942" y="872" on="0"/>
        <pt x="923" y="869" on="1"/>
        <pt x="797" y="847" on="1"/>
        <pt x="806" y="821" on="0"/>
        <pt x="816" y="764" on="0"/>
      </contour>
      <contour>
        <pt x="430" y="457" on="1"/>
        <pt x="484" y="457" on="0"/>
        <pt x="566" y="504" on="0"/>
        <pt x="623" y="581" on="0"/>
        <pt x="653" y="677" on="0"/>
        <pt x="653" y="726" on="1"/>
        <pt x="653" y="814" on="0"/>
        <pt x="564" y="904" on="0"/>
        <pt x="486" y="904" on="1"/>
        <pt x="432" y="904" on="0"/>
        <pt x="350" y="860" on="0"/>
        <pt x="294" y="786" on="0"/>
        <pt x="265" y="692" on="0"/>
        <pt x="265" y="641" on="1"/>
        <pt x="265" y="551" on="0"/>
        <pt x="352" y="457" on="0"/>
      </contour>
      <contour>
        <pt x="630" y="-25" on="1"/>
        <pt x="630" y="1" on="0"/>
        <pt x="620" y="46" on="0"/>
        <pt x="612" y="66" on="1"/>
        <pt x="558" y="75" on="0"/>
        <pt x="463" y="83" on="0"/>
        <pt x="421" y="83" on="1"/>
        <pt x="339" y="83" on="0"/>
        <pt x="219" y="54" on="0"/>
        <pt x="141" y="6" on="0"/>
        <pt x="103" y="-57" on="0"/>
        <pt x="103" y="-91" on="1"/>
        <pt x="103" y="-163" on="0"/>
        <pt x="224" y="-239" on="0"/>
        <pt x="335" y="-239" on="1"/>
        <pt x="401" y="-239" on="0"/>
        <pt x="510" y="-204" on="0"/>
        <pt x="587" y="-146" on="0"/>
        <pt x="630" y="-68" on="0"/>
      </contour>
    </TTGlyph>
    <TTGlyph name="germandbls" xMin="51" yMin="-249" xMax="1062" yMax="1453">
      <contour>
        <pt x="728" y="1453" on="1"/>
        <pt x="817" y="1453" on="0"/>
        <pt x="943" y="1399" on="0"/>
        <pt x="1024" y="1316" on="0"/>
        <pt x="1062" y="1215" on="0"/>
        <pt x="1062" y="1168" on="1"/>
        <pt x="1062" y="1100" on="0"/>
        <pt x="1015" y="1004" on="0"/>
        <pt x="945" y="932" on="0"/>
        <pt x="864" y="878" on="0"/>
        <pt x="794" y="827" on="0"/>
        <pt x="747" y="771" on="0"/>
        <pt x="747" y="733" on="1"/>
        <pt x="747" y="698" on="0"/>
        <pt x="790" y="651" on="0"/>
        <pt x="854" y="610" on="0"/>
        <pt x="929" y="567" on="0"/>
        <pt x="993" y="506" on="0"/>
        <pt x="1036" y="418" on="0"/>
        <pt x="1036" y="353" on="1"/>
        <pt x="1036" y="267" on="0"/>
        <pt x="974" y="130" on="0"/>
        <pt x="869" y="35" on="0"/>
        <pt x="729" y="-16" on="0"/>
        <pt x="650" y="-16" on="1"/>
        <pt x="561" y="-16" on="0"/>
        <pt x="423" y="53" on="0"/>
        <pt x="374" y="107" on="1"/>
        <pt x="422" y="173" on="1"/>
        <pt x="431" y="185" on="0"/>
        <pt x="454" y="199" on="0"/>
        <pt x="471" y="199" on="1"/>
        <pt x="488" y="199" on="0"/>
        <pt x="522" y="170" on="0"/>
        <pt x="567" y="136" on="0"/>
        <pt x="631" y="107" on="0"/>
        <pt x="679" y="107" on="1"/>
        <pt x="721" y="107" on="0"/>
        <pt x="792" y="138" on="0"/>
        <pt x="843" y="192" on="0"/>
        <pt x="872" y="265" on="0"/>
        <pt x="872" y="307" on="1"/>
        <pt x="872" y="355" on="0"/>
        <pt x="826" y="418" on="0"/>
        <pt x="758" y="464" on="0"/>
        <pt x="677" y="504" on="0"/>
        <pt x="609" y="556" on="0"/>
        <pt x="563" y="628" on="0"/>
        <pt x="563" y="684" on="1"/>
        <pt x="563" y="746" on="0"/>
        <pt x="612" y="834" on="0"/>
        <pt x="686" y="903" on="0"/>
        <pt x="773" y="961" on="0"/>
        <pt x="847" y="1025" on="0"/>
        <pt x="896" y="1105" on="0"/>
        <pt x="896" y="1161" on="1"/>
        <pt x="896" y="1189" on="0"/>
        <pt x="875" y="1248" on="0"/>
        <pt x="830" y="1296" on="0"/>
        <pt x="757" y="1326" on="0"/>
        <pt x="705" y="1326" on="1"/>
        <pt x="643" y="1326" on="0"/>
        <pt x="534" y="1259" on="0"/>
        <pt x="449" y="1143" on="0"/>
        <pt x="391" y="990" on="0"/>
        <pt x="381" y="905" on="1"/>
        <pt x="273" y="33" on="1"/>
        <pt x="227" y="-174" on="1"/>
        <pt x="210" y="-249" on="0"/>
        <pt x="135" y="-249" on="1"/>
        <pt x="65" y="-249" on="1"/>
        <pt x="201" y="862" on="1"/>
        <pt x="91" y="876" on="1"/>
        <pt x="51" y="881" on="0"/>
        <pt x="51" y="914" on="1"/>
        <pt x="59" y="991" on="1"/>
        <pt x="222" y="991" on="1"/>
        <pt x="245" y="1083" on="0"/>
        <pt x="339" y="1250" on="0"/>
        <pt x="471" y="1378" on="0"/>
        <pt x="635" y="1453" on="0"/>
      </contour>
    </TTGlyph>
    <TTGlyph name="grave" xMin="77" yMin="1163" xMax="416" yMax="1447">
      <contour>
        <pt x="240" y="1447" on="1"/>
        <pt x="271" y="1447" on="0"/>
        <pt x="299" y="1427" on="0"/>
        <pt x="309" y="1405" on="1"/>
        <pt x="416" y="1163" on="1"/>
        <pt x="317" y="1163" on="1"/>
        <pt x="297" y="1163" on="0"/>
        <pt x="273" y="1175" on="0"/>
        <pt x="262" y="1190" on="1"/>
        <pt x="77" y="1447" on="1"/>
      </contour>
    </TTGlyph>
    <TTGlyph name="grave.case" xMin="85" yMin="1546" xMax="521" yMax="1781">
      <contour>
        <pt x="279" y="1781" on="1"/>
        <pt x="310" y="1781" on="0"/>
        <pt x="338" y="1768" on="0"/>
        <pt x="354" y="1749" on="1"/>
        <pt x="521" y="1546" on="1"/>
        <pt x="377" y="1546" on="1"/>
        <pt x="357" y="1546" on="0"/>
        <pt x="335" y="1559" on="0"/>
        <pt x="320" y="1571" on="1"/>
        <pt x="85" y="1781" on="1"/>
      </contour>
    </TTGlyph>
    <TTGlyph name="greater" xMin="125" yMin="235" xMax="956" yMax="1112">
      <contour>
        <pt x="947" y="636" on="1"/>
        <pt x="125" y="235" on="1"/>
        <pt x="141" y="362" on="1"/>
        <pt x="143" y="379" on="0"/>
        <pt x="163" y="404" on="0"/>
        <pt x="183" y="414" on="1"/>
        <pt x="660" y="642" on="1"/>
        <pt x="681" y="653" on="0"/>
        <pt x="728" y="668" on="0"/>
        <pt x="754" y="674" on="1"/>
        <pt x="730" y="679" on="0"/>
        <pt x="687" y="695" on="0"/>
        <pt x="668" y="705" on="1"/>
        <pt x="246" y="932" on="1"/>
        <pt x="231" y="940" on="0"/>
        <pt x="216" y="963" on="0"/>
        <pt x="216" y="974" on="1"/>
        <pt x="216" y="975" on="0"/>
        <pt x="219" y="1001" on="0"/>
        <pt x="224" y="1040" on="0"/>
        <pt x="230" y="1088" on="0"/>
        <pt x="233" y="1112" on="1"/>
        <pt x="956" y="710" on="1"/>
      </contour>
    </TTGlyph>
    <TTGlyph name="greaterequal" xMin="105" yMin="80" xMax="966" yMax="1170">
      <contour>
        <pt x="878" y="80" on="1"/>
        <pt x="105" y="80" on="1"/>
        <pt x="122" y="215" on="1"/>
        <pt x="895" y="215" on="1"/>
      </contour>
      <contour>
        <pt x="957" y="717" on="1"/>
        <pt x="138" y="340" on="1"/>
        <pt x="153" y="462" on="1"/>
        <pt x="155" y="478" on="0"/>
        <pt x="177" y="505" on="0"/>
        <pt x="203" y="517" on="1"/>
        <pt x="670" y="724" on="1"/>
        <pt x="693" y="734" on="0"/>
        <pt x="743" y="748" on="0"/>
        <pt x="770" y="754" on="1"/>
        <pt x="744" y="759" on="0"/>
        <pt x="697" y="773" on="0"/>
        <pt x="677" y="784" on="1"/>
        <pt x="262" y="993" on="1"/>
        <pt x="241" y="1004" on="0"/>
        <pt x="224" y="1026" on="0"/>
        <pt x="224" y="1040" on="1"/>
        <pt x="224" y="1042" on="0"/>
        <pt x="225" y="1046" on="0"/>
        <pt x="225" y="1048" on="1"/>
        <pt x="240" y="1170" on="1"/>
        <pt x="966" y="791" on="1"/>
      </contour>
    </TTGlyph>
    <TTGlyph name="guillemotleft" xMin="133" yMin="129" xMax="765" yMax="928">
      <contour>
        <pt x="133" y="518" on="1"/>
        <pt x="136" y="540" on="1"/>
        <pt x="414" y="928" on="1"/>
        <pt x="466" y="901" on="1"/>
        <pt x="489" y="889" on="0"/>
        <pt x="489" y="867" on="1"/>
        <pt x="489" y="847" on="0"/>
        <pt x="474" y="828" on="1"/>
        <pt x="299" y="565" on="1"/>
        <pt x="283" y="540" on="0"/>
        <pt x="267" y="529" on="1"/>
        <pt x="277" y="519" on="0"/>
        <pt x="290" y="493" on="1"/>
        <pt x="401" y="230" on="1"/>
        <pt x="407" y="216" on="0"/>
        <pt x="407" y="203" on="1"/>
        <pt x="407" y="171" on="0"/>
        <pt x="375" y="156" on="1"/>
        <pt x="316" y="129" on="1"/>
      </contour>
      <contour>
        <pt x="409" y="518" on="1"/>
        <pt x="412" y="540" on="1"/>
        <pt x="690" y="928" on="1"/>
        <pt x="742" y="901" on="1"/>
        <pt x="765" y="889" on="0"/>
        <pt x="765" y="867" on="1"/>
        <pt x="765" y="847" on="0"/>
        <pt x="750" y="828" on="1"/>
        <pt x="575" y="565" on="1"/>
        <pt x="559" y="540" on="0"/>
        <pt x="543" y="529" on="1"/>
        <pt x="553" y="519" on="0"/>
        <pt x="566" y="493" on="1"/>
        <pt x="677" y="230" on="1"/>
        <pt x="683" y="216" on="0"/>
        <pt x="683" y="203" on="1"/>
        <pt x="683" y="171" on="0"/>
        <pt x="651" y="156" on="1"/>
        <pt x="592" y="129" on="1"/>
      </contour>
    </TTGlyph>
    <TTGlyph name="guillemotright" xMin="119" yMin="129" xMax="750" yMax="928">
      <contour>
        <pt x="474" y="540" on="1"/>
        <pt x="472" y="518" on="1"/>
        <pt x="195" y="129" on="1"/>
        <pt x="142" y="156" on="1"/>
        <pt x="119" y="167" on="0"/>
        <pt x="119" y="191" on="1"/>
        <pt x="119" y="207" on="0"/>
        <pt x="132" y="230" on="1"/>
        <pt x="310" y="493" on="1"/>
        <pt x="326" y="517" on="0"/>
        <pt x="340" y="528" on="1"/>
        <pt x="327" y="540" on="0"/>
        <pt x="318" y="565" on="1"/>
        <pt x="206" y="828" on="1"/>
        <pt x="200" y="841" on="0"/>
        <pt x="200" y="854" on="1"/>
        <pt x="200" y="886" on="0"/>
        <pt x="233" y="901" on="1"/>
        <pt x="292" y="928" on="1"/>
      </contour>
      <contour>
        <pt x="750" y="540" on="1"/>
        <pt x="748" y="518" on="1"/>
        <pt x="471" y="129" on="1"/>
        <pt x="418" y="156" on="1"/>
        <pt x="395" y="167" on="0"/>
        <pt x="395" y="191" on="1"/>
        <pt x="395" y="207" on="0"/>
        <pt x="408" y="230" on="1"/>
        <pt x="586" y="493" on="1"/>
        <pt x="602" y="517" on="0"/>
        <pt x="616" y="528" on="1"/>
        <pt x="603" y="540" on="0"/>
        <pt x="594" y="565" on="1"/>
        <pt x="482" y="828" on="1"/>
        <pt x="476" y="841" on="0"/>
        <pt x="476" y="854" on="1"/>
        <pt x="476" y="886" on="0"/>
        <pt x="509" y="901" on="1"/>
        <pt x="568" y="928" on="1"/>
      </contour>
    </TTGlyph>
    <TTGlyph name="guilsinglleft" xMin="133" yMin="129" xMax="489" yMax="928">
      <contour>
        <pt x="133" y="518" on="1"/>
        <pt x="136" y="540" on="1"/>
        <pt x="414" y="928" on="1"/>
        <pt x="466" y="901" on="1"/>
        <pt x="489" y="889" on="0"/>
        <pt x="489" y="867" on="1"/>
        <pt x="489" y="847" on="0"/>
        <pt x="474" y="828" on="1"/>
        <pt x="299" y="565" on="1"/>
        <pt x="283" y="540" on="0"/>
        <pt x="267" y="529" on="1"/>
        <pt x="277" y="519" on="0"/>
        <pt x="290" y="493" on="1"/>
        <pt x="401" y="230" on="1"/>
        <pt x="407" y="216" on="0"/>
        <pt x="407" y="203" on="1"/>
        <pt x="407" y="171" on="0"/>
        <pt x="375" y="156" on="1"/>
        <pt x="316" y="129" on="1"/>
      </contour>
    </TTGlyph>
    <TTGlyph name="guilsinglright" xMin="119" yMin="129" xMax="474" yMax="928">
      <contour>
        <pt x="474" y="540" on="1"/>
        <pt x="472" y="518" on="1"/>
        <pt x="195" y="129" on="1"/>
        <pt x="142" y="156" on="1"/>
        <pt x="119" y="167" on="0"/>
        <pt x="119" y="191" on="1"/>
        <pt x="119" y="207" on="0"/>
        <pt x="132" y="230" on="1"/>
        <pt x="310" y="493" on="1"/>
        <pt x="326" y="517" on="0"/>
        <pt x="340" y="528" on="1"/>
        <pt x="327" y="540" on="0"/>
        <pt x="318" y="565" on="1"/>
        <pt x="206" y="828" on="1"/>
        <pt x="200" y="841" on="0"/>
        <pt x="200" y="854" on="1"/>
        <pt x="200" y="886" on="0"/>
        <pt x="233" y="901" on="1"/>
        <pt x="292" y="928" on="1"/>
      </contour>
    </TTGlyph>
    <TTGlyph name="h" xMin="79" yMin="0" xMax="964" yMax="1473">
      <contour>
        <pt x="79" y="0" on="1"/>
        <pt x="257" y="1473" on="1"/>
        <pt x="435" y="1473" on="1"/>
        <pt x="352" y="789" on="1"/>
        <pt x="431" y="907" on="0"/>
        <pt x="624" y="1028" on="0"/>
        <pt x="725" y="1028" on="1"/>
        <pt x="840" y="1028" on="0"/>
        <pt x="964" y="876" on="0"/>
        <pt x="964" y="731" on="1"/>
        <pt x="964" y="711" on="0"/>
        <pt x="962" y="668" on="0"/>
        <pt x="959" y="645" on="1"/>
        <pt x="883" y="0" on="1"/>
        <pt x="705" y="0" on="1"/>
        <pt x="781" y="645" on="1"/>
        <pt x="783" y="665" on="0"/>
        <pt x="786" y="702" on="0"/>
        <pt x="786" y="719" on="1"/>
        <pt x="786" y="801" on="0"/>
        <pt x="725" y="881" on="0"/>
        <pt x="659" y="881" on="1"/>
        <pt x="614" y="881" on="0"/>
        <pt x="519" y="832" on="0"/>
        <pt x="429" y="742" on="0"/>
        <pt x="351" y="615" on="0"/>
        <pt x="322" y="537" on="1"/>
        <pt x="257" y="0" on="1"/>
      </contour>
    </TTGlyph>
    <TTGlyph name="hungarumlaut" xMin="167" yMin="1163" xMax="809" yMax="1447">
      <contour>
        <pt x="516" y="1447" on="1"/>
        <pt x="302" y="1190" on="1"/>
        <pt x="288" y="1174" on="0"/>
        <pt x="259" y="1163" on="0"/>
        <pt x="239" y="1163" on="1"/>
        <pt x="167" y="1163" on="1"/>
        <pt x="323" y="1405" on="1"/>
        <pt x="337" y="1427" on="0"/>
        <pt x="371" y="1447" on="0"/>
        <pt x="402" y="1447" on="1"/>
      </contour>
      <contour>
        <pt x="809" y="1447" on="1"/>
        <pt x="553" y="1190" on="1"/>
        <pt x="539" y="1175" on="0"/>
        <pt x="511" y="1163" on="0"/>
        <pt x="491" y="1163" on="1"/>
        <pt x="408" y="1163" on="1"/>
        <pt x="603" y="1405" on="1"/>
        <pt x="620" y="1425" on="0"/>
        <pt x="652" y="1447" on="0"/>
        <pt x="683" y="1447" on="1"/>
      </contour>
    </TTGlyph>
    <TTGlyph name="hungarumlaut.case" xMin="200" yMin="1546" xMax="866" yMax="1771">
      <contour>
        <pt x="552" y="1771" on="1"/>
        <pt x="344" y="1572" on="1"/>
        <pt x="330" y="1558" on="0"/>
        <pt x="303" y="1546" on="0"/>
        <pt x="283" y="1546" on="1"/>
        <pt x="200" y="1546" on="1"/>
        <pt x="352" y="1727" on="1"/>
        <pt x="369" y="1747" on="0"/>
        <pt x="408" y="1771" on="0"/>
        <pt x="439" y="1771" on="1"/>
      </contour>
      <contour>
        <pt x="866" y="1771" on="1"/>
        <pt x="617" y="1572" on="1"/>
        <pt x="600" y="1559" on="0"/>
        <pt x="570" y="1546" on="0"/>
        <pt x="550" y="1546" on="1"/>
        <pt x="457" y="1546" on="1"/>
        <pt x="644" y="1727" on="1"/>
        <pt x="664" y="1747" on="0"/>
        <pt x="705" y="1771" on="0"/>
        <pt x="735" y="1771" on="1"/>
      </contour>
    </TTGlyph>
    <TTGlyph name="hyphen" xMin="97" yMin="526" xMax="572" yMax="672">
      <contour>
        <pt x="115" y="672" on="1"/>
        <pt x="572" y="672" on="1"/>
        <pt x="553" y="526" on="1"/>
        <pt x="97" y="526" on="1"/>
      </contour>
    </TTGlyph>
    <TTGlyph name="i" xMin="95" yMin="0" xMax="459" yMax="1459">
      <contour>
        <pt x="392" y="1013" on="1"/>
        <pt x="270" y="0" on="1"/>
        <pt x="95" y="0" on="1"/>
        <pt x="217" y="1013" on="1"/>
      </contour>
      <contour>
        <pt x="459" y="1331" on="1"/>
        <pt x="459" y="1305" on="0"/>
        <pt x="438" y="1260" on="0"/>
        <pt x="403" y="1225" on="0"/>
        <pt x="359" y="1205" on="0"/>
        <pt x="335" y="1205" on="1"/>
        <pt x="312" y="1205" on="0"/>
        <pt x="268" y="1225" on="0"/>
        <pt x="235" y="1260" on="0"/>
        <pt x="215" y="1305" on="0"/>
        <pt x="215" y="1331" on="1"/>
        <pt x="215" y="1357" on="0"/>
        <pt x="235" y="1403" on="0"/>
        <pt x="269" y="1438" on="0"/>
        <pt x="313" y="1459" on="0"/>
        <pt x="336" y="1459" on="1"/>
        <pt x="360" y="1459" on="0"/>
        <pt x="404" y="1439" on="0"/>
        <pt x="439" y="1404" on="0"/>
        <pt x="459" y="1357" on="0"/>
      </contour>
    </TTGlyph>
    <TTGlyph name="iacute" xMin="95" yMin="0" xMax="629" yMax="1447">
      <component glyphName="dotlessi" x="0" y="0" flags="0x204"/>
      <component glyphName="acute" x="-47" y="0" flags="0x4"/>
    </TTGlyph>
    <TTGlyph name="icircumflex" xMin="34" yMin="0" xMax="606" yMax="1431">
      <component glyphName="dotlessi" x="0" y="0" flags="0x204"/>
      <component glyphName="circumflex" x="-47" y="0" flags="0x4"/>
    </TTGlyph>
    <TTGlyph name="idieresis" xMin="47" yMin="0" xMax="631" yMax="1425">
      <component glyphName="dotlessi" x="0" y="0" flags="0x204"/>
      <component glyphName="dieresis" x="-47" y="0" flags="0x4"/>
    </TTGlyph>
    <TTGlyph name="igrave" xMin="61" yMin="0" xMax="400" yMax="1447">
      <component glyphName="dotlessi" x="0" y="0" flags="0x204"/>
      <component glyphName="grave" x="-16" y="0" flags="0x4"/>
    </TTGlyph>
    <TTGlyph name="infinity" xMin="61" yMin="254" xMax="1226" yMax="928">
      <contour>
        <pt x="891" y="254" on="1"/>
        <pt x="840" y="254" on="0"/>
        <pt x="760" y="287" on="0"/>
        <pt x="697" y="343" on="0"/>
        <pt x="648" y="418" on="0"/>
        <pt x="627" y="459" on="1"/>
        <pt x="596" y="418" on="0"/>
        <pt x="528" y="343" on="0"/>
        <pt x="450" y="287" on="0"/>
        <pt x="362" y="254" on="0"/>
        <pt x="311" y="254" on="1"/>
        <pt x="258" y="254" on="0"/>
        <pt x="167" y="294" on="0"/>
        <pt x="100" y="369" on="0"/>
        <pt x="61" y="473" on="0"/>
        <pt x="61" y="538" on="1"/>
        <pt x="61" y="620" on="0"/>
        <pt x="116" y="762" on="0"/>
        <pt x="208" y="867" on="0"/>
        <pt x="328" y="928" on="0"/>
        <pt x="394" y="928" on="1"/>
        <pt x="445" y="928" on="0"/>
        <pt x="524" y="895" on="0"/>
        <pt x="588" y="838" on="0"/>
        <pt x="638" y="763" on="0"/>
        <pt x="659" y="722" on="1"/>
        <pt x="690" y="763" on="0"/>
        <pt x="758" y="838" on="0"/>
        <pt x="835" y="895" on="0"/>
        <pt x="923" y="928" on="0"/>
        <pt x="974" y="928" on="1"/>
        <pt x="1027" y="928" on="0"/>
        <pt x="1119" y="888" on="0"/>
        <pt x="1187" y="813" on="0"/>
        <pt x="1226" y="708" on="0"/>
        <pt x="1226" y="643" on="1"/>
        <pt x="1226" y="561" on="0"/>
        <pt x="1171" y="419" on="0"/>
        <pt x="1078" y="314" on="0"/>
        <pt x="957" y="254" on="0"/>
      </contour>
      <contour>
        <pt x="336" y="400" on="1"/>
        <pt x="369" y="400" on="0"/>
        <pt x="429" y="430" on="0"/>
        <pt x="485" y="483" on="0"/>
        <pt x="539" y="552" on="0"/>
        <pt x="566" y="591" on="1"/>
        <pt x="548" y="630" on="0"/>
        <pt x="512" y="699" on="0"/>
        <pt x="468" y="751" on="0"/>
        <pt x="416" y="782" on="0"/>
        <pt x="383" y="782" on="1"/>
        <pt x="345" y="782" on="0"/>
        <pt x="280" y="749" on="0"/>
        <pt x="231" y="689" on="0"/>
        <pt x="203" y="605" on="0"/>
        <pt x="203" y="553" on="1"/>
        <pt x="203" y="515" on="0"/>
        <pt x="223" y="457" on="0"/>
        <pt x="259" y="419" on="0"/>
        <pt x="308" y="400" on="0"/>
      </contour>
      <contour>
        <pt x="903" y="400" on="1"/>
        <pt x="940" y="400" on="0"/>
        <pt x="1006" y="433" on="0"/>
        <pt x="1055" y="493" on="0"/>
        <pt x="1083" y="577" on="0"/>
        <pt x="1083" y="629" on="1"/>
        <pt x="1083" y="668" on="0"/>
        <pt x="1062" y="725" on="0"/>
        <pt x="1026" y="763" on="0"/>
        <pt x="977" y="782" on="0"/>
        <pt x="949" y="782" on="1"/>
        <pt x="916" y="782" on="0"/>
        <pt x="857" y="751" on="0"/>
        <pt x="801" y="699" on="0"/>
        <pt x="747" y="630" on="0"/>
        <pt x="720" y="591" on="1"/>
        <pt x="738" y="552" on="0"/>
        <pt x="775" y="483" on="0"/>
        <pt x="818" y="430" on="0"/>
        <pt x="870" y="400" on="0"/>
      </contour>
    </TTGlyph>
    <TTGlyph name="integral" xMin="-133" yMin="-350" xMax="968" yMax="1449">
      <contour>
        <pt x="474" y="1091" on="1"/>
        <pt x="515" y="1265" on="0"/>
        <pt x="703" y="1449" on="0"/>
        <pt x="840" y="1449" on="1"/>
        <pt x="875" y="1449" on="0"/>
        <pt x="940" y="1435" on="0"/>
        <pt x="968" y="1419" on="1"/>
        <pt x="949" y="1332" on="1"/>
        <pt x="944" y="1314" on="0"/>
        <pt x="914" y="1295" on="0"/>
        <pt x="872" y="1295" on="1"/>
        <pt x="780" y="1295" on="0"/>
        <pt x="670" y="1185" on="0"/>
        <pt x="642" y="1068" on="1"/>
        <pt x="395" y="38" on="1"/>
        <pt x="371" y="-64" on="0"/>
        <pt x="292" y="-210" on="0"/>
        <pt x="189" y="-305" on="0"/>
        <pt x="64" y="-350" on="0"/>
        <pt x="-6" y="-350" on="1"/>
        <pt x="-38" y="-350" on="0"/>
        <pt x="-106" y="-337" on="0"/>
        <pt x="-133" y="-321" on="1"/>
        <pt x="-113" y="-245" on="1"/>
        <pt x="-110" y="-233" on="0"/>
        <pt x="-100" y="-220" on="0"/>
        <pt x="-82" y="-214" on="0"/>
        <pt x="-53" y="-213" on="0"/>
        <pt x="-30" y="-213" on="1"/>
        <pt x="24" y="-213" on="0"/>
        <pt x="105" y="-186" on="0"/>
        <pt x="166" y="-128" on="0"/>
        <pt x="210" y="-34" on="0"/>
        <pt x="226" y="32" on="1"/>
      </contour>
    </TTGlyph>
    <TTGlyph name="j" xMin="-153" yMin="-364" xMax="454" yMax="1459">
      <contour>
        <pt x="391" y="1013" on="1"/>
        <pt x="257" y="-75" on="1"/>
        <pt x="249" y="-136" on="0"/>
        <pt x="204" y="-241" on="0"/>
        <pt x="128" y="-319" on="0"/>
        <pt x="23" y="-364" on="0"/>
        <pt x="-44" y="-364" on="1"/>
        <pt x="-79" y="-364" on="0"/>
        <pt x="-129" y="-354" on="0"/>
        <pt x="-153" y="-344" on="1"/>
        <pt x="-135" y="-248" on="1"/>
        <pt x="-130" y="-235" on="0"/>
        <pt x="-116" y="-228" on="0"/>
        <pt x="-102" y="-228" on="1"/>
        <pt x="-95" y="-228" on="0"/>
        <pt x="-78" y="-229" on="0"/>
        <pt x="-67" y="-229" on="1"/>
        <pt x="4" y="-229" on="0"/>
        <pt x="73" y="-156" on="0"/>
        <pt x="83" y="-75" on="1"/>
        <pt x="216" y="1013" on="1"/>
      </contour>
      <contour>
        <pt x="454" y="1331" on="1"/>
        <pt x="454" y="1305" on="0"/>
        <pt x="433" y="1260" on="0"/>
        <pt x="398" y="1225" on="0"/>
        <pt x="353" y="1205" on="0"/>
        <pt x="330" y="1205" on="1"/>
        <pt x="306" y="1205" on="0"/>
        <pt x="263" y="1225" on="0"/>
        <pt x="230" y="1260" on="0"/>
        <pt x="210" y="1305" on="0"/>
        <pt x="210" y="1331" on="1"/>
        <pt x="210" y="1357" on="0"/>
        <pt x="230" y="1403" on="0"/>
        <pt x="264" y="1438" on="0"/>
        <pt x="307" y="1459" on="0"/>
        <pt x="331" y="1459" on="1"/>
        <pt x="355" y="1459" on="0"/>
        <pt x="399" y="1439" on="0"/>
        <pt x="434" y="1404" on="0"/>
        <pt x="454" y="1357" on="0"/>
      </contour>
    </TTGlyph>
    <TTGlyph name="k" xMin="78" yMin="0" xMax="983" yMax="1473">
      <contour>
        <pt x="434" y="1473" on="1"/>
        <pt x="328" y="606" on="1"/>
        <pt x="359" y="606" on="1"/>
        <pt x="379" y="606" on="0"/>
        <pt x="405" y="617" on="0"/>
        <pt x="421" y="634" on="1"/>
        <pt x="756" y="977" on="1"/>
        <pt x="772" y="993" on="0"/>
        <pt x="802" y="1013" on="0"/>
        <pt x="826" y="1013" on="1"/>
        <pt x="983" y="1013" on="1"/>
        <pt x="592" y="616" on="1"/>
        <pt x="577" y="600" on="0"/>
        <pt x="548" y="573" on="0"/>
        <pt x="531" y="563" on="1"/>
        <pt x="547" y="551" on="0"/>
        <pt x="569" y="519" on="0"/>
        <pt x="580" y="500" on="1"/>
        <pt x="884" y="0" on="1"/>
        <pt x="731" y="0" on="1"/>
        <pt x="709" y="0" on="0"/>
        <pt x="682" y="16" on="0"/>
        <pt x="671" y="35" on="1"/>
        <pt x="413" y="450" on="1"/>
        <pt x="400" y="470" on="0"/>
        <pt x="375" y="484" on="0"/>
        <pt x="347" y="484" on="1"/>
        <pt x="313" y="484" on="1"/>
        <pt x="254" y="0" on="1"/>
        <pt x="78" y="0" on="1"/>
        <pt x="259" y="1473" on="1"/>
      </contour>
    </TTGlyph>
    <TTGlyph name="l" xMin="88" yMin="0" xMax="442" yMax="1473">
      <contour>
        <pt x="88" y="0" on="1"/>
        <pt x="267" y="1473" on="1"/>
        <pt x="442" y="1473" on="1"/>
        <pt x="263" y="0" on="1"/>
      </contour>
    </TTGlyph>
    <TTGlyph name="less" xMin="159" yMin="234" xMax="990" yMax="1111">
      <contour>
        <pt x="168" y="710" on="1"/>
        <pt x="990" y="1111" on="1"/>
        <pt x="974" y="984" on="1"/>
        <pt x="972" y="967" on="0"/>
        <pt x="952" y="942" on="0"/>
        <pt x="932" y="932" on="1"/>
        <pt x="455" y="704" on="1"/>
        <pt x="434" y="693" on="0"/>
        <pt x="387" y="678" on="0"/>
        <pt x="361" y="672" on="1"/>
        <pt x="385" y="667" on="0"/>
        <pt x="428" y="651" on="0"/>
        <pt x="447" y="641" on="1"/>
        <pt x="869" y="414" on="1"/>
        <pt x="884" y="406" on="0"/>
        <pt x="899" y="383" on="0"/>
        <pt x="899" y="372" on="1"/>
        <pt x="899" y="371" on="0"/>
        <pt x="896" y="345" on="0"/>
        <pt x="891" y="306" on="0"/>
        <pt x="885" y="258" on="0"/>
        <pt x="882" y="234" on="1"/>
        <pt x="159" y="636" on="1"/>
      </contour>
    </TTGlyph>
    <TTGlyph name="lessequal" xMin="90" yMin="80" xMax="997" yMax="1168">
      <contour>
        <pt x="178" y="791" on="1"/>
        <pt x="997" y="1168" on="1"/>
        <pt x="982" y="1046" on="1"/>
        <pt x="980" y="1030" on="0"/>
        <pt x="958" y="1003" on="0"/>
        <pt x="932" y="991" on="1"/>
        <pt x="465" y="784" on="1"/>
        <pt x="442" y="774" on="0"/>
        <pt x="392" y="760" on="0"/>
        <pt x="365" y="754" on="1"/>
        <pt x="391" y="749" on="0"/>
        <pt x="438" y="735" on="0"/>
        <pt x="458" y="724" on="1"/>
        <pt x="873" y="515" on="1"/>
        <pt x="894" y="504" on="0"/>
        <pt x="911" y="482" on="0"/>
        <pt x="911" y="468" on="1"/>
        <pt x="911" y="466" on="0"/>
        <pt x="910" y="462" on="0"/>
        <pt x="910" y="460" on="1"/>
        <pt x="895" y="338" on="1"/>
        <pt x="169" y="717" on="1"/>
      </contour>
      <contour>
        <pt x="107" y="215" on="1"/>
        <pt x="880" y="215" on="1"/>
        <pt x="863" y="80" on="1"/>
        <pt x="90" y="80" on="1"/>
      </contour>
    </TTGlyph>
    <TTGlyph name="logicalnot" xMin="165" yMin="318" xMax="1039" yMax="736">
      <contour>
        <pt x="180" y="736" on="1"/>
        <pt x="1039" y="736" on="1"/>
        <pt x="987" y="318" on="1"/>
        <pt x="840" y="318" on="1"/>
        <pt x="876" y="606" on="1"/>
        <pt x="165" y="606" on="1"/>
      </contour>
    </TTGlyph>
    <TTGlyph name="lozenge" xMin="143" yMin="-119" xMax="1048" yMax="1522">
      <contour>
        <pt x="143" y="701" on="1"/>
        <pt x="533" y="1522" on="1"/>
        <pt x="657" y="1522" on="1"/>
        <pt x="1048" y="701" on="1"/>
        <pt x="657" y="-119" on="1"/>
        <pt x="533" y="-119" on="1"/>
      </contour>
      <contour>
        <pt x="291" y="701" on="1"/>
        <pt x="567" y="120" on="1"/>
        <pt x="575" y="97" on="0"/>
        <pt x="590" y="59" on="0"/>
        <pt x="595" y="41" on="1"/>
        <pt x="600" y="59" on="0"/>
        <pt x="614" y="97" on="0"/>
        <pt x="623" y="120" on="1"/>
        <pt x="903" y="701" on="1"/>
        <pt x="623" y="1283" on="1"/>
        <pt x="605" y="1327" on="0"/>
        <pt x="595" y="1362" on="1"/>
        <pt x="590" y="1343" on="0"/>
        <pt x="575" y="1305" on="0"/>
        <pt x="567" y="1283" on="1"/>
      </contour>
    </TTGlyph>
    <TTGlyph name="lslash" xMin="76" yMin="0" xMax="610" yMax="1473">
      <contour>
        <pt x="76" y="726" on="1"/>
        <pt x="76" y="755" on="0"/>
        <pt x="101" y="766" on="1"/>
        <pt x="254" y="834" on="1"/>
        <pt x="332" y="1473" on="1"/>
        <pt x="507" y="1473" on="1"/>
        <pt x="437" y="902" on="1"/>
        <pt x="610" y="976" on="1"/>
        <pt x="610" y="874" on="1"/>
        <pt x="610" y="841" on="0"/>
        <pt x="583" y="830" on="1"/>
        <pt x="420" y="757" on="1"/>
        <pt x="328" y="0" on="1"/>
        <pt x="153" y="0" on="1"/>
        <pt x="237" y="690" on="1"/>
        <pt x="76" y="621" on="1"/>
      </contour>
    </TTGlyph>
    <TTGlyph name="m" xMin="71" yMin="0" xMax="1473" yMax="1028">
      <contour>
        <pt x="71" y="0" on="1"/>
        <pt x="193" y="1014" on="1"/>
        <pt x="282" y="1014" on="1"/>
        <pt x="342" y="1014" on="0"/>
        <pt x="342" y="954" on="1"/>
        <pt x="328" y="773" on="1"/>
        <pt x="403" y="899" on="0"/>
        <pt x="581" y="1028" on="0"/>
        <pt x="680" y="1028" on="1"/>
        <pt x="783" y="1028" on="0"/>
        <pt x="881" y="887" on="0"/>
        <pt x="881" y="756" on="1"/>
        <pt x="957" y="895" on="0"/>
        <pt x="1146" y="1028" on="0"/>
        <pt x="1250" y="1028" on="1"/>
        <pt x="1362" y="1028" on="0"/>
        <pt x="1473" y="882" on="0"/>
        <pt x="1473" y="745" on="1"/>
        <pt x="1473" y="722" on="0"/>
        <pt x="1469" y="672" on="0"/>
        <pt x="1466" y="645" on="1"/>
        <pt x="1390" y="0" on="1"/>
        <pt x="1215" y="0" on="1"/>
        <pt x="1291" y="645" on="1"/>
        <pt x="1297" y="694" on="0"/>
        <pt x="1297" y="734" on="1"/>
        <pt x="1297" y="809" on="0"/>
        <pt x="1247" y="880" on="0"/>
        <pt x="1188" y="880" on="1"/>
        <pt x="1145" y="880" on="0"/>
        <pt x="1059" y="837" on="0"/>
        <pt x="979" y="754" on="0"/>
        <pt x="910" y="631" on="0"/>
        <pt x="883" y="551" on="1"/>
        <pt x="818" y="0" on="1"/>
        <pt x="642" y="0" on="1"/>
        <pt x="719" y="645" on="1"/>
        <pt x="722" y="672" on="0"/>
        <pt x="726" y="720" on="0"/>
        <pt x="726" y="741" on="1"/>
        <pt x="726" y="812" on="0"/>
        <pt x="679" y="880" on="0"/>
        <pt x="620" y="880" on="1"/>
        <pt x="572" y="880" on="0"/>
        <pt x="483" y="832" on="0"/>
        <pt x="404" y="741" on="0"/>
        <pt x="336" y="610" on="0"/>
        <pt x="308" y="528" on="1"/>
        <pt x="245" y="0" on="1"/>
      </contour>
    </TTGlyph>
    <TTGlyph name="macron" xMin="112" yMin="1232" xMax="656" yMax="1345">
      <contour>
        <pt x="126" y="1345" on="1"/>
        <pt x="656" y="1345" on="1"/>
        <pt x="642" y="1232" on="1"/>
        <pt x="112" y="1232" on="1"/>
      </contour>
    </TTGlyph>
    <TTGlyph name="macron.case" xMin="134" yMin="1576" xMax="711" yMax="1678">
      <contour>
        <pt x="147" y="1678" on="1"/>
        <pt x="711" y="1678" on="1"/>
        <pt x="697" y="1576" on="1"/>
        <pt x="134" y="1576" on="1"/>
      </contour>
    </TTGlyph>
    <TTGlyph name="minus" xMin="165" yMin="606" xMax="1039" yMax="736">
      <contour>
        <pt x="180" y="736" on="1"/>
        <pt x="1039" y="736" on="1"/>
        <pt x="1023" y="606" on="1"/>
        <pt x="165" y="606" on="1"/>
      </contour>
    </TTGlyph>
</ttFont>
